<svg xmlns="http://www.w3.org/2000/svg">
<defs>
<font id="DBBunjerdXv3_2" horiz-adv-x="0" >
  <font-face 
    font-family="DBBunjerdXv3_2"
    font-weight="400"
    font-stretch="normal"
    units-per-em="4096"
    panose-1="2 0 5 6 0 0 0 2 0 4"
    ascent="3276"
    descent="-820"
    x-height="1651"
    cap-height="2096"
    bbox="-2055 -1310 2749 3210"
    underline-thickness="143"
    underline-position="-674"
    unicode-range="U+0020-F880"
  />
<missing-glyph horiz-adv-x="1815" 
d="M1850 1753v-61h26q31 0 31 39q0 4 -7 13t-24 9h-26zM1863 1687h-13v-61h-22v149h48q52 0 52 -44q0 -29 -13.5 -36.5t-30.5 -7.5l44 -61h-21zM1876 1604q28 0 46.5 8.5t29.5 22t15.5 28.5t4.5 29q0 49 -23 77t-73 28t-75.5 -28t-25.5 -77q0 -36 24 -62t77 -26zM1876 1810
q56 0 82.5 -34.5t26.5 -83.5q0 -18 -6.5 -36t-20 -32.5t-34 -23.5t-48.5 -9q-26 0 -47 9t-36 23.5t-23 32.5t-8 36q0 49 30.5 83.5t83.5 34.5zM881 1385q46 -3 104.5 -9.5t121.5 -16t127 -22t120 -27.5t101 -32.5t70 -37.5q-44 87 -114.5 154.5t-157 114t-183.5 71
t-194 24.5q-74 0 -146 -14t-137.5 -42.5t-122.5 -72.5t-102 -103q79 10 158 13.5t158 3.5q49 0 98 -0.5t99 -3.5zM1644 1731v-622q-105 33 -226.5 61.5t-255 50t-277 34t-293.5 12.5q-208 0 -412 -27q26 99 83.5 188t145 156.5t203 107t256.5 39.5q136 0 245.5 -30.5
t191.5 -75.5t137 -96t83 -92q0 -3 -0.5 11.5t-1 40.5t-1 59t-1 67t-1 64.5t-0.5 51.5h124zM671 556q0 18 -7 31.5t-17.5 22.5t-24 13t-26.5 4q-30 0 -52.5 -17t-22.5 -54q0 -36 22.5 -50.5t52.5 -14.5q13 0 26.5 3.5t24 11t17.5 20t7 30.5zM140 609q0 102 40 179.5t105 130
t149 79.5t171 27t168.5 -23.5t144 -72t100.5 -124t38 -178.5v-508h464v885h124v-1000h-829v115h128v521q0 66 -26 115t-71 82t-106 49.5t-131 16.5q-66 0 -127.5 -18.5t-109 -54t-76.5 -86.5t-29 -117v-470l254 255q-11 5 -27 16t-30.5 28.5t-24.5 42t-10 57.5q0 39 12.5 71
t36 54.5t56 34.5t71.5 12q37 0 68 -14t52.5 -37.5t33.5 -55t12 -65.5q0 -31 -7 -54.5t-17.5 -40.5t-21.5 -29t-20 -20q-5 -5 -25 -24t-49.5 -48t-67 -65t-76.5 -74q-47 -43 -98.5 -91.5t-108.5 -105.5h-140v605z" />
    <glyph glyph-name="plusminus" unicode="&#x2b;&#x2d;" horiz-adv-x="1749" 
d="M764 1644h221v-472h571v-211h-571v-453h-221v453h-570v211h570v472zM1556 279v-211h-1362v211h1362z" />
    <glyph glyph-name="ellipsis" unicode="&#x2e;&#x2e;&#x2e;" horiz-adv-x="2456" 
d="M232 321h353v-321h-353v321zM1051 321h353v-321h-353v321zM1870 321h353v-321h-353v321z" />
    <glyph glyph-name="lessequal" unicode="&#x3c;&#x3d;" horiz-adv-x="1623" 
d="M187 1v207h1247v-207h-1247zM1437 377l-1239 605v242l1239 599v-251l-1043 -469l1043 -475v-251z" />
    <glyph glyph-name="greaterequal" unicode="&#x3e;&#x3d;" horiz-adv-x="1623" 
d="M190 1v207h1247v-207h-1247zM187 628l1043 475l-1043 469v251l1239 -599v-242l-1239 -605v251z" />
    <glyph glyph-name="fongmanfunnuthai" unicode="&#xe4f;&#x22;" horiz-adv-x="1973" 
d="M1051 2307h245l-24 -493h-193zM694 2307h242l-27 -493h-191zM140 829q0 117 30.5 224.5t86 201.5t133 170.5t172.5 131.5t204 85t227 30q116 0 223 -30t200.5 -85t170 -131.5t131.5 -170.5t85 -201.5t30 -224.5t-30 -225t-85 -202t-131.5 -171t-170 -132t-200.5 -85
t-223 -30q-118 0 -227 30t-204 85t-172.5 132t-133 171t-86 202t-30.5 225zM541 837q0 89 35.5 169.5t97 141.5t144 97t175.5 36q90 0 170 -36t140 -97t95 -141.5t35 -169.5q0 -93 -35 -175t-95 -143t-140 -96t-170 -35q-93 0 -175.5 35t-144 96t-97 143t-35.5 175zM358 827
q0 -132 50 -247.5t136.5 -201.5t202 -136t247.5 -50t247.5 50t202 136t136.5 201.5t50 247.5t-50 247.5t-136.5 202t-202 136.5t-247.5 50t-247.5 -50t-202 -136.5t-136.5 -202t-50 -247.5zM729 827q0 -55 20.5 -103t56.5 -84t84.5 -57t103.5 -21t103.5 21t84.5 57t56.5 84
t20.5 103t-20.5 103.5t-56.5 84.5t-84.5 56.5t-103.5 20.5t-103.5 -20.5t-84.5 -56.5t-56.5 -84.5t-20.5 -103.5z" />
    <glyph glyph-name="dochadaphinthuthai" unicode="&#xe0e;&#xe3a;" horiz-adv-x="1884" 
d="M349 1010q0 49 -12 95t-37 84t-64 66.5t-94 42.5v203q76 57 172 118t205 111t228.5 82.5t242.5 32.5q50 0 117 -4t138.5 -19t141 -45.5t123.5 -83.5q38 -38 62 -83t37.5 -94.5t18 -103.5t4.5 -110v-1504h-282q-113 67 -222.5 110t-204.5 68.5t-169 35.5t-117 10
q-35 0 -63 -9.5t-48 -31t-31 -57t-11 -87.5v-15h-252q0 8 0.5 21t0.5 30q0 36 6 77t19.5 81t37 77t59 65t84 45t113.5 17q73 0 158 -16.5t171.5 -43t171 -59.5t158.5 -67l167 -76v1255q0 113 -23 197.5t-76 137.5q-22 22 -57 38t-78 27t-90.5 17t-93.5 6q-60 1 -123.5 -12.5
t-124.5 -35t-118.5 -49t-106.5 -55t-86.5 -52t-59.5 -40.5q55 -18 102.5 -51t82.5 -81t55 -110t20 -137v-319q0 -81 -13 -142.5t-46.5 -103.5t-92 -63.5t-149.5 -21.5h-140v189h82q59 0 83 36t24 107v300zM1281 -531q0 42 15.5 78.5t42.5 63.5t63.5 42.5t77.5 15.5
q42 0 78.5 -15.5t63.5 -42.5t42.5 -63.5t15.5 -78.5q0 -41 -15.5 -77.5t-42.5 -63.5t-63.5 -42.5t-78.5 -15.5q-41 0 -77.5 15.5t-63.5 42.5t-42.5 63.5t-15.5 77.5z" />
    <glyph glyph-name="topatakphintuthai" unicode="&#xe0f;&#xe3a;" horiz-adv-x="1884" 
d="M349 1010q0 49 -12 95t-37 84t-64 66.5t-94 42.5v203q76 57 172 118t205 111t228.5 82.5t242.5 32.5q50 0 117 -4t138.5 -19t141 -45.5t123.5 -83.5q38 -38 62 -83t37.5 -94.5t18 -103.5t4.5 -110v-1506h-306q-43 44 -86.5 78.5t-85 58t-78 36t-65.5 12.5q-20 0 -44 -7.5
t-47 -28t-41.5 -56t-27.5 -91.5l-122 1q-30 32 -63.5 64t-67.5 57t-68 40t-66 14q-32 -2 -54.5 -45.5t-22.5 -132.5h-218q0 88 17.5 162.5t51 129t81.5 85t110 30.5q24 0 58 -10.5t75.5 -35.5t90 -65.5t101.5 -101.5q19 67 49.5 108.5t64.5 65t67.5 31.5t59.5 8
q31 0 69 -12.5t85 -41t103.5 -75.5t124.5 -117l1 1271q0 113 -23 197.5t-76 137.5q-22 22 -57 38t-78 27t-90.5 17t-93.5 6q-60 1 -123.5 -12.5t-124.5 -35t-118.5 -49t-106.5 -55t-86.5 -52t-59.5 -40.5q55 -18 102.5 -51t82.5 -81t55 -110t20 -137v-319q0 -81 -13 -142.5
t-46.5 -103.5t-92 -63.5t-149.5 -21.5h-140v189h82q59 0 83 36t24 107v300zM1281 -531q0 42 15.5 78.5t42.5 63.5t63.5 42.5t77.5 15.5q42 0 78.5 -15.5t63.5 -42.5t42.5 -63.5t15.5 -78.5q0 -41 -15.5 -77.5t-42.5 -63.5t-63.5 -42.5t-78.5 -15.5q-41 0 -77.5 15.5
t-63.5 42.5t-42.5 63.5t-15.5 77.5z" />
    <glyph glyph-name="dochadasarauthai" unicode="&#xe0e;&#xe38;" horiz-adv-x="1884" 
d="M1632 -853v507h-431v-192h188v-315h243zM349 1010q0 49 -12 95t-37 84t-64 66.5t-94 42.5v203q76 57 172 118t205 111t228.5 82.5t242.5 32.5q50 0 117 -4t138.5 -19t141 -45.5t123.5 -83.5q38 -38 62 -83t37.5 -94.5t18 -103.5t4.5 -110v-1504h-282q-113 67 -222.5 110
t-204.5 68.5t-169 35.5t-117 10q-35 0 -63 -9.5t-48 -31t-31 -57t-11 -87.5v-15h-252q0 8 0.5 21t0.5 30q0 36 6 77t19.5 81t37 77t59 65t84 45t113.5 17q73 0 158 -16.5t171.5 -43t171 -59.5t158.5 -67l167 -76v1255q0 113 -23 197.5t-76 137.5q-22 22 -57 38t-78 27
t-90.5 17t-93.5 6q-60 1 -123.5 -12.5t-124.5 -35t-118.5 -49t-106.5 -55t-86.5 -52t-59.5 -40.5q55 -18 102.5 -51t82.5 -81t55 -110t20 -137v-319q0 -81 -13 -142.5t-46.5 -103.5t-92 -63.5t-149.5 -21.5h-140v189h82q59 0 83 36t24 107v300z" />
    <glyph glyph-name="topataksarauthai" unicode="&#xe0f;&#xe38;" horiz-adv-x="1884" 
d="M1632 -853v507h-431v-192h188v-315h243zM349 1010q0 49 -12 95t-37 84t-64 66.5t-94 42.5v203q76 57 172 118t205 111t228.5 82.5t242.5 32.5q50 0 117 -4t138.5 -19t141 -45.5t123.5 -83.5q38 -38 62 -83t37.5 -94.5t18 -103.5t4.5 -110v-1506h-306q-43 44 -86.5 78.5
t-85 58t-78 36t-65.5 12.5q-20 0 -44 -7.5t-47 -28t-41.5 -56t-27.5 -91.5l-122 1q-30 32 -63.5 64t-67.5 57t-68 40t-66 14q-32 -2 -54.5 -45.5t-22.5 -132.5h-218q0 88 17.5 162.5t51 129t81.5 85t110 30.5q24 0 58 -10.5t75.5 -35.5t90 -65.5t101.5 -101.5
q19 67 49.5 108.5t64.5 65t67.5 31.5t59.5 8q31 0 69 -12.5t85.5 -41t104 -75.5t124.5 -117v1271q0 113 -23 197.5t-76 137.5q-22 22 -57 38t-78 27t-90.5 17t-93.5 6q-60 1 -123.5 -12.5t-124.5 -35t-118.5 -49t-106.5 -55t-86.5 -52t-59.5 -40.5q55 -18 102.5 -51
t82.5 -81t55 -110t20 -137v-319q0 -81 -13 -142.5t-46.5 -103.5t-92 -63.5t-149.5 -21.5h-140v189h82q59 0 83 36t24 107v300z" />
    <glyph glyph-name="dochadasarauuthai" unicode="&#xe0e;&#xe39;" horiz-adv-x="1884" 
d="M795 -540h140v-84q0 -61 21 -111.5t64 -86.5t108.5 -56t154.5 -20q96 0 162.5 25.5t108 68t60 97.5t18.5 114v245h-234v-273q0 -25 -9.5 -43.5t-25.5 -31t-37 -19t-43 -6.5q-24 0 -45.5 6.5t-38 19t-26.5 31t-10 43.5v273h-368v-192zM349 1010q0 49 -12 95t-37 84
t-64 66.5t-94 42.5v203q76 57 172 118t205 111t228.5 82.5t242.5 32.5q50 0 117 -4t138.5 -19t141 -45.5t123.5 -83.5q38 -38 62 -83t37.5 -94.5t18 -103.5t4.5 -110v-1504h-282q-113 67 -222.5 110t-204.5 68.5t-169 35.5t-117 10q-35 0 -63 -9.5t-48 -31t-31 -57
t-11 -87.5v-15h-252q0 8 0.5 21t0.5 30q0 36 6 77t19.5 81t37 77t59 65t84 45t113.5 17q73 0 158 -16.5t171.5 -43t171 -59.5t158.5 -67l167 -76v1255q0 113 -23 197.5t-76 137.5q-22 22 -57 38t-78 27t-90.5 17t-93.5 6q-60 1 -123.5 -12.5t-124.5 -35t-118.5 -49
t-106.5 -55t-86.5 -52t-59.5 -40.5q55 -18 102.5 -51t82.5 -81t55 -110t20 -137v-319q0 -81 -13 -142.5t-46.5 -103.5t-92 -63.5t-149.5 -21.5h-140v189h82q59 0 83 36t24 107v300z" />
    <glyph glyph-name="topataksarauuthai" unicode="&#xe0f;&#xe39;" horiz-adv-x="1884" 
d="M795 -540h140v-84q0 -61 21 -111.5t64 -86.5t108.5 -56t154.5 -20q96 0 162.5 25.5t108 68t60 97.5t18.5 114v245h-234v-273q0 -25 -9.5 -43.5t-25.5 -31t-37 -19t-43 -6.5q-24 0 -45.5 6.5t-38 19t-26.5 31t-10 43.5v273h-368v-192zM349 1010q0 49 -12 95t-37 84
t-64 66.5t-94 42.5v203q76 57 172 118t205 111t228.5 82.5t242.5 32.5q50 0 117 -4t138.5 -19t141 -45.5t123.5 -83.5q38 -38 62 -83t37.5 -94.5t18 -103.5t4.5 -110v-1506h-306q-43 44 -86.5 78.5t-85 58t-78 36t-65.5 12.5q-20 0 -44 -7.5t-47 -28t-41.5 -56t-27.5 -91.5
l-122 1q-30 32 -63.5 64t-67.5 57t-68 40t-66 14q-32 -2 -54.5 -45.5t-22.5 -132.5h-218q0 88 17.5 162.5t51 129t81.5 85t110 30.5q24 0 58 -10.5t75.5 -35.5t90 -65.5t101.5 -101.5q19 67 49.5 108.5t64.5 65t67.5 31.5t59.5 8q31 0 69 -12.5t85.5 -41t104 -75.5
t124.5 -117v1271q0 113 -23 197.5t-76 137.5q-22 22 -57 38t-78 27t-90.5 17t-93.5 6q-60 1 -123.5 -12.5t-124.5 -35t-118.5 -49t-106.5 -55t-86.5 -52t-59.5 -40.5q55 -18 102.5 -51t82.5 -81t55 -110t20 -137v-319q0 -81 -13 -142.5t-46.5 -103.5t-92 -63.5t-149.5 -21.5
h-140v189h82q59 0 83 36t24 107v300z" />
    <glyph glyph-name=".notdef" horiz-adv-x="1815" 
d="M1850 1753v-61h26q31 0 31 39q0 4 -7 13t-24 9h-26zM1863 1687h-13v-61h-22v149h48q52 0 52 -44q0 -29 -13.5 -36.5t-30.5 -7.5l44 -61h-21zM1876 1604q28 0 46.5 8.5t29.5 22t15.5 28.5t4.5 29q0 49 -23 77t-73 28t-75.5 -28t-25.5 -77q0 -36 24 -62t77 -26zM1876 1810
q56 0 82.5 -34.5t26.5 -83.5q0 -18 -6.5 -36t-20 -32.5t-34 -23.5t-48.5 -9q-26 0 -47 9t-36 23.5t-23 32.5t-8 36q0 49 30.5 83.5t83.5 34.5zM881 1385q46 -3 104.5 -9.5t121.5 -16t127 -22t120 -27.5t101 -32.5t70 -37.5q-44 87 -114.5 154.5t-157 114t-183.5 71
t-194 24.5q-74 0 -146 -14t-137.5 -42.5t-122.5 -72.5t-102 -103q79 10 158 13.5t158 3.5q49 0 98 -0.5t99 -3.5zM1644 1731v-622q-105 33 -226.5 61.5t-255 50t-277 34t-293.5 12.5q-208 0 -412 -27q26 99 83.5 188t145 156.5t203 107t256.5 39.5q136 0 245.5 -30.5
t191.5 -75.5t137 -96t83 -92q0 -3 -0.5 11.5t-1 40.5t-1 59t-1 67t-1 64.5t-0.5 51.5h124zM671 556q0 18 -7 31.5t-17.5 22.5t-24 13t-26.5 4q-30 0 -52.5 -17t-22.5 -54q0 -36 22.5 -50.5t52.5 -14.5q13 0 26.5 3.5t24 11t17.5 20t7 30.5zM140 609q0 102 40 179.5t105 130
t149 79.5t171 27t168.5 -23.5t144 -72t100.5 -124t38 -178.5v-508h464v885h124v-1000h-829v115h128v521q0 66 -26 115t-71 82t-106 49.5t-131 16.5q-66 0 -127.5 -18.5t-109 -54t-76.5 -86.5t-29 -117v-470l254 255q-11 5 -27 16t-30.5 28.5t-24.5 42t-10 57.5q0 39 12.5 71
t36 54.5t56 34.5t71.5 12q37 0 68 -14t52.5 -37.5t33.5 -55t12 -65.5q0 -31 -7 -54.5t-17.5 -40.5t-21.5 -29t-20 -20q-5 -5 -25 -24t-49.5 -48t-67 -65t-76.5 -74q-47 -43 -98.5 -91.5t-108.5 -105.5h-140v605z" />
    <glyph glyph-name=".null" 
 />
    <glyph glyph-name="nonmarkingreturn" horiz-adv-x="1240" 
 />
    <glyph glyph-name="space" unicode=" " horiz-adv-x="888" 
 />
    <glyph glyph-name="exclam" unicode="!" horiz-adv-x="1133" 
d="M477 626l-70 1470h321l-62 -1470h-189zM389 321h354v-321h-354v321z" />
    <glyph glyph-name="quotedbl" unicode="&#x22;" horiz-adv-x="1209" 
d="M738 2097h219v-758h-219v758zM253 2097h219v-758h-219v758z" />
    <glyph glyph-name="numbersign" unicode="#" horiz-adv-x="1749" 
d="M275 1480h313l90 615h183l-90 -615h394l90 615h183l-90 -615h239v-190h-267l-75 -515h246v-190h-273l-85 -585h-184l86 585h-394l-85 -585h-184l86 585h-279v190h307l75 515h-286v190zM669 775h394l74 515h-393z" />
    <glyph glyph-name="dollar" unicode="$" horiz-adv-x="1620" 
d="M885 2136q185 -19 316 -69t229 -128l-134 -191q-56 48 -112 80t-109 52t-101.5 29.5t-88.5 14.5v-705q162 -60 278.5 -122t191 -138t109.5 -171t35 -222q0 -23 -4.5 -66.5t-19 -98t-42.5 -114.5t-76 -115q-51 -58 -112.5 -94.5t-125 -58.5t-124.5 -32.5t-110 -16.5v-258
h-163v258q-101 10 -186 29t-158 46.5t-137.5 64.5t-124.5 84l143 219q47 -55 103 -94.5t116 -65.5t122 -41t122 -20v784q-24 7 -62 18.5t-83 29t-94 40t-97 52t-91 65t-75 78.5q-32 42 -53 79t-33.5 79t-18 94t-5.5 124q0 35 10 79t33 92t60.5 97t91.5 95q72 56 172.5 90
t244.5 45v253h163v-250zM1069 840l-13 8t-37.5 21t-58.5 28.5t-75 30.5v-736q63 5 125.5 26t114.5 59t87.5 95t43.5 134q4 40 1 83.5t-22.5 87t-59 85t-106.5 78.5zM365 1644q0 -66 20 -122t53 -99.5t75.5 -74.5t87.5 -46l121 -41v664q-57 -1 -119.5 -17t-115.5 -49.5
t-87.5 -86.5t-34.5 -128z" />
    <glyph glyph-name="percent" unicode="%" horiz-adv-x="2467" 
d="M493 -153l1195 2309h211l-1195 -2309h-211zM246 1684q0 85 32 160t87.5 131t130.5 88t160 32t160 -32t130.5 -88t87.5 -131t32 -160t-32 -159.5t-87.5 -130t-130.5 -87.5t-160 -32t-160 32t-130.5 87.5t-87.5 130t-32 159.5zM434 1684q0 -46 17.5 -86t47.5 -70t70.5 -47
t86.5 -17t86.5 17t70.5 47t47 70t17 86t-17 87t-47 71t-70.5 47.5t-86.5 17.5t-86.5 -17.5t-70.5 -47.5t-47.5 -71t-17.5 -87zM1402 410q0 85 32 160t87.5 131t130.5 88t160 32t159.5 -32t130 -88t87.5 -131t32 -160t-32 -159.5t-87.5 -130t-130 -87.5t-159.5 -32t-160 32
t-130.5 87.5t-87.5 130t-32 159.5zM1590 410q0 -46 17 -86t47 -70t70.5 -47.5t87.5 -17.5q46 0 86.5 17.5t70.5 47.5t47 70t17 86t-17 86.5t-47 70.5t-70.5 47.5t-86.5 17.5q-47 0 -87.5 -17.5t-70.5 -47.5t-47 -70.5t-17 -86.5z" />
    <glyph glyph-name="ampersand" unicode="&#x26;" horiz-adv-x="2144" 
d="M967 1206q31 -60 70.5 -127t83.5 -135.5t91.5 -136t94 -129t90.5 -114.5t83 -91q49 56 87.5 129t66 151.5t44 157t22.5 145.5l211 -36q-5 -80 -27 -173.5t-59 -186.5t-88 -180t-114 -153q33 -29 74 -49.5t85 -34t89.5 -19.5t86.5 -4l18 -252q-83 1 -147.5 12.5
t-122.5 34.5t-115 59.5t-125 88.5q-66 -54 -140 -93t-151.5 -64t-156 -37t-152.5 -12q-172 0 -302.5 53.5t-218 142.5t-131.5 205.5t-44 242.5q0 95 24 175t63.5 146.5t92 120.5t109 98t114 78.5t108.5 61.5q-15 27 -37.5 80.5t-45 118t-40.5 130.5t-23 118q-8 84 16.5 161
t82 135.5t147.5 93.5t213 35q85 0 168 -19t148 -63.5t105 -117.5t40 -181q0 -71 -25 -133t-66 -115.5t-93 -99t-106.5 -85t-106 -72.5t-91.5 -61zM886 178q134 0 242.5 40.5t189.5 103.5q-89 96 -174 207t-158.5 219t-131.5 204t-92 162q-63 -32 -121.5 -83.5t-103.5 -115
t-72.5 -135t-27.5 -143.5q0 -49 10.5 -102t33 -104t57.5 -97t85 -80.5t115.5 -55t147.5 -20.5zM760 1737q5 -47 14.5 -87.5t24.5 -83t37 -91t52 -110.5q83 47 141 91.5t96 84.5t60 76t32.5 66.5t13 56t2.5 45.5q0 34 -13 68t-42 61t-75 44t-113 17q-23 0 -50 -3t-55 -12
t-53 -25.5t-43 -42.5t-26.5 -64t-2.5 -91z" />
    <glyph glyph-name="quotesingle" unicode="'" horiz-adv-x="671" 
d="M226 2097h219v-758h-219v758z" />
    <glyph glyph-name="parenleft" unicode="(" horiz-adv-x="1112" 
d="M262 1064q0 219 33.5 430.5t93 404t140 362t175.5 305.5h258q-15 -21 -32 -46t-34 -51.5t-33 -53t-28 -51.5q-76 -150 -129 -292.5t-89.5 -272.5t-57.5 -244.5t-32 -209t-14 -166t-3 -115.5t3 -115.5t14 -166.5t32 -210t57.5 -245t89.5 -272.5t129 -292.5
q12 -25 27.5 -51.5t33 -53t34.5 -51.5t32 -46h-258q-95 136 -175.5 305.5t-140 362.5t-93 404.5t-33.5 431.5z" />
    <glyph glyph-name="parenright" unicode=")" horiz-adv-x="1112" 
d="M850 1064q0 -220 -33.5 -431.5t-93 -404.5t-140.5 -362.5t-175 -305.5h-258q15 21 32 46t34 51.5t33 53t28 51.5q75 150 128.5 292.5t89.5 272.5t57 245t32 210t14 166.5t3 115.5q0 43 -3 115t-14 166.5t-32 209t-57 244.5t-89.5 272.5t-128.5 292.5q-12 25 -28 51.5
t-33 53t-34 51.5t-32 46h258q94 -136 175 -305.5t140.5 -362t93 -404t33.5 -430.5z" />
    <glyph glyph-name="asterisk" unicode="*" horiz-adv-x="1620" 
d="M928 2196l-97 -552l508 239l74 -253l-563 -73l403 -397l-216 -166l-246 485l-249 -485l-216 166l403 397l-563 73l75 253l509 -236l-97 549h275z" />
    <glyph glyph-name="plus" unicode="+" horiz-adv-x="1747" 
d="M763 1497h221v-600h592v-211h-592v-600h-221v600h-592v211h592v600z" />
    <glyph glyph-name="comma" unicode="," horiz-adv-x="974" 
d="M310 321h353l-3 -357l-201 -392h-138l170 428h-181v321z" />
    <glyph glyph-name="hyphen" unicode="-" horiz-adv-x="1247" 
d="M1113 909v-236h-979v236h979z" />
    <glyph glyph-name="period" unicode="." horiz-adv-x="974" 
d="M310 321h353v-321h-353v321z" />
    <glyph glyph-name="slash" unicode="/" horiz-adv-x="1048" 
d="M990 2153l-708 -2208h-225l707 2208h226z" />
    <glyph glyph-name="zero" unicode="0" horiz-adv-x="1650" 
d="M826 -41q-124 0 -215.5 26.5t-157.5 68.5t-109.5 95t-72.5 106q-43 78 -64.5 168.5t-29.5 187.5t-8 196.5v197.5v138t2 149t7.5 152.5t17 147.5t29.5 134t46 113q34 63 81.5 116t114 92t154 61t203.5 22q117 0 206.5 -23.5t156 -62.5t112.5 -89t75 -104q27 -50 46 -114.5
t31 -136.5t18.5 -150t9.5 -155t3.5 -151t0.5 -139v-197.5t-8 -196.5t-29.5 -187.5t-64.5 -168.5q-29 -53 -72.5 -106t-109.5 -95t-157.5 -68.5t-215.5 -26.5zM826 1932q-51 0 -100 -13t-91 -37.5t-75.5 -61t-54.5 -84.5q-14 -32 -26 -71t-20.5 -87t-13.5 -107t-5 -131v-590
q0 -73 2 -132t8 -106.5t16.5 -86t26.5 -69.5q27 -53 66 -89t83.5 -58t91.5 -31t91 -9q45 0 92 7t91 26.5t82 54t65 89.5q31 63 44 160t13 244v590q0 72 -4.5 131t-13 107t-20.5 87t-27 71q-21 48 -54 84.5t-75 61t-90.5 37.5t-101.5 13z" />
    <glyph glyph-name="one" unicode="1" horiz-adv-x="1648" 
d="M318 220h414v1652h-380v223h651v-1875h384v-221h-1069v221z" />
    <glyph glyph-name="two" unicode="2" horiz-adv-x="1648" 
d="M168 1684q36 81 93.5 160.5t141 143t193.5 102.5t251 39q154 0 271.5 -44t196.5 -123t119 -188.5t40 -240.5q0 -104 -28.5 -190.5t-81.5 -164.5t-129 -151.5t-171 -149.5q-56 -45 -109.5 -84t-104.5 -78.5t-99.5 -82.5t-94.5 -95q-66 -73 -115 -152.5t-69 -157.5h1006
v-228h-1299q8 83 24.5 158t45 146t69.5 139t99 138q19 23 50.5 56.5t82.5 81.5t126 113.5t182 152.5q106 87 172 156.5t103 132t50 123.5t13 132q0 82 -22.5 152t-66.5 122t-110 84t-153 38q-92 0 -168.5 -32.5t-136 -81t-101.5 -105.5t-64 -106z" />
    <glyph glyph-name="three" unicode="3" horiz-adv-x="1648" 
d="M654 -40q-38 0 -98 4.5t-129 16.5t-141.5 31.5t-135.5 49.5l84 234q106 -63 193.5 -87.5t164.5 -25.5q64 -1 129 3t126.5 17t118 37.5t104.5 64.5q36 30 65.5 69t51 86.5t33.5 102t12 114.5q0 88 -28.5 151t-76.5 103.5t-112.5 59t-136.5 18.5q-66 0 -123 -9.5
t-103.5 -22.5t-82 -25.5t-56.5 -19.5l-60 221q63 13 138 34.5t150 52t145 71t124.5 91.5t88 113.5t35.5 137.5q2 70 -26.5 122.5t-78 85t-114 45.5t-133.5 4q-72 -2 -144.5 -21t-138.5 -48t-121.5 -65.5t-92.5 -73.5l-113 161q51 49 121.5 97t157.5 85.5t187.5 61
t211.5 23.5q67 0 133 -9.5t126 -30.5t111.5 -55t88.5 -82.5t57.5 -113t18.5 -146.5q-2 -83 -34.5 -163.5t-85 -149.5t-120 -121.5t-139.5 -78.5q61 5 124 -6t120 -37t105 -67.5t80 -96.5q38 -67 57.5 -144.5t19.5 -160.5q0 -71 -16.5 -145.5t-49 -145.5t-81.5 -135
t-114 -114q-69 -53 -146.5 -86t-156 -51t-154 -24.5t-140.5 -6.5z" />
    <glyph glyph-name="four" unicode="4" horiz-adv-x="1648" 
d="M309 671h748v1229zM134 770l808 1326h386v-1425h212v-203h-212v-470h-268v470h-926v302z" />
    <glyph glyph-name="five" unicode="5" horiz-adv-x="1648" 
d="M228 1022l110 1076h993v-226h-810l-63 -625q42 25 92 46t103 36t107.5 23.5t105.5 8.5q116 0 207.5 -24.5t160 -68t116.5 -103.5t78.5 -131t44 -151.5t13.5 -163.5q0 -60 -12.5 -135t-41.5 -153t-78 -153t-122 -134q-74 -60 -151.5 -95t-150.5 -53.5t-138.5 -25.5
t-116.5 -10q-25 -2 -62.5 -1t-82.5 4t-94 8.5t-97 14t-92 20.5t-78 27l41 217q43 -12 93.5 -27t107 -28t119 -21t130.5 -6q148 3 253 46.5t178 120.5q33 34 57 77.5t40.5 92t25 99.5t10.5 99q5 122 -26 208.5t-86.5 141t-130 79t-156.5 23.5q-116 -2 -215.5 -35.5
t-174.5 -97.5h-207z" />
    <glyph glyph-name="six" unicode="6" horiz-adv-x="1648" 
d="M432 600q0 -47 10 -99.5t30.5 -103t52.5 -96.5t76 -81.5t101 -56t128 -20.5q69 0 124.5 23.5t98.5 62.5t73.5 89.5t50.5 105.5t29.5 110t9.5 103q0 55 -9 112.5t-28.5 111t-50 101.5t-73.5 83.5t-99 56t-126 20.5q-75 -3 -133.5 -29t-102.5 -68t-75 -96t-50.5 -111
t-28 -113.5t-8.5 -104.5zM1152 2096l-99 -99t-112.5 -118t-119.5 -140t-120 -165q-57 -85 -109.5 -183.5t-89.5 -218.5q33 41 78 70t95 47t103 26t103 8q130 0 239 -48t187 -138t122 -220t44 -293q0 -50 -12.5 -118t-42 -142t-79 -146.5t-123 -129.5t-174 -92.5
t-231.5 -35.5q-162 0 -282 50.5t-199 146.5t-118 236t-39 319q0 125 21 242t55.5 224t78 203t88.5 179q34 63 82.5 136.5t103 146.5t110 139t104.5 114h336z" />
    <glyph glyph-name="seven" unicode="7" horiz-adv-x="1648" 
d="M171 2098h1298v-197q-106 -163 -198 -315t-170.5 -300.5t-143.5 -297.5t-117 -306.5t-91 -326.5t-66 -357h-314q61 248 144.5 487.5t189.5 473t233.5 461.5t275.5 454h-1041v224z" />
    <glyph glyph-name="eight" unicode="8" horiz-adv-x="1648" 
d="M825 1000q-89 0 -161.5 -34t-123.5 -90t-79 -129t-28 -151q0 -95 18 -166t48.5 -122.5t70.5 -85t83.5 -53.5t88 -28t83.5 -8t83 8t87.5 28t83.5 53.5t70.5 85t48.5 122.5t18 166q0 78 -28 151t-79 129t-123.5 90t-160.5 34zM825 1942q-90 0 -157.5 -32t-112.5 -85
t-67.5 -122t-22.5 -144q0 -20 6 -55.5t21 -76.5t41 -83.5t66 -77t95.5 -56.5t130.5 -22q74 0 129.5 22t95.5 56.5t65.5 77t40.5 83.5t21 76.5t6 55.5q0 75 -22.5 144t-67 122t-111.5 85t-157 32zM825 -43q-123 0 -220 28.5t-171 76t-126 108.5t-85 125.5t-48 128t-15 114.5
q0 85 17 168.5t57.5 157.5t106.5 135t164 101q-56 29 -107.5 77t-91 111.5t-63 140.5t-23.5 165q0 118 46.5 216.5t128 169t192 110t238.5 39.5q127 0 237.5 -39.5t191.5 -110t127.5 -169t46.5 -216.5q0 -88 -23 -165.5t-61.5 -141.5t-89.5 -112t-107 -77q100 -38 166 -98
t105 -134.5t54.5 -158.5t15.5 -169q0 -52 -15 -115t-48 -127.5t-84.5 -125.5t-125.5 -108.5t-170.5 -76t-219.5 -28.5z" />
    <glyph glyph-name="nine" unicode="9" horiz-adv-x="1648" 
d="M1214 1491q-1 47 -10.5 99t-30 102.5t-52 96.5t-75.5 80.5t-101.5 55t-128.5 20.5q-69 0 -124.5 -23t-98 -61.5t-73.5 -89t-50.5 -105t-29 -109.5t-9.5 -103q0 -83 21 -169t66.5 -156.5t119 -115.5t178.5 -45q75 3 133.5 29.5t103 68.5t75.5 96t50 111t27.5 113.5
t8.5 104.5zM494 -1l99 99t113 118.5t120 140t120 164.5q57 86 109.5 182t89.5 216q-33 -41 -78 -70t-95 -47t-103 -26t-103 -8q-131 0 -240 48t-187 138t-122 219.5t-44 293.5q0 49 12.5 117.5t42.5 142t79 145.5t123 129t174 92t232 35q162 0 282 -50t198.5 -145.5
t117.5 -235t39 -318.5q0 -126 -21 -242.5t-55.5 -222.5t-78 -201t-88.5 -178q-34 -63 -82 -136.5t-102.5 -146.5t-110.5 -139t-105 -114h-336z" />
    <glyph glyph-name="colon" unicode=":" horiz-adv-x="975" 
d="M310 321h353v-321h-353v321zM310 1553h353v-321h-353v321z" />
    <glyph glyph-name="semicolon" unicode=";" horiz-adv-x="975" 
d="M310 1553h353v-321h-353v321zM310 321h353l1 -357l-205 -392h-138l170 428h-181v321z" />
    <glyph glyph-name="less" unicode="&#x3c;" horiz-adv-x="1749" 
d="M1524 74l-1299 596v242l1299 596v-230l-1103 -487l1103 -487v-230z" />
    <glyph glyph-name="equal" unicode="=" horiz-adv-x="1749" 
d="M1544 1160v-215h-1337v215h1337zM1544 658v-215h-1337v215h1337z" />
    <glyph glyph-name="greater" unicode="&#x3e;" horiz-adv-x="1749" 
d="M225 304l1103 487l-1103 487v230l1299 -596v-242l-1299 -596v230z" />
    <glyph glyph-name="question" unicode="?" horiz-adv-x="1462" 
d="M503 300h332v-300h-332v300zM542 516v474q57 37 114.5 84t111 99.5t100 109.5t82 115t57 115.5t24.5 111.5q5 81 -13 142.5t-54.5 103t-89.5 62.5t-119 21q-90 0 -155.5 -31.5t-110.5 -84t-71 -120.5t-37 -141l-211 48q4 101 46 195.5t119 167.5t188.5 117t254.5 44
q122 0 218 -33.5t162 -96.5t100.5 -152.5t34.5 -200.5q0 -76 -23 -147t-62 -136.5t-89.5 -125t-106 -113.5t-111.5 -102l-105 -90v-436h-254z" />
    <glyph glyph-name="at" unicode="@" horiz-adv-x="2466" 
d="M1553 1068q11 66 1.5 130t-40.5 114t-83 81t-125 31q-80 0 -143.5 -29t-109 -79t-72.5 -116.5t-33 -142.5q-5 -65 3 -128.5t33.5 -113.5t70 -81t112.5 -31q87 0 155 34t116 87t77 117.5t38 126.5zM2050 223q-52 -49 -131.5 -97t-177 -85.5t-208 -61t-223.5 -23.5
q-164 0 -313.5 37.5t-278.5 107t-234 169t-179.5 224.5t-115 272.5t-40.5 312.5q0 163 42.5 308.5t119 268t184.5 220.5t239 166.5t282.5 105t315.5 36.5q118 0 237.5 -25.5t229 -76t205 -127t165.5 -178.5t110.5 -230t40.5 -281q0 -161 -37 -280t-95.5 -203t-129.5 -137.5
t-139.5 -84t-125.5 -41.5t-87 -11q-50 1 -83.5 13t-53.5 33t-28 48t-8 58q0 11 2 30t9 40l-9 1q-38 -45 -88.5 -83t-108 -66t-118 -44t-117.5 -16q-107 0 -182.5 47.5t-121.5 123t-63 169t-8 186.5q7 76 31.5 148t62 136.5t87.5 117.5t109.5 90.5t126.5 57t140 15.5
q41 -2 91.5 -13.5t99.5 -39t90.5 -73t65.5 -114.5l44 215h183l-123 -656q-8 -43 -17 -88.5t-9 -82.5t12 -60t41 -23q34 0 74 18t79.5 51.5t77 81.5t66.5 109.5t46.5 134.5t19.5 156q2 120 -26 222.5t-80.5 186t-126.5 148t-163.5 108.5t-192.5 66.5t-212 22.5
q-140 0 -263 -32t-225.5 -90.5t-183 -140.5t-136 -182.5t-85 -217t-29.5 -242.5q0 -212 68 -381t191.5 -287.5t295.5 -181.5t381 -63q112 0 207.5 23.5t173 58t136 74.5t96.5 73z" />
    <glyph glyph-name="A" unicode="A" horiz-adv-x="1726" 
d="M1237 575h-749l-171 -575h-274l641 2096h358l641 -2096h-274zM1173 791l-313 1043l-306 -1043h619z" />
    <glyph glyph-name="B" unicode="B" horiz-adv-x="1799" 
d="M290 2096h694q129 0 242 -23.5t196.5 -82.5t132 -161t48.5 -258q0 -58 -15.5 -124t-49.5 -128.5t-88 -116.5t-132 -88q73 -27 134.5 -77.5t105 -117.5t68 -148t24.5 -170q0 -156 -47.5 -269.5t-135.5 -187t-214 -109t-283 -35.5h-680v2096zM561 215h409q94 0 170.5 21.5
t131 68t84 119.5t29.5 177q0 45 -9 92.5t-29.5 92.5t-53.5 84t-80 68q-38 23 -90 36.5t-107.5 20t-109.5 8t-97 1.5h-248v-789zM561 1206h278q47 0 94.5 3t90 9t77.5 14t59 18q55 23 91 59.5t57.5 81t30.5 94.5t9 100q0 73 -19.5 123.5t-51.5 83t-72.5 50.5t-83 26.5
t-82.5 10t-71 1.5h-407v-674z" />
    <glyph glyph-name="C" unicode="C" horiz-adv-x="1614" 
d="M167 1463q0 162 48.5 288.5t139.5 213.5t222 132.5t297 45.5q115 0 219.5 -29t187.5 -87.5t139 -147t73 -206.5q2 -13 3.5 -30t3 -35t2.5 -35t2 -30h-282v2q-1 10 -2 23.5t-2 28t-2.5 27.5t-3.5 22q-9 51 -34 102t-69 92.5t-107.5 67t-149.5 25.5t-161.5 -28t-131.5 -80
t-88.5 -126t-32.5 -167v-901q0 -49 9 -102.5t29.5 -105.5t52.5 -99t78.5 -83t108 -57t140.5 -21q69 0 129.5 17t108.5 51.5t81.5 86t49.5 119.5q4 16 6 36t3.5 41.5t2 43.5t0.5 42h279q2 -49 0.5 -99.5t-9.5 -92.5q-19 -101 -77 -184.5t-143.5 -144t-192.5 -94t-225 -33.5
q-221 0 -379.5 73.5t-236.5 215.5q-48 85 -67 193t-19 242v787z" />
    <glyph glyph-name="D" unicode="D" horiz-adv-x="1851" 
d="M290 2096h551q169 0 283 -14t191.5 -40t127 -64.5t88.5 -87.5q29 -37 50 -84.5t34.5 -123.5t20 -190t6.5 -283v-563q0 -328 -162.5 -486t-481.5 -159l-708 -1v2096zM561 216h308q67 0 130.5 4.5t119 20t102.5 45.5t80.5 82t52 129.5t18.5 186.5v574q0 88 -2.5 162
t-11.5 135.5t-27.5 112t-51.5 92.5q-39 46 -80.5 70.5t-92 35t-114 12t-145.5 1.5h-286v-1663z" />
    <glyph glyph-name="E" unicode="E" horiz-adv-x="1705" 
d="M290 2096h1245v-240h-974v-631h703v-241h-703v-745h1041v-239h-1312v2096z" />
    <glyph glyph-name="F" unicode="F" horiz-adv-x="1616" 
d="M290 2096h1245v-240h-974v-631h703v-241h-703v-984h-271v2096z" />
    <glyph glyph-name="G" unicode="G" horiz-adv-x="1713" 
d="M1217 1626q-11 66 -40.5 122t-76 96.5t-108 63.5t-136.5 23q-73 0 -147.5 -22t-134.5 -71.5t-98 -129t-38 -194.5v-875q0 -37 5 -79t15.5 -83t25.5 -79t36 -66q18 -25 46 -54t67.5 -54t91 -41.5t114.5 -16.5q89 0 165 34.5t131 94.5t86 140t31 172v243h-309v184h594
v-1034h-150l-73 185h-6q-34 -48 -82 -91t-110 -75t-138.5 -50.5t-168.5 -16.5q-171 4 -301 63.5t-209 159.5q-73 92 -102.5 212t-29.5 269v807q0 174 54.5 302t147 212t215 125t258.5 41q155 0 270.5 -35.5t196.5 -101.5t129 -160.5t69 -212.5l-2 4q0 -7 2 -11h-290z" />
    <glyph glyph-name="H" unicode="H" horiz-adv-x="2031" 
d="M290 2096h271v-858h909v858h271v-2096h-271v1025h-909v-1025h-271v2096z" />
    <glyph glyph-name="I" unicode="I" horiz-adv-x="1141" 
d="M160 0v180h278v1736h-278v180h820v-180h-272v-1736h272v-180h-820z" />
    <glyph glyph-name="J" unicode="J" horiz-adv-x="1433" 
d="M312 548l-1 -73q0 -63 14 -119t46 -97t82.5 -65t122.5 -24q71 0 126.5 20.5t93 57t57 87t19.5 111.5v1650h271v-1663q0 -89 -36 -173.5t-106.5 -151.5t-175.5 -107.5t-243 -40.5q-50 0 -102.5 7t-105 23.5t-102 43t-92.5 66.5q-70 63 -109.5 150.5t-37.5 191.5v21t0.5 32
t0.5 32v21h278z" />
    <glyph glyph-name="K" unicode="K" horiz-adv-x="1860" 
d="M1737 2097l-844 -959l923 -1138h-352l-886 1129l817 968h342zM290 2096h271v-2096h-271v2096z" />
    <glyph glyph-name="L" unicode="L" horiz-adv-x="1511" 
d="M290 2096h271v-1857h880v-239h-1151v2096z" />
    <glyph glyph-name="M" unicode="M" horiz-adv-x="2561" 
d="M1280 352q4 38 10.5 74t16.5 78.5t24.5 95t35.5 123.5l440 1373h464v-2096h-271v1859h-19l-595 -1859h-211l-595 1859h-19v-1859h-271v2096h463l440 -1373q21 -71 35.5 -123.5t24.5 -95t16 -78.5t11 -74z" />
    <glyph glyph-name="N" unicode="N" horiz-adv-x="2060" 
d="M1339 747q49 -91 96 -186.5t81 -184.5q-6 63 -10 125q-2 26 -3.5 54.5l-3 57t-1.5 55t1 49.5v1379h271v-2096h-284l-704 1325q-30 55 -61.5 120.5t-62 131t-59 127.5t-51.5 112q3 -49 6 -105q2 -48 4.5 -111t2.5 -133v-1467h-271v2096h342z" />
    <glyph glyph-name="O" unicode="O" horiz-adv-x="1706" 
d="M853 -48q-217 2 -370 75.5t-230 213.5q-48 85 -67 193t-19 242v787q0 192 66.5 333.5t192.5 226.5q169 115 427 120q128 -2 234 -32t190 -85q128 -86 195 -228t67 -335v-787q0 -134 -19.5 -242t-66.5 -193q-78 -140 -230.5 -213.5t-369.5 -75.5zM853 173q119 1 203.5 40
t132.5 110q23 34 38.5 73t24.5 79.5t12.5 80t3.5 75.5v901q0 106 -37 182t-109 127q-54 39 -124.5 60.5t-144.5 21.5q-81 0 -156 -24t-131 -70q-63 -52 -95.5 -125t-32.5 -172v-901q0 -35 2.5 -73.5t10 -77t21.5 -76.5t36 -71q48 -74 135 -116.5t210 -43.5z" />
    <glyph glyph-name="P" unicode="P" horiz-adv-x="1794" 
d="M561 1026l354 1q48 0 99.5 1.5t101.5 12t97 34.5t85 69q37 44 61.5 125.5t24.5 189.5q0 96 -17.5 163t-45.5 111.5t-62.5 70.5t-68.5 40q-35 13 -87 20.5t-127 11t-177.5 4t-237.5 0.5v-854zM290 2096h662q107 0 187 -7.5t142 -24.5t110.5 -45.5t93.5 -70.5
q45 -41 77 -98.5t52.5 -124t30 -139t9.5 -142.5q0 -109 -23 -194t-56.5 -148.5t-72.5 -106t-70 -67.5q-45 -35 -100.5 -57.5t-115.5 -36t-122 -18.5t-120 -5l-413 -1v-810h-271v2096z" />
    <glyph glyph-name="Q" unicode="Q" horiz-adv-x="1760" 
d="M853 -48q-217 2 -370 75.5t-230 213.5q-48 85 -67 193t-19 242v787q0 192 66.5 333.5t192.5 226.5q169 115 427 120q128 -2 234 -32t190 -85q128 -86 195 -228t67 -335v-787q0 -134 -19.5 -242t-66.5 -193q-8 -15 -16.5 -28.5t-18.5 -26.5q5 -12 16 -30.5t23 -31.5
q16 -17 30.5 -26.5t33 -14t45 -6t67.5 -3.5h13.5t15.5 1v-273h-38.5t-44 1.5t-49 7t-52.5 17.5q-41 17 -72 42t-54.5 55t-41.5 64t-33 69q-168 -103 -424 -106zM853 173q113 1 194 36.5t131 98.5l-19 47q-23 56 -48 91.5t-55.5 56t-68 28.5t-86.5 9v279q54 -2 103 -21
t90.5 -49t74 -66.5t52.5 -71.5l41 -81q6 52 6 101v901q0 106 -37 182t-109 127q-54 39 -124.5 60.5t-144.5 21.5q-81 0 -156 -24t-131 -70q-63 -52 -95.5 -125t-32.5 -172v-901q0 -35 2.5 -73.5t10 -77t21.5 -76.5t36 -71q48 -74 135 -116.5t210 -43.5z" />
    <glyph glyph-name="R" unicode="R" horiz-adv-x="1838" 
d="M561 1104q129 0 225 0.5t166 3.5t116.5 8.5t75.5 15.5q72 27 118.5 67.5t73.5 89.5t37.5 103.5t10.5 109.5q0 71 -16.5 127.5t-45.5 99t-69 72t-87 47.5q-32 12 -83 18.5t-124.5 9.5t-172 3.5t-225.5 0.5v-776zM561 0h-271v2096h680q77 0 158 -9.5t157 -34.5t143 -68
t117.5 -109.5t79.5 -159.5t29 -218q0 -87 -21 -174.5t-70.5 -164.5t-132 -139t-205.5 -99l468 -920h-303l-432 887h-397v-887z" />
    <glyph glyph-name="S" unicode="S" horiz-adv-x="1579" 
d="M1153 1714q-60 100 -154.5 154t-224.5 54q-72 0 -125.5 -18t-91.5 -46t-62.5 -62.5t-38.5 -68.5t-19.5 -63.5t-5.5 -46.5q0 -89 32.5 -154t79 -110t98 -73t89.5 -43l273 -121q107 -48 199.5 -113t154.5 -159q24 -36 38.5 -73.5t22.5 -77.5t10.5 -83.5t2.5 -92.5
q0 -17 -1 -47.5t-8 -70t-23 -85.5t-45 -94.5t-74.5 -96t-111.5 -89.5q-39 -25 -86 -41.5t-95 -26t-93 -13.5t-81 -4q-119 0 -213.5 14.5t-173 51t-144.5 98.5t-127 157l212 159q30 -67 76.5 -115t103 -79t120 -46t126.5 -15t127 15.5t115.5 51t84.5 93.5t33 143
q0 50 -5.5 93t-22 82t-47 75.5t-79 73t-119 75t-167.5 80.5q-126 55 -228 112t-173 128.5t-109.5 163.5t-38.5 217q0 114 42.5 216t123 179.5t195.5 122.5t260 45q96 0 177 -14t151.5 -48t132.5 -91.5t120 -143.5z" />
    <glyph glyph-name="T" unicode="T" horiz-adv-x="1496" 
d="M1453 2096v-228h-569v-1868h-271v1868h-570v228h1410z" />
    <glyph glyph-name="U" unicode="U" horiz-adv-x="1968" 
d="M984 -47q-57 0 -122.5 4.5t-132.5 20.5t-132.5 46.5t-123.5 81.5q-70 62 -107 133t-53.5 145t-19 147t-2.5 139v1426h281v-1472q0 -35 2 -77t10.5 -86t25.5 -87.5t47 -80.5q49 -60 132 -97t208 -37q113 0 197.5 33.5t135.5 85.5q40 41 62.5 86t33 90t13 88.5t2.5 81.5
v1472h237v-1426q0 -66 -6 -135t-28 -138.5t-63.5 -139.5t-113.5 -137q-45 -43 -104.5 -74.5t-124.5 -52t-130.5 -30.5t-123.5 -10z" />
    <glyph glyph-name="V" unicode="V" horiz-adv-x="1677" 
d="M672 0l-629 2096h311l337 -1249q11 -40 25 -92.5t29 -110.5t30 -117t29 -112.5t25 -98t18 -71.5h3q6 27 17 71.5t24.5 98t29.5 112.5t31.5 117t29.5 110t24 92l320 1250h308l-609 -2096h-353z" />
    <glyph glyph-name="W" unicode="W" horiz-adv-x="2535" 
d="M1267 1791q-2 -25 -7.5 -62.5t-12.5 -81.5t-15.5 -90.5t-16.5 -89t-15 -78t-11 -55.5l-305 -1334h-307l-502 2096h290l259 -1147q20 -91 51 -235.5t70 -329.5q15 83 31.5 168.5t33 163t31 142t24.5 105.5l264 1133h276l264 -1133q10 -41 24.5 -105.5t31 -142t33.5 -163
t31 -168.5q41 185 71 329.5t50 235.5l259 1147h290l-502 -2096h-307l-305 1334q-5 20 -11.5 55.5t-14.5 78t-16.5 89t-15.5 90.5t-12.5 81.5t-7.5 62.5z" />
    <glyph glyph-name="X" unicode="X" horiz-adv-x="1729" 
d="M694 1089l-635 1006h330l462 -787l457 787h339l-625 -997l664 -1098h-338l-486 880l-490 -880h-329z" />
    <glyph glyph-name="Y" unicode="Y" horiz-adv-x="1696" 
d="M732 0v845l-689 1250h318l506 -1020l477 1020h309l-650 -1233v-862h-271z" />
    <glyph glyph-name="Z" unicode="Z" horiz-adv-x="1588" 
d="M182 2096h1316v-266l-1089 -1602h1089v-228h-1407v262l1108 1616h-1017v218z" />
    <glyph glyph-name="bracketleft" unicode="[" horiz-adv-x="1103" 
d="M246 2566h708v-175h-456v-2653h450v-178h-702v3006z" />
    <glyph glyph-name="backslash" unicode="\" horiz-adv-x="1049" 
d="M282 2153l708 -2208h-226l-707 2208h225z" />
    <glyph glyph-name="bracketright" unicode="]" horiz-adv-x="1104" 
d="M858 -440h-702v178h451v2653h-457v175h708v-3006z" />
    <glyph glyph-name="asciicircum" unicode="^" horiz-adv-x="1749" 
d="M174 915l562 1181h277l561 -1181h-231l-469 1033l-471 -1033h-229z" />
    <glyph glyph-name="underscore" unicode="_" horiz-adv-x="1457" 
d="M1457 -220v-176h-1460v176h1460z" />
    <glyph glyph-name="grave" unicode="`" horiz-adv-x="810" 
d="M735 1681h-234l-430 458h375z" />
    <glyph glyph-name="a" unicode="a" horiz-adv-x="1516" 
d="M157 1525q45 32 102.5 62.5t126 54t148.5 38t172 14.5q43 0 105 -5t128 -19.5t127.5 -41t103.5 -70.5q33 -35 50.5 -73t25.5 -75t9 -71.5t1 -61.5v-973q0 -14 5.5 -37t18 -46t32.5 -41t49 -21v-177h-65q-53 0 -94.5 17t-73 47.5t-52.5 73t-32 94.5q-66 -89 -133.5 -140.5
t-134 -77t-130 -32t-120.5 -6.5q-34 0 -77.5 6.5t-88.5 24t-88 48.5t-76.5 80.5t-54 120t-20.5 166.5q0 22 3.5 55.5t13.5 74.5t30 87t53 93t81.5 93.5t115.5 87.5q66 39 133.5 67t140.5 47t152 30t168 16l-1 214q0 70 -25.5 118.5t-70 78.5t-105.5 42.5t-133 11.5
q-57 -1 -116 -13t-115 -33t-106.5 -49t-89.5 -62zM1011 898q-63 -7 -135.5 -21.5t-145.5 -40t-141 -63t-120 -88.5t-83.5 -117.5t-31.5 -151.5q0 -134 61.5 -205t181.5 -71q64 0 120 17.5t102 45.5t82 63t60 70.5t37 67t13 53.5v441z" />
    <glyph glyph-name="b" unicode="b" horiz-adv-x="1639" 
d="M254 2268h245v-807q64 67 123.5 110t111 69.5t95 38.5t75 15.5t50.5 2.5t23 -1q92 0 160.5 -23.5t118 -63.5t81 -92.5t50 -110.5t26 -117.5t7.5 -112.5v-666q0 -40 -5 -93t-17.5 -108.5t-34 -109.5t-55.5 -97q-21 -27 -48.5 -50.5t-66 -41.5t-89.5 -28t-119 -10
q-33 0 -85.5 8.5t-117.5 35t-137.5 76t-145.5 131.5v-223h-245v2268zM499 406q63 -73 123.5 -115.5t113.5 -65t96.5 -29t72.5 -6.5q75 0 126.5 19t83.5 64t46 120t14 188v484q0 136 -17 219t-51 128.5t-84.5 60.5t-117.5 15q-29 0 -64 -2t-83 -20.5t-111.5 -61.5
t-147.5 -124v-874z" />
    <glyph glyph-name="c" unicode="c" horiz-adv-x="1451" 
d="M1058 1264q-1 16 -3 36.5t-7 43.5q-9 37 -36 67.5t-66 53t-87 35t-100 12.5q-72 0 -123 -16t-86 -43t-56 -61.5t-32.5 -71t-15 -72.5t-3.5 -65v-706q0 -99 26.5 -164t71.5 -104t103.5 -55t122.5 -16q66 0 117.5 15t88.5 40.5t57.5 59t25.5 71.5q1 6 2.5 16.5t2.5 22.5
t1 24.5t-2 22.5h221q2 -18 0 -36t-7 -50q-6 -39 -19.5 -81t-38.5 -82.5t-63 -77.5t-92.5 -64.5t-127.5 -44t-167 -16.5q-28 0 -77.5 2t-108.5 14.5t-121.5 40t-117.5 78.5q-44 42 -72 89.5t-44 102.5t-21.5 116t-5.5 130v552q0 339 169 492q30 25 70.5 47t90 38t106 25
t118.5 9q15 0 43.5 -0.5t64.5 -4.5t77.5 -13t82.5 -25t79.5 -40.5t68.5 -60.5q45 -52 64.5 -104t27.5 -105q7 -42 9 -77h-211z" />
    <glyph glyph-name="d" unicode="d" horiz-adv-x="1639" 
d="M1386 0h-245v223q-73 -82 -146 -131.5t-137.5 -76t-117.5 -35t-86 -8.5q-68 0 -119 10t-89 28t-65.5 41.5t-48.5 50.5q-34 43 -56 97t-34.5 109.5t-17.5 108.5t-5 93v666q0 53 7.5 112.5t26 117.5t50 110.5t81 92.5t118 63.5t160.5 23.5q4 0 23 1t51 -2.5t75 -15.5
t95 -38.5t111.5 -69.5t123.5 -110v807h245v-2268zM1141 1280q-85 81 -148.5 124t-111.5 61.5t-83.5 20.5t-63.5 2q-67 0 -117.5 -15t-84.5 -60.5t-51 -128.5t-17 -219v-484q0 -113 14 -188t46 -120t83.5 -64t126.5 -19q28 0 72 6.5t97.5 29t114 65t123.5 115.5v874z" />
    <glyph glyph-name="e" unicode="e" horiz-adv-x="1462" 
d="M400 783l1 -107q2 -105 16.5 -202t54 -171t112 -118t190.5 -44q72 0 137.5 16.5t120 42t96.5 55.5t69 56l57 -172q-25 -22 -74.5 -51.5t-116.5 -56.5t-146 -45.5t-162 -18.5t-168 16.5t-160 55.5t-135 103t-93 159q-16 44 -24.5 93.5t-12.5 98.5t-5 95.5t-1 84.5v401
q0 182 59 307.5t156 199.5q80 61 176.5 86.5t199.5 25.5q76 0 142 -17.5t119.5 -46t94.5 -65.5t68 -75q35 -53 59 -111t38.5 -129.5t20.5 -162.5t5 -210q0 -44 -3 -93h-891zM1067 966q0 158 -22 275t-86 190q-39 43 -95 66t-135 23q-81 0 -140.5 -25.5t-98.5 -73.5
q-47 -56 -68 -131t-21 -173v-151h666z" />
    <glyph glyph-name="f" unicode="f" horiz-adv-x="1116" 
d="M114 1651h284v325q0 26 2 60t14.5 69t39.5 68.5t76 59.5q34 17 75.5 27.5t82 16.5t76.5 8.5t60 2.5q26 0 61 -1t73 -4v-161q-85 -1 -145 -9t-97.5 -32t-55 -69t-17.5 -121v-240h357v-188h-357v-1463h-245v1464h-284v187z" />
    <glyph glyph-name="g" unicode="g" horiz-adv-x="1625" 
d="M384 -190q67 -90 153.5 -136t186.5 -46q55 0 102.5 5t88.5 18.5t76.5 37t68.5 60.5q22 24 35.5 56.5t20.5 68.5t9 74.5t2 75.5v250q-62 -65 -121 -112.5t-119 -79t-122 -47t-128 -15.5q-90 0 -155 24t-111 59.5t-74.5 77t-45.5 76.5q-10 27 -18 60.5t-13.5 68t-8.5 67
t-3 58.5v659q0 33 4 85t18.5 110t41.5 117.5t74 106.5t116.5 77t167.5 30q68 0 128.5 -12t119.5 -39t120 -70.5t129 -106.5v183h245v-1499q0 -62 -3.5 -133t-18.5 -142.5t-45.5 -138.5t-84.5 -122q-70 -71 -188 -112.5t-286 -41.5q-91 0 -170 15.5t-143.5 41t-113.5 58
t-80 65.5zM1127 1282q-63 54 -111.5 93t-93 64t-89.5 37t-102 12q-95 0 -150 -27.5t-83 -75t-36 -112t-8 -138.5l-1 -499q0 -31 0.5 -72.5t5.5 -84.5t15.5 -83t30.5 -68q29 -41 79 -65t125 -24q113 0 214 52t204 164v827z" />
    <glyph glyph-name="h" unicode="h" horiz-adv-x="1641" 
d="M499 0h-245v2268h245v-829q105 90 192.5 141.5t159 77t126 32t92.5 6.5q93 0 161.5 -29t108.5 -80q31 -41 47.5 -91.5t24 -105t8.5 -110t1 -104.5v-1176l-245 2v1063q0 74 -2 130.5t-6.5 99t-13.5 72.5t-22 52q-23 37 -63 53t-91 16q-47 0 -96.5 -9.5t-106.5 -35
t-125 -70.5t-150 -115v-1258z" />
    <glyph glyph-name="i" unicode="i" horiz-adv-x="768" 
d="M261 1651h245v-1651h-245v1651zM230 2241h309v-271h-309v271z" />
    <glyph glyph-name="j" unicode="j" horiz-adv-x="869" 
d="M53 -364q75 3 132.5 9t97 29t59.5 70.5t20 131.5v1775h245v-1753q0 -54 -3.5 -103.5t-15 -93.5t-32.5 -81.5t-57 -66.5q-30 -25 -64.5 -43t-79.5 -29.5t-104.5 -17t-140.5 -5.5q-26 0 -57 3v175zM327 2241h310v-271h-310v271z" />
    <glyph glyph-name="k" unicode="k" horiz-adv-x="1603" 
d="M1132 1650h307l-631 -739l725 -911h-315l-693 903zM254 2269h245v-2269h-245v2269z" />
    <glyph glyph-name="l" unicode="l" horiz-adv-x="761" 
d="M258 2269h245v-2269h-245v2269z" />
    <glyph glyph-name="m" unicode="m" horiz-adv-x="2501" 
d="M254 1651h247l-2 -294q85 99 158.5 163.5t138.5 102t124 52.5t114 15q81 0 140 -32t99 -81t62.5 -107.5t30.5 -112.5q55 64 118.5 124.5t134 106.5t146.5 74t157 28q38 0 78.5 -8t78.5 -30t71 -59.5t57 -96.5q15 -37 23 -83t12 -94t4.5 -93.5t0.5 -82.5v-1143h-245v1174
q0 41 -3 92t-20 95.5t-53.5 75t-103.5 30.5q-58 0 -117 -23t-116 -61t-110 -88.5t-99 -104.5v-1190h-245v1171q0 23 -2 54t-7.5 64t-17 65t-30.5 57t-47 40.5t-67 15.5q-63 0 -125.5 -24.5t-121.5 -65t-114 -93.5t-104 -110v-1174h-245v1651z" />
    <glyph glyph-name="n" unicode="n" horiz-adv-x="1670" 
d="M499 0h-245v1652h245v-213q105 90 192.5 141.5t159 77t126 32t92.5 6.5q93 0 161.5 -29t108.5 -80q31 -41 47.5 -91.5t24 -105t8.5 -110t1 -104.5v-1176l-245 2v1063q0 74 -2 130.5t-6.5 99t-13.5 72.5t-22 52q-23 37 -63 53t-91 16q-47 0 -96.5 -9.5t-106.5 -35
t-125 -70.5t-150 -115v-1258z" />
    <glyph glyph-name="o" unicode="o" horiz-adv-x="1533" 
d="M766 1500q-78 0 -137.5 -16t-110.5 -61q-32 -28 -50 -62.5t-27 -77t-11 -94.5t-2 -115v-494q0 -63 2 -115t11 -94.5t27 -77t50 -62.5q51 -45 110.5 -61t137.5 -16q79 0 138.5 16t110.5 61q32 28 50 62.5t27 77t11 94.5t2 115v494q0 63 -2 115t-11 94.5t-27 77t-50 62.5
q-51 45 -110.5 61t-138.5 16zM766 -34q-127 0 -230 30t-167 80q-71 55 -108.5 118.5t-55 129t-20 131t-2.5 125.5v494q0 60 2.5 126t20 131.5t55 128.5t108.5 118q64 51 167 81.5t230 30.5q63 0 121.5 -8t109.5 -23t93 -35.5t74 -45.5q70 -55 108 -118t55.5 -128.5
t20 -131.5t2.5 -126v-494q0 -60 -2.5 -125.5t-20 -131t-55.5 -129t-108 -118.5q-63 -50 -167 -80t-231 -30z" />
    <glyph glyph-name="p" unicode="p" horiz-adv-x="1639" 
d="M254 1652h245v-222q73 82 145.5 131t137.5 75.5t117.5 35t85.5 8.5q68 0 119 -10t89.5 -28t66 -41.5t48.5 -50.5q34 -43 55.5 -97t34 -109.5t17.5 -108.5t5 -93v-666q3 -58 -5 -119t-29 -119t-56 -109t-86 -90t-119.5 -61.5t-157.5 -23.5q-71 0 -135.5 19.5t-123 52
t-111 75.5t-98.5 91v-717h-245v2177zM499 372q56 -52 104 -91t96.5 -65t102.5 -39t122 -13q62 1 109 18t78.5 63t47.5 128t16 214v484q0 112 -14 187.5t-46 120.5t-83.5 64t-126.5 19q-29 0 -72.5 -6.5t-96.5 -28.5t-113.5 -65t-123.5 -115v-875z" />
    <glyph glyph-name="q" unicode="q" horiz-adv-x="1639" 
d="M1386 -525h-245v717q-47 -48 -99.5 -91t-111 -75.5t-123.5 -52t-135 -19.5q-89 1 -157.5 23.5t-119.5 61.5t-86 90t-56 109t-29 119t-5 119v666q0 40 5 93t17.5 108.5t34.5 109.5t56 97q21 27 48.5 50.5t65.5 41.5t89 28t119 10q33 0 86 -8.5t117.5 -35t137.5 -75.5
t146 -131v222h245v-2177zM1141 1247q-63 72 -123.5 115t-114 65t-97.5 28.5t-72 6.5q-75 0 -126.5 -19t-83.5 -64t-46 -120.5t-14 -187.5v-484q0 -132 16 -214t47.5 -128t78.5 -63t109 -18q68 0 122 13t103 39t97 65t104 91v875z" />
    <glyph glyph-name="r" unicode="r" horiz-adv-x="1163" 
d="M254 1651h244v-300h6q42 74 91 126t101 88t105 57.5t104 33.5t97.5 17t85.5 8v-266q-32 8 -95 11q-50 3 -106 -8.5t-111 -35t-105 -59t-88.5 -81t-61 -100.5t-22.5 -118v-1024h-245v1651z" />
    <glyph glyph-name="s" unicode="s" horiz-adv-x="1265" 
d="M999 1393q-48 37 -96 59.5t-94.5 35t-89.5 16.5t-79 4q-133 0 -206.5 -53.5t-73.5 -159.5q0 -48 20 -89t54.5 -76.5t81 -67.5t100.5 -62l157 -85q81 -45 150 -92.5t119.5 -106t79 -133t28.5 -174.5q0 -90 -25 -158.5t-67.5 -118.5t-97.5 -83.5t-114 -53.5t-118.5 -28.5
t-111.5 -8.5q-68 0 -136 10.5t-132 32.5t-123 55.5t-108 79.5l115 169q49 -44 96 -73.5t95.5 -48t98.5 -26.5t105 -8q143 0 217 53t74 146q0 67 -36 123.5t-91.5 103.5t-123 86.5t-130.5 71.5q-111 57 -189 116t-126.5 124t-70.5 138.5t-22 160.5q0 39 7 81.5t24 84.5t45 82
t70 74q45 36 96 56.5t102.5 30t101.5 11.5t92 2q40 0 97.5 -9.5t118 -26t116.5 -38.5t92 -47z" />
    <glyph glyph-name="t" unicode="t" horiz-adv-x="1144" 
d="M384 1464h-293v187h293v525h245v-525h366v-187h-366v-1092q0 -74 11 -119.5t44 -68.5q35 -24 98.5 -22t154.5 21l23 -178q-54 -12 -122 -24.5t-131 -14.5q-60 -2 -116 8t-107 39q-36 20 -56 55.5t-29.5 75t-12 78.5t-2.5 65v1177z" />
    <glyph glyph-name="u" unicode="u" horiz-adv-x="1670" 
d="M1172 1653h245v-1652h-245v213q-105 -90 -193 -141.5t-159 -77t-125.5 -32t-92.5 -6.5q-93 0 -161.5 29t-107.5 80q-32 41 -48 92t-23.5 105.5t-8.5 109.5t-2 104v1176l245 -2v-1063q0 -74 2 -130t6.5 -98.5t13 -73t22.5 -52.5q23 -37 63 -53t91 -16q47 0 96.5 9.5
t106.5 35t124.5 70.5t150.5 115v1258z" />
    <glyph glyph-name="v" unicode="v" horiz-adv-x="1449" 
d="M863 0h-280l-482 1651h265l288 -1061q6 -23 12.5 -49.5t13 -54.5t12.5 -56.5t11 -54.5l24 -124q10 63 21 125q9 53 21 110t24 102l290 1063h266z" />
    <glyph glyph-name="w" unicode="w" horiz-adv-x="2181" 
d="M1190 1651l330 -1220l294 1220h263l-433 -1651h-207l-347 1290l-346 -1290h-207l-433 1651h263l293 -1220l331 1220h199z" />
    <glyph glyph-name="x" unicode="x" horiz-adv-x="1516" 
d="M1376 1654l-472 -837l497 -817h-306l-341 638l-333 -638h-305l485 817l-481 837h301l334 -652l319 652h302z" />
    <glyph glyph-name="y" unicode="y" horiz-adv-x="1477" 
d="M388 1652l238 -799q9 -31 19.5 -67t21 -73.5t21 -75.5t19.5 -72q22 -81 44 -163q20 82 40 163q9 34 18 72t19 76t19 74t18 68l212 797h279l-467 -1556v1q-50 -180 -105.5 -293.5t-123 -178.5t-151 -89t-188.5 -24q-43 0 -71.5 1.5t-51.5 4.5v212q8 -1 19 -1q9 0 21 -0.5
t26 -0.5q72 -2 118.5 9t76 28t45.5 38t27 38q24 38 42 79t30 79.5t18 71.5t6 56l-520 1525h281z" />
    <glyph glyph-name="z" unicode="z" horiz-adv-x="1303" 
d="M123 184l770 1283h-733v185h1008v-186l-757 -1276h759v-190h-1047v184z" />
    <glyph glyph-name="braceleft" unicode="{" horiz-adv-x="1184" 
d="M160 1165q38 4 87 16t92.5 39.5t73.5 73t30 116.5v797q0 63 18.5 114t49.5 91t72 69t86 48.5t90.5 28.5t86.5 9h191l-1 -187h-171q-56 0 -89 -13t-50 -35t-22 -51t-5 -60l2 -826q0 -60 -30.5 -118.5t-75 -104.5t-94 -75.5t-87.5 -32.5l-43 -5q25 -1 59 -12.5t71 -32.5
t72.5 -50t64 -66t46 -81t17.5 -94l-2 -820q0 -31 5 -60t22 -51t50 -35t89 -13h172v-187h-191q-41 0 -86.5 9t-90.5 28.5t-86 48.5t-72 69t-49.5 91t-18.5 114v823q0 63 -30 104t-73.5 65.5t-92.5 35.5t-87 14v206z" />
    <glyph glyph-name="bar" unicode="|" horiz-adv-x="734" 
d="M257 2318h220v-2828h-220v2828z" />
    <glyph glyph-name="braceright" unicode="}" horiz-adv-x="1184" 
d="M1037 959q-38 -3 -87 -14t-92.5 -35.5t-73.5 -65.5t-30 -104v-823q0 -63 -18.5 -114t-49.5 -91t-72 -69t-85.5 -48.5t-90.5 -28.5t-87 -9h-191v187h173q55 0 88 13t50.5 35t22.5 51t5 60l-3 820q0 50 17.5 94t46 81t64.5 66t72.5 50t70.5 32.5t59 12.5l-43 5
q-25 2 -56 16t-63 37.5t-62 54.5t-53.5 67.5t-38 76t-14.5 79.5l3 826q0 31 -5 60t-22.5 51t-50.5 35t-88 13h-171l-2 187h191q41 0 87 -9t90.5 -28.5t85.5 -48.5t72 -69t49.5 -91t18.5 -114v-797q0 -71 30 -116.5t73.5 -73t92.5 -39.5t87 -16v-206z" />
    <glyph glyph-name="asciitilde" unicode="~" horiz-adv-x="1749" 
d="M1569 804q-38 -51 -77 -92.5t-84 -71t-98.5 -45t-122.5 -15.5q-38 0 -74 8t-72 21.5t-71.5 30.5t-71.5 35q-39 20 -79 38.5t-81.5 33t-85.5 23t-92 8.5q-44 0 -79.5 -10t-66 -28t-56 -42t-47.5 -52l-131 140q38 49 76.5 90.5t83.5 72t98.5 47.5t121.5 17q48 0 93.5 -9.5
t88.5 -24.5t83.5 -34t78.5 -38q34 -17 69.5 -34t71.5 -30t71.5 -21t70.5 -8q44 0 80.5 10.5t67.5 28.5t56 42t46 51z" />
    <glyph glyph-name="saraileftthai" 
d="M-1839 2122v193h1131v-193h-1131z" />
    <glyph glyph-name="saraileftthai" unicode="&#xf701;" 
d="M-1839 2122v193h1131v-193h-1131z" />
    <glyph glyph-name="saraiileftthai" 
d="M-1839 2122v195h876v264h254v-459h-1130z" />
    <glyph glyph-name="saraiileftthai" unicode="&#xf702;" 
d="M-1839 2122v195h876v264h254v-459h-1130z" />
    <glyph glyph-name="saraueleftthai" 
d="M-1155 2379q0 53 20.5 99.5t55.5 81.5t81.5 55t99.5 20t100 -20t82 -55t55 -81.5t20 -99.5t-20 -100t-55 -82t-82 -55t-100 -20h-940v193h692q-4 16 -6.5 31.5t-2.5 32.5zM-995 2378q0 -20 7.5 -38t21 -31t31 -20.5t37.5 -7.5q41 0 69 28t28 69q0 20 -7.5 37.5t-20.5 31
t-31 21t-38 7.5t-37.5 -7.5t-31 -21t-21 -31t-7.5 -37.5z" />
    <glyph glyph-name="saraueleftthai" unicode="&#xf703;" 
d="M-1155 2379q0 53 20.5 99.5t55.5 81.5t81.5 55t99.5 20t100 -20t82 -55t55 -81.5t20 -99.5t-20 -100t-55 -82t-82 -55t-100 -20h-940v193h692q-4 16 -6.5 31.5t-2.5 32.5zM-995 2378q0 -20 7.5 -38t21 -31t31 -20.5t37.5 -7.5q41 0 69 28t28 69q0 20 -7.5 37.5t-20.5 31
t-31 21t-38 7.5t-37.5 -7.5t-31 -21t-21 -31t-7.5 -37.5z" />
    <glyph glyph-name="saraueeleftthai" 
d="M-1840 2122v195h550v264h210v-264h161v264h211v-459h-1132z" />
    <glyph glyph-name="saraueeleftthai" unicode="&#xf704;" 
d="M-1840 2122v195h550v264h210v-264h161v264h211v-459h-1132z" />
    <glyph glyph-name="maieklowleftthai" 
d="M-1003 2124v507h238v-507h-238z" />
    <glyph glyph-name="maieklowleftthai" unicode="&#xf705;" 
d="M-1003 2124v507h238v-507h-238z" />
    <glyph glyph-name="maitholowleftthai" 
d="M-1288 2427q-35 0 -69 -16t-62 -39l-65 122q13 12 41 34.5t67.5 45t89 39t104.5 16.5q34 0 64 -9.5t52.5 -30t35.5 -52t13 -74.5q0 -22 -4 -46.5t-9.5 -46t-12 -38t-10.5 -23.5h397v-187h-660q35 76 47 114.5t14 50.5q9 27 9.5 52.5t-4.5 45t-15 31t-23 11.5z" />
    <glyph glyph-name="maitholowleftthai" unicode="&#xf706;" 
d="M-1288 2427q-35 0 -69 -16t-62 -39l-65 122q13 12 41 34.5t67.5 45t89 39t104.5 16.5q34 0 64 -9.5t52.5 -30t35.5 -52t13 -74.5q0 -22 -4 -46.5t-9.5 -46t-12 -38t-10.5 -23.5h397v-187h-660q35 76 47 114.5t14 50.5q9 27 9.5 52.5t-4.5 45t-15 31t-23 11.5z" />
    <glyph glyph-name="maitrilowleftthai" 
d="M-1354 2367q-25 0 -37.5 -20t-9.5 -50q3 -20 10.5 -43t18 -46t23 -45.5t24.5 -41.5h-172q-52 79 -79.5 136.5t-31.5 110.5q-9 54 2 93t35 63.5t56.5 36t67.5 11.5q34 0 65 -12.5t59.5 -33.5t53.5 -47t46 -53q21 27 45 53t52 47t59.5 33.5t67.5 12.5q33 0 63.5 -12.5
t52.5 -37.5t32 -62.5t1 -87.5q-2 -10 -6.5 -23.5t-10 -27t-11.5 -24.5t-10 -16h232v-160h-470q17 23 32 48.5t26 51.5t17.5 50t5.5 44q-2 25 -16 38.5t-35 13.5q-17 0 -34.5 -16t-34.5 -39t-32 -47.5t-26 -41.5q-11 17 -26 41.5t-32 47.5t-36 39t-37 16z" />
    <glyph glyph-name="maitrilowleftthai" unicode="&#xf707;" 
d="M-1354 2367q-25 0 -37.5 -20t-9.5 -50q3 -20 10.5 -43t18 -46t23 -45.5t24.5 -41.5h-172q-52 79 -79.5 136.5t-31.5 110.5q-9 54 2 93t35 63.5t56.5 36t67.5 11.5q34 0 65 -12.5t59.5 -33.5t53.5 -47t46 -53q21 27 45 53t52 47t59.5 33.5t67.5 12.5q33 0 63.5 -12.5
t52.5 -37.5t32 -62.5t1 -87.5q-2 -10 -6.5 -23.5t-10 -27t-11.5 -24.5t-10 -16h232v-160h-470q17 23 32 48.5t26 51.5t17.5 50t5.5 44q-2 25 -16 38.5t-35 13.5q-17 0 -34.5 -16t-34.5 -39t-32 -47.5t-26 -41.5q-11 17 -26 41.5t-32 47.5t-36 39t-37 16z" />
    <glyph glyph-name="maichattawalowleftthai" 
d="M-1144 2122l13 170l-218 -12v194l218 -12l-13 170h237l-13 -170l218 12v-194l-218 12l13 -170h-237z" />
    <glyph glyph-name="maichattawalowleftthai" unicode="&#xf708;" 
d="M-1144 2122l13 170l-218 -12v194l218 -12l-13 170h237l-13 -170l218 12v-194l-218 12l13 -170h-237z" />
    <glyph glyph-name="thanthakhatlowleftthai" 
d="M-656 2435v-177h-362v-165h-252v342h614z" />
    <glyph glyph-name="thanthakhatlowleftthai" unicode="&#xf709;" 
d="M-656 2435v-177h-362v-165h-252v342h614z" />
    <glyph glyph-name="maieklowrightthai" 
d="M-506 2123v507h253v-507h-253z" />
    <glyph glyph-name="maieklowrightthai" unicode="&#xf70a;" 
d="M-506 2123v507h253v-507h-253z" />
    <glyph glyph-name="maitholowrightthai" 
d="M-809 2479q-19 0 -40.5 -4.5t-43 -13t-40.5 -19t-34 -22.5l-71 132q14 13 44.5 36t73.5 45t96 38t112 16q37 0 70 -9t58 -29t39.5 -52.5t14.5 -79.5q0 -24 -7 -54.5t-16.5 -59t-19 -50.5t-13.5 -29h429v-202h-713q18 28 34.5 65.5t29.5 77t21.5 78t9.5 69t-7 49t-27 18.5
z" />
    <glyph glyph-name="maitholowrightthai" unicode="&#xf70b;" 
d="M-809 2479q-19 0 -40.5 -4.5t-43 -13t-40.5 -19t-34 -22.5l-71 132q14 13 44.5 36t73.5 45t96 38t112 16q37 0 70 -9t58 -29t39.5 -52.5t14.5 -79.5q0 -24 -7 -54.5t-16.5 -59t-19 -50.5t-13.5 -29h429v-202h-713q18 28 34.5 65.5t29.5 77t21.5 78t9.5 69t-7 49t-27 18.5
z" />
    <glyph glyph-name="maitrilowrightthai" 
d="M-952 2420q-29 0 -43 -22.5t-10 -54.5q3 -24 15 -53t28 -58.5t33 -58t31 -50.5h-191q-29 44 -51 82t-37.5 71t-24.5 63.5t-12 59.5q-8 61 5 104.5t38.5 71t61.5 40t75 12.5q38 0 73 -12t66.5 -32t59.5 -47.5t52 -57.5q23 30 49.5 57.5t57.5 47.5t66 32t75 12
q37 0 72.5 -14t62 -41.5t39.5 -69.5t4 -98q-5 -35 -18 -62t-24 -40h248v-179h-485q15 24 31 54.5t29 63t21.5 64.5t8.5 58q0 31 -12 49.5t-45 18.5q-18 0 -44 -23t-52.5 -54.5t-49 -64.5t-34.5 -53q-12 20 -32.5 51t-44.5 60.5t-48.5 51t-43.5 21.5z" />
    <glyph glyph-name="maitrilowrightthai" unicode="&#xf70c;" 
d="M-952 2420q-29 0 -43 -22.5t-10 -54.5q3 -24 15 -53t28 -58.5t33 -58t31 -50.5h-191q-29 44 -51 82t-37.5 71t-24.5 63.5t-12 59.5q-8 61 5 104.5t38.5 71t61.5 40t75 12.5q38 0 73 -12t66.5 -32t59.5 -47.5t52 -57.5q23 30 49.5 57.5t57.5 47.5t66 32t75 12
q37 0 72.5 -14t62 -41.5t39.5 -69.5t4 -98q-5 -35 -18 -62t-24 -40h248v-179h-485q15 24 31 54.5t29 63t21.5 64.5t8.5 58q0 31 -12 49.5t-45 18.5q-18 0 -44 -23t-52.5 -54.5t-49 -64.5t-34.5 -53q-12 20 -32.5 51t-44.5 60.5t-48.5 51t-43.5 21.5z" />
    <glyph glyph-name="maichattawalowrightthai" 
d="M-537 2122l13 181l-229 -12v215l229 -12l-13 181h268l-12 -181l229 12v-215l-229 12l12 -181h-268z" />
    <glyph glyph-name="maichattawalowrightthai" unicode="&#xf70d;" 
d="M-537 2122l13 181l-229 -12v215l229 -12l-13 181h268l-12 -181l229 12v-215l-229 12l12 -181h-268z" />
    <glyph glyph-name="thanthakhatlowrightthai" 
d="M-89 2496v-208h-426v-195h-297v403h723z" />
    <glyph glyph-name="thanthakhatlowrightthai" unicode="&#xf70e;" 
d="M-89 2496v-208h-426v-195h-297v403h723z" />
    <glyph glyph-name="maihanakatleftthai" 
d="M-1366 2123v360h253v-168h1084v-192h-1337z" />
    <glyph glyph-name="maihanakatleftthai" unicode="&#xf710;" 
d="M-1366 2123v360h253v-168h1084v-192h-1337z" />
    <glyph glyph-name="nikhahitleftthai" 
d="M-1040 2327q0 -23 9 -43.5t24 -35.5t35.5 -24t43.5 -9t43.5 9t36 24t24.5 35.5t9 43.5t-9 43.5t-24.5 36t-36 24.5t-43.5 9t-43.5 -9t-35.5 -24.5t-24 -36t-9 -43.5zM-1190 2327q0 55 20.5 103t56.5 83.5t84 56t102 20.5q55 0 103 -20.5t84 -56t56.5 -83.5t20.5 -103
q0 -54 -20.5 -102t-56.5 -84t-84 -56.5t-103 -20.5q-54 0 -102 20.5t-84 56.5t-56.5 84t-20.5 102z" />
    <glyph glyph-name="nikhahitleftthai" unicode="&#xf711;" 
d="M-1040 2327q0 -23 9 -43.5t24 -35.5t35.5 -24t43.5 -9t43.5 9t36 24t24.5 35.5t9 43.5t-9 43.5t-24.5 36t-36 24.5t-43.5 9t-43.5 -9t-35.5 -24.5t-24 -36t-9 -43.5zM-1190 2327q0 55 20.5 103t56.5 83.5t84 56t102 20.5q55 0 103 -20.5t84 -56t56.5 -83.5t20.5 -103
q0 -54 -20.5 -102t-56.5 -84t-84 -56.5t-103 -20.5q-54 0 -102 20.5t-84 56.5t-56.5 84t-20.5 102z" />
    <glyph glyph-name="maitaikhuleftthai" 
d="M-1417 2335l70 82h152q57 -63 99 -95.5t72 -46t49.5 -14t31.5 -0.5q11 0 24.5 6t25 18.5t19.5 32t8 47.5v52h177v-66q0 -60 -17.5 -105.5t-49.5 -76t-77.5 -46t-100.5 -15.5q-48 0 -89.5 12t-81 35.5t-80 59t-86.5 82.5l-170 -175h-162v274q0 73 21.5 130.5t60.5 97.5
t94.5 61t124.5 21h657v-155h-643q-64 0 -96.5 -34t-32.5 -110v-72z" />
    <glyph glyph-name="maitaikhuleftthai" unicode="&#xf712;" 
d="M-1417 2335l70 82h152q57 -63 99 -95.5t72 -46t49.5 -14t31.5 -0.5q11 0 24.5 6t25 18.5t19.5 32t8 47.5v52h177v-66q0 -60 -17.5 -105.5t-49.5 -76t-77.5 -46t-100.5 -15.5q-48 0 -89.5 12t-81 35.5t-80 59t-86.5 82.5l-170 -175h-162v274q0 73 21.5 130.5t60.5 97.5
t94.5 61t124.5 21h657v-155h-643q-64 0 -96.5 -34t-32.5 -110v-72z" />
    <glyph glyph-name="maiekupperleftthai" 
d="M-949 2737v400h237v-400h-237z" />
    <glyph glyph-name="maiekupperleftthai" unicode="&#xf713;" 
d="M-949 2737v400h237v-400h-237z" />
    <glyph glyph-name="maithoupperleftthai" 
d="M-1191 3022q-33 0 -64 -15.5t-57 -36.5l-61 113q12 11 38.5 32.5t63.5 42.5t83 36.5t97 15.5q31 0 59 -9t49 -27.5t33.5 -48t12.5 -70.5q0 -21 -4 -43.5t-9.5 -43t-11.5 -36t-10 -22.5h370v-174h-615q33 71 44 106.5t13 46.5q9 26 9.5 50t-4 42.5t-14.5 29.5t-22 11z" />
    <glyph glyph-name="maithoupperleftthai" unicode="&#xf714;" 
d="M-1191 3022q-33 0 -64 -15.5t-57 -36.5l-61 113q12 11 38.5 32.5t63.5 42.5t83 36.5t97 15.5q31 0 59 -9t49 -27.5t33.5 -48t12.5 -70.5q0 -21 -4 -43.5t-9.5 -43t-11.5 -36t-10 -22.5h370v-174h-615q33 71 44 106.5t13 46.5q9 26 9.5 50t-4 42.5t-14.5 29.5t-22 11z" />
    <glyph glyph-name="maitriupperleftthai" 
d="M-1163 2969q-23 0 -35.5 -18.5t-9.5 -46.5q2 -19 9.5 -40.5t17.5 -43.5t21.5 -43.5t23.5 -39.5h-163q-50 76 -75.5 129.5t-30.5 103.5q-8 52 3 88.5t33.5 60t53 34.5t63.5 11q32 0 61.5 -12t56.5 -32t50.5 -45t43.5 -50q19 25 42 50t49 45t56 32t64 12q31 0 60 -12
t49.5 -35.5t30 -59t1.5 -82.5q-2 -10 -6 -22.5t-9.5 -25t-10.5 -23t-9 -15.5h188v-152h-413q16 21 30 45.5t24.5 48.5t16.5 47t5 42q-2 23 -14.5 36t-33.5 13q-16 0 -33 -15t-32.5 -36.5t-30 -44.5t-24.5 -39q-11 16 -25 39t-30.5 44.5t-34 36.5t-33.5 15z" />
    <glyph glyph-name="maitriupperleftthai" unicode="&#xf715;" 
d="M-1163 2969q-23 0 -35.5 -18.5t-9.5 -46.5q2 -19 9.5 -40.5t17.5 -43.5t21.5 -43.5t23.5 -39.5h-163q-50 76 -75.5 129.5t-30.5 103.5q-8 52 3 88.5t33.5 60t53 34.5t63.5 11q32 0 61.5 -12t56.5 -32t50.5 -45t43.5 -50q19 25 42 50t49 45t56 32t64 12q31 0 60 -12
t49.5 -35.5t30 -59t1.5 -82.5q-2 -10 -6 -22.5t-9.5 -25t-10.5 -23t-9 -15.5h188v-152h-413q16 21 30 45.5t24.5 48.5t16.5 47t5 42q-2 23 -14.5 36t-33.5 13q-16 0 -33 -15t-32.5 -36.5t-30 -44.5t-24.5 -39q-11 16 -25 39t-30.5 44.5t-34 36.5t-33.5 15z" />
    <glyph glyph-name="maichattawaupperleftthai" 
d="M-935 2736l11 157l-202 -10v178l202 -10l-11 157h217l-11 -157l201 10v-178l-201 10l11 -157h-217z" />
    <glyph glyph-name="maichattawaupperleftthai" unicode="&#xf716;" 
d="M-935 2736l11 157l-202 -10v178l202 -10l-11 157h217l-11 -157l201 10v-178l-201 10l11 -157h-217z" />
    <glyph glyph-name="thanthakhatupperleftthai" 
d="M-554 2848v-171h-313v-158h-243v329h556z" />
    <glyph glyph-name="thanthakhatupperleftthai" unicode="&#xf717;" 
d="M-554 2848v-171h-313v-158h-243v329h556z" />
    <glyph glyph-name="uni00A0" unicode="&#xa0;" horiz-adv-x="801" 
 />
    <glyph glyph-name="cent" unicode="&#xa2;" horiz-adv-x="1639" 
d="M946 2097q103 -8 195.5 -41t165 -91.5t121.5 -141.5t65 -192q2 -14 3.5 -31t3 -35t2.5 -35t2 -30h-282v2q-1 10 -2 23.5t-2 28t-2.5 27.5t-3.5 22q-9 51 -34 102.5t-69 92.5t-107.5 67t-149.5 26t-161.5 -28t-131.5 -80t-88.5 -126.5t-32.5 -167.5v-804q0 -49 9 -102.5
t29.5 -105.5t52.5 -99.5t78.5 -83.5t108 -57t140.5 -21q69 0 129.5 17t108.5 51.5t81.5 86t49.5 119.5q4 16 6 36t3.5 42t2 44t0.5 42h279q2 -50 0.5 -100.5t-9.5 -92.5q-17 -92 -67.5 -170.5t-125 -137.5t-169 -96t-199.5 -47v-297h-184v298q-182 16 -311.5 87t-197.5 196
q-48 85 -67 193.5t-19 242.5v690q0 148 40 266.5t116.5 204t187 137t251.5 66.5v292h184v-289z" />
    <glyph glyph-name="sterling" unicode="&#xa3;" horiz-adv-x="1620" 
d="M85 234q91 17 154 59.5t102.5 104t57.5 140t18 167.5v49.5t-1.5 49.5t-4.5 63t-9 90h-319v187h293q-17 93 -29.5 165.5t-20.5 126.5t-12 91t-4 60q0 120 34.5 222t104.5 175.5t175.5 115t247.5 41.5q69 0 135.5 -13.5t127.5 -38t115.5 -58t99.5 -73.5l-112 -158
q-83 72 -180.5 112t-206.5 40q-74 0 -125 -21.5t-84.5 -56t-52 -77t-28 -84.5t-11.5 -79.5t-2 -61.5q0 -34 6.5 -86.5t16.5 -112t22 -119.5t23 -110h424v-187h-403q11 -80 14 -129t3 -79q0 -82 -9 -147.5t-22.5 -115.5t-29.5 -86t-29 -59q36 -29 86.5 -62t108 -61t118 -47
t114.5 -19q72 0 121 22.5t79.5 59.5t44.5 85t15 100h228q-6 -95 -32 -176.5t-77 -141t-128.5 -93.5t-186.5 -34q-58 0 -123.5 8.5t-139.5 33.5t-156.5 70t-173.5 117q-25 -34 -64.5 -70.5t-89 -68t-106.5 -55t-117 -30.5v255z" />
    <glyph glyph-name="yen" unicode="&#xa5;" horiz-adv-x="1923" 
d="M305 1129v189h412l-450 778h300l407 -811l384 811h298l-434 -778h396v-189h-501l-15 -27v-212h516v-189h-516v-701h-259v701h-538v189h538v209l-17 30h-521z" />
    <glyph glyph-name="copyright" unicode="&#xa9;" horiz-adv-x="2404" 
d="M1685 872q-13 -106 -56 -189t-106.5 -140.5t-142 -88t-163.5 -30.5q-87 0 -160.5 24.5t-133.5 68t-105.5 103.5t-76.5 132t-46.5 152.5t-15.5 165.5q0 130 33.5 247t100 206t166.5 141.5t232 52.5q88 0 165.5 -30.5t138 -87.5t101 -138t55.5 -183h-208q-12 53 -35.5 96
t-55.5 73.5t-73 47t-88 16.5q-74 0 -128 -35t-90 -95t-53.5 -139t-17.5 -167q0 -90 20 -171t58.5 -142t93 -97t123.5 -36q51 0 93 20t73.5 53.5t52.5 77.5t29 92h220zM91 1060q0 154 39.5 296.5t112 266t173.5 224.5t224.5 173.5t266 112t296.5 39.5q153 0 295 -39.5
t265.5 -112t225 -173.5t173.5 -224.5t111.5 -266t39.5 -296.5q0 -153 -39.5 -295t-112 -265.5t-173.5 -225t-224.5 -173.5t-265.5 -111.5t-295 -39.5q-154 0 -296.5 39.5t-266 111.5t-224.5 173.5t-173.5 225t-112 265t-39.5 295.5zM306 1060q0 -123 32 -237.5t90.5 -214
t140 -181t181 -140t214 -90.5t238.5 -32q123 0 237.5 32t214 90.5t181 140t140 181t90.5 213.5t32 238t-32 238.5t-90.5 214t-140 181t-181 140t-214 90.5t-237.5 32q-124 0 -238.5 -32t-214 -90.5t-181 -140t-140 -181t-90.5 -214t-32 -238.5z" />
    <glyph glyph-name="guillemotleft" unicode="&#xab;" horiz-adv-x="1590" 
d="M820 1263l-366 -477l373 -469h-247l-373 471l365 475h248zM1376 1263l-366 -477l374 -469h-248l-373 471l366 475h247z" />
    <glyph glyph-name="registered" unicode="&#xae;" horiz-adv-x="2404" 
d="M1046 1143h150q105 -2 153.5 48t48.5 145q0 50 -12 83t-36.5 53t-63 28.5t-90.5 9.5h-150v-367zM1052 507h-207v1161h385q82 0 150.5 -17.5t118 -57t76.5 -102.5t27 -154q0 -32 -10 -70t-32 -74.5t-57.5 -68.5t-86.5 -51q42 -16 69.5 -47t44 -70t25 -82.5t13.5 -84.5
q10 -97 19.5 -168.5t23.5 -113.5h-210q-6 27 -12 60t-10.5 66t-8 64.5t-5.5 55.5q-4 41 -13.5 82.5t-26.5 75.5t-42.5 56t-59.5 23h-171v-483zM91 1060q0 154 39.5 296.5t112 266t173.5 224.5t224.5 173.5t266 112t296.5 39.5q153 0 295 -39.5t265.5 -112t225 -173.5
t173.5 -224.5t111.5 -266t39.5 -296.5q0 -153 -39.5 -295t-112 -265.5t-173.5 -225t-224.5 -173.5t-265.5 -111.5t-295 -39.5q-154 0 -296.5 39.5t-266 111.5t-224.5 173.5t-173.5 225t-112 265t-39.5 295.5zM306 1060q0 -123 32 -237.5t90.5 -214t140 -181t181 -140
t214 -90.5t238.5 -32q123 0 237.5 32t214 90.5t181 140t140 181t90.5 213.5t32 238t-32 238.5t-90.5 214t-140 181t-181 140t-214 90.5t-237.5 32q-124 0 -238.5 -32t-214 -90.5t-181 -140t-140 -181t-90.5 -214t-32 -238.5z" />
    <glyph glyph-name="guillemotright" unicode="&#xbb;" horiz-adv-x="1591" 
d="M1018 1263l366 -475l-374 -471h-247l373 469l-366 477h248zM461 1263l366 -475l-373 -471h-247l373 469l-366 477h247z" />
    <glyph glyph-name="onequarter" unicode="&#xbc;" horiz-adv-x="2915" 
d="M2248 2181l-1243 -2251h-198l1246 2251h195zM309 1039h233v898h-212v159h418v-1057h221v-156h-660v156zM1915 388h390v642zM1739 402l497 812h274v-826h168v-139h-168v-249h-203v249h-569z" />
    <glyph glyph-name="onehalf" unicode="&#xbd;" horiz-adv-x="2915" 
d="M1821 933q21 58 57 113t91.5 97.5t132 68t178.5 25.5q96 0 167.5 -23.5t118.5 -68t70 -108t22 -142.5q-1 -54 -25.5 -106t-62 -99t-82 -88.5t-85.5 -73.5t-72.5 -54.5t-43.5 -32.5q-36 -30 -77.5 -63.5t-78 -69t-63 -70.5t-32.5 -66h618v-172h-882q1 71 17.5 124.5
t53.5 105.5t97 109t148 135q75 67 141.5 123t116 107t78 99.5t28.5 101.5q0 52 -17.5 86t-43 54.5t-55 29t-53.5 8.5q-65 0 -113.5 -22.5t-83.5 -56.5t-56.5 -74t-30.5 -75zM309 1039h233v898h-212v159h418v-1057h221v-156h-660v156zM2185 2181l-1243 -2251h-198l1246 2251
h195z" />
    <glyph glyph-name="threequarters" unicode="&#xbe;" horiz-adv-x="2915" 
d="M286 1028q9 -1 24.5 -3.5t36 -4.5t44.5 -4t50 -2q80 0 157.5 16.5t138 49.5t98 83.5t37.5 119.5q0 44 -15 73t-39.5 46.5t-55.5 25t-62 7.5q-35 0 -65.5 -5t-56.5 -12.5t-47 -15t-37 -13.5l-40 127q47 13 106.5 39.5t113 64.5t92 87.5t43.5 108.5q0 34 -7.5 62t-26.5 48
t-51 30t-81 7q-47 -2 -88 -17.5t-74 -36t-58.5 -43t-41.5 -38.5l-100 117q30 30 73 61t94.5 57t110 42.5t120.5 16.5q20 0 49.5 -2t62 -8.5t64.5 -18.5t57 -31q31 -24 50.5 -51.5t30.5 -55.5t15.5 -55t5.5 -48q3 -51 -15.5 -96.5t-47.5 -83t-63.5 -64.5t-65.5 -40
q114 -11 184.5 -75.5t80.5 -176.5q5 -56 -8.5 -107.5t-40 -96.5t-62 -82t-75.5 -64q-53 -33 -114 -55t-126 -35t-131 -16.5t-129 -0.5q-44 2 -71 6.5t-44 6.5v156zM2248 2181l-1243 -2251h-198l1246 2251h195zM1915 388h390v642zM1739 402l497 812h274v-826h168v-139h-168
v-249h-203v249h-569z" />
    <glyph glyph-name="multiply" unicode="&#xd7;" horiz-adv-x="1703" 
d="M259 1226l157 156l436 -434l434 434l157 -156l-436 -435l436 -436l-156 -157l-435 438l-437 -438l-156 157l434 436z" />
    <glyph glyph-name="divide" unicode="&#xf7;" horiz-adv-x="1749" 
d="M1566 913v-237h-1373v237h1373zM706 1244q0 36 13.5 67.5t37 55t54.5 37t67 13.5t67.5 -13.5t55 -37t37 -55t13.5 -67.5t-13.5 -67t-37 -54.5t-55 -37t-67.5 -13.5t-67 13.5t-54.5 37t-37 54.5t-13.5 67zM706 336q0 36 13.5 67t37 54.5t54.5 37t67 13.5t67.5 -13.5
t55 -37t37 -54.5t13.5 -67t-13.5 -67t-37 -54.5t-55 -37t-67.5 -13.5t-67 13.5t-54.5 37t-37 54.5t-13.5 67z" />
    <glyph glyph-name="kokaithai" unicode="&#xe01;" horiz-adv-x="1874" 
d="M348 0v1010q0 49 -11.5 95t-36.5 84t-64 66.5t-94 42.5v203q76 57 172 118t205 111t228.5 82.5t242.5 32.5q50 0 115.5 -4t135 -19t137 -45.5t121.5 -83.5q39 -38 62.5 -83t37 -94.5t18 -103.5t4.5 -110v-1302h-254v1228q0 113 -22.5 197.5t-76.5 137.5q-22 22 -55.5 38
t-74 27t-86.5 17t-92 6q-60 1 -123.5 -12.5t-124.5 -35t-118.5 -49t-106.5 -55t-86.5 -52t-59.5 -40.5q55 -18 102.5 -51t82.5 -81t55 -110t20 -137v-1028h-253z" />
    <glyph glyph-name="khokhaithai" unicode="&#xe02;" horiz-adv-x="1563" 
d="M778 146q52 0 102 13.5t89.5 49t63.5 96.5t24 156v1336h254v-1391q0 -110 -42.5 -194t-115.5 -141t-170 -86t-205 -29t-203.5 29t-167 85.5t-113 140.5t-41.5 195v581q76 43 139.5 94.5t109.5 110.5t72 126.5t26 143.5q0 100 -46.5 148.5t-128.5 43.5q-50 -2 -91.5 -11.5
t-76.5 -23t-65 -30t-56 -33.5l-74 144q84 66 187 102.5t208 36.5q75 0 142.5 -18.5t118 -59.5t80 -107.5t29.5 -162.5q0 -49 -13.5 -111.5t-49.5 -132.5t-98.5 -145t-159.5 -149v-496q0 -93 25.5 -153t65 -95t88 -49t93.5 -14z" />
    <glyph glyph-name="khokhuatthai" unicode="&#xe03;" horiz-adv-x="1658" 
d="M580 458q0 -93 26 -153t66.5 -95t91 -49t98.5 -14q45 0 95.5 13.5t94 49t72 96.5t28.5 156v1335h254v-1391q0 -110 -44 -194t-119 -141t-173.5 -86t-207.5 -29q-108 0 -205 29t-170.5 85.5t-117 140.5t-43.5 195l-1 581q81 60 152 117t122.5 115.5t81 119.5t28.5 129
q0 30 -6 63t-20 60t-38 44.5t-61 17.5q-54 -2 -105 -32t-94 -75.5t-76 -100.5t-51 -106h-152v458h179l4 -162q46 60 94 99t96 62t95.5 32t94.5 9q60 0 108.5 -22.5t83 -64.5t53 -102.5t18.5 -136.5q0 -78 -25 -151.5t-70.5 -143.5t-111 -135.5t-146.5 -127.5z" />
    <glyph glyph-name="khokhwaithai" unicode="&#xe04;" horiz-adv-x="1863" 
d="M506 0h-253v1590q21 15 63 39.5t98.5 52.5t125 57t143 52t152.5 37.5t153 14.5q38 0 100 -3t132 -16.5t140 -42.5t124 -81q44 -42 69 -91.5t38 -98t16 -92.5t3 -74v-1344h-253v1170q0 84 -4.5 143.5t-13.5 101.5t-23 71.5t-33 54.5q-30 39 -72 60.5t-86 32t-84 12.5
t-66 2q-81 0 -156 -17t-137 -39.5t-107.5 -45.5t-68.5 -35v-610q43 74 93.5 121.5t98.5 75.5t89 39t65 13h98v-292q-9 1 -24 2t-31.5 2t-32.5 1h-25q-49 0 -98.5 -21.5t-94 -58.5t-80.5 -87.5t-58 -108.5v-587z" />
    <glyph glyph-name="khokhonthai" unicode="&#xe05;" horiz-adv-x="1876" 
d="M506 0h-253v1289q0 40 1 81t3.5 79.5t7.5 74t13 64.5q16 56 43.5 102t66 79t87.5 51.5t108 18.5q103 0 197.5 -43t171.5 -113l153 -138l315 252h203v-1797h-253v1509l-217 -163h-119l-38 38t-61 57.5t-76 64.5t-83 59.5t-82 42t-72 12.5q-29 -3 -51 -19.5t-36.5 -52.5
t-21.5 -94t-7 -144v-409q43 74 93.5 121.5t98.5 75.5t89 39t65 13h98v-292q-9 1 -24 2t-31.5 2t-32.5 1h-25q-49 0 -98.5 -21.5t-94 -58.5t-80.5 -87.5t-58 -108.5v-587z" />
    <glyph glyph-name="khorakhangthai" unicode="&#xe06;" horiz-adv-x="1882" 
d="M556 555q54 -72 129 -137t157.5 -114t165.5 -78t151 -29q63 0 105 21.5t66.5 58.5t35 85t10.5 102v1333h254v-1399q0 -28 -4 -70t-17.5 -89.5t-39 -95t-68.5 -85.5t-106.5 -62t-153.5 -24q-153 0 -329.5 86.5t-359.5 256.5v-315h-249v973q39 25 84.5 57t91 70t87.5 81
t74 89.5t51 96.5t18 101q0 30 -6 63t-20 60t-38 44.5t-61 17.5q-54 -2 -105 -32t-94 -75.5t-76 -100.5t-51 -106h-152v458h179l4 -162q46 60 94 99t96 62t95.5 32t94.5 9q60 0 108.5 -22.5t83 -64.5t53 -102.5t18.5 -136.5q0 -81 -25.5 -158t-73.5 -150t-118 -140t-159 -127
v-381z" />
    <glyph glyph-name="ngonguthai" unicode="&#xe07;" horiz-adv-x="1277" 
d="M770 1354q0 56 -0.5 105.5t-12 85t-39.5 55t-82 15.5q-38 -3 -88 -18t-96 -40l-57 166q56 33 110.5 56.5t103.5 38.5t90.5 22t71.5 7q67 0 114.5 -15t78.5 -53.5t45.5 -104t14.5 -166.5v-1508h-289q-24 48 -61 107t-84.5 119t-101.5 117.5t-111.5 104t-115.5 78
t-112 39.5q-17 2 -37 1t-31 -5v261q17 1 38 0t44 -6q55 -10 131 -50.5t158.5 -108.5t165.5 -163.5t152 -215.5v1076z" />
    <glyph glyph-name="chochanthai" unicode="&#xe08;" horiz-adv-x="1442" 
d="M631 1845q38 -1 94 -6.5t117 -22t121.5 -47.5t107.5 -82q42 -45 65.5 -92.5t35.5 -97t15 -100t3 -99.5v-1298h-254v597q-22 51 -62.5 102t-95 92.5t-121 67t-141.5 25.5q-23 0 -54 -4.5t-56 -10.5v279q14 4 42 8.5t56 2.5q36 0 92.5 -13t118 -42.5t121 -77.5t100.5 -119
v301q0 101 -15 185.5t-61 147.5q-23 31 -55 51.5t-69.5 33t-78.5 17.5t-82 5q-46 0 -100.5 -6.5t-114.5 -24t-124.5 -47.5t-128.5 -77l-89 163q20 15 50.5 32.5t64 34.5t65 31.5t53.5 22.5q106 41 204.5 54.5t175.5 13.5z" />
    <glyph glyph-name="chochingthai" unicode="&#xe09;" horiz-adv-x="1801" 
d="M1548 1h-247v334q-105 -96 -200 -164.5t-184.5 -112.5t-176 -64.5t-173.5 -20.5q-83 0 -138.5 27t-90.5 68.5t-52.5 92t-25 97.5t-7.5 85.5v55.5v662h253v-580q0 -69 2.5 -124t18 -93t49 -58t94.5 -20q52 0 114 20t125.5 52t125.5 72t114 81t90.5 77.5t55.5 62.5v611
q0 39 -0.5 83.5t-5.5 91t-18 91t-38 83.5q-23 34 -64.5 60t-94 43.5t-113.5 26t-123 7.5q-76 -1 -159.5 -18.5t-165.5 -46.5t-158 -69t-136 -86l-93 182q96 64 198.5 109t201.5 73t190.5 40.5t165.5 12.5q87 0 174.5 -9t166.5 -34t145 -69.5t109 -116.5q24 -39 38 -87.5
t21.5 -105.5t9.5 -121.5t2 -136.5v-1164z" />
    <glyph glyph-name="chochangthai" unicode="&#xe0a;" horiz-adv-x="1629" 
d="M253 987q76 43 139.5 94.5t109.5 110.5t72 126.5t26 143.5q0 100 -46.5 148.5t-128.5 43.5q-50 -2 -91.5 -11.5t-76.5 -23t-65 -30t-56 -33.5l-74 144q84 66 187 102.5t208 36.5q75 0 142.5 -18.5t118 -59.5t80 -107.5t29.5 -162.5q0 -49 -13.5 -111.5t-49.5 -132.5
t-98.5 -145t-159.5 -149v-496q0 -93 31 -153t76.5 -95t98.5 -49t98 -14q51 0 106 13.5t100.5 49t75 96.5t29.5 156v844q-37 40 -64 75t-45 71.5t-26.5 76.5t-8.5 90q0 70 29.5 129.5t81.5 102.5t124 67t157 24h61v-171q-45 2 -84.5 -8t-69 -31t-46 -53t-16.5 -74
q0 -49 13.5 -86.5t35.5 -66t51 -50.5t61 -39v-956q0 -110 -47.5 -194t-126.5 -141t-180.5 -86t-210.5 -29q-108 0 -209 29t-178 85.5t-123.5 140.5t-46.5 195v581z" />
    <glyph glyph-name="sosothai" unicode="&#xe0b;" horiz-adv-x="1710" 
d="M336 987q81 60 149.5 114.5t119 111t80.5 118.5t35 137q2 34 -3.5 67.5t-20.5 59.5t-40 42t-61 16q-54 -2 -105 -32t-94 -75.5t-76 -100.5t-51 -106h-152v458h178l5 -162q46 60 93.5 99t95.5 62t95.5 32t94.5 9q60 0 108.5 -22.5t83 -64.5t53.5 -102.5t19 -136.5
q0 -78 -25 -151.5t-70.5 -143.5t-111 -135.5t-146.5 -127.5l1 -496q0 -62 14.5 -109t38.5 -81.5t55 -57.5t64.5 -37t67.5 -20t64 -6q51 0 105.5 13.5t100.5 49t75.5 96.5t29.5 156v844q-37 40 -64.5 75t-45.5 71.5t-26.5 76.5t-8.5 90q0 70 29.5 129.5t81.5 103t124 67.5
t157 24h61v-171q-45 2 -84.5 -8t-68.5 -31t-45.5 -53.5t-16.5 -74.5q0 -49 13.5 -86.5t35.5 -66t51 -50.5t60 -39v-956q0 -110 -47.5 -194t-126 -141t-180.5 -86t-210 -29t-209 29t-178 85.5t-124 140.5t-47 195z" />
    <glyph glyph-name="chochoethai" unicode="&#xe0c;" horiz-adv-x="2786" 
d="M347 1010q0 49 -11.5 95t-36.5 84t-63.5 66.5t-93.5 42.5v203q76 57 172 118t205 111t228.5 82.5t242.5 32.5q50 0 115.5 -4t135 -19t137 -45.5t121.5 -83.5q39 -38 64.5 -83t40.5 -94.5t21.5 -103.5t6.5 -110v-761q49 -67 109.5 -125t125.5 -101t130.5 -67.5
t124.5 -24.5q49 0 80 23.5t48 60.5t23.5 81.5t6.5 86.5v1323h254v-1399q0 -28 -2.5 -70t-12.5 -89.5t-31 -95t-58 -85.5t-93.5 -62t-137.5 -24q-77 0 -153 27.5t-148.5 75t-142 112t-133.5 139.5v-327h-244v1228q0 113 -26.5 197.5t-80.5 137.5q-44 44 -117 64.5t-173 21.5
q-66 0 -132.5 -13t-130.5 -34.5t-122.5 -48.5t-107.5 -54t-87 -51.5t-60 -40.5q55 -18 102.5 -51t82.5 -81t55 -110t20 -137v-706q0 -71 23 -107t82 -36h106v-189h-164q-91 0 -149.5 21.5t-92 63.5t-46.5 103.5t-13 142.5v689z" />
    <glyph glyph-name="yoyingthai" unicode="&#xe0d;" horiz-adv-x="2671" 
d="M348 1010q0 49 -11.5 95t-36.5 84t-64 66.5t-94 42.5v203q76 57 166.5 118t193.5 111t217.5 82.5t237.5 32.5q50 0 109 -4t120.5 -19t122 -45.5t114.5 -83.5q39 -38 62.5 -83t37 -94.5t18 -103.5t4.5 -110v-621q0 -62 8.5 -113.5t25.5 -88.5t43.5 -58t62.5 -21
q73 0 142 32t131 84t114.5 117.5t92.5 131.5v1032h253v-1555q0 -63 -7 -123t-24 -114.5t-44.5 -103t-69.5 -90.5q-56 -56 -127.5 -89t-142 -50t-132.5 -22t-99 -5q-90 0 -163 15.5t-131 40t-102 55t-76 59.5l102 169q46 -46 97 -77.5t100.5 -50.5t95 -27t81.5 -8q40 0 86 5
t90.5 19t83.5 38.5t65 62.5q34 51 52.5 120t18.5 166v294q-69 -81 -137 -144.5t-135.5 -107.5t-135 -67.5t-135.5 -23.5q-73 0 -126 20t-90 52t-60.5 72.5t-37 81.5t-18 79t-4.5 65l-2 675q0 113 -22.5 197.5t-76.5 137.5q-44 44 -108 65.5t-157 22.5q-60 1 -121 -12.5
t-118.5 -35t-110.5 -49t-98.5 -55t-80.5 -52t-57 -40.5q55 -18 102.5 -51t82.5 -81t55 -110t20 -137v-706q0 -71 23.5 -107t82.5 -36h106v-189h-164q-91 0 -149.5 21.5t-92 63.5t-46.5 103.5t-13 142.5v689z" />
    <glyph glyph-name="dochadathai" unicode="&#xe0e;" horiz-adv-x="1884" 
d="M349 1010q0 49 -12 95t-37 84t-64 66.5t-94 42.5v203q76 57 172 118t205 111t228.5 82.5t242.5 32.5q50 0 117 -4t138.5 -19t141 -45.5t123.5 -83.5q38 -38 62 -83t37.5 -94.5t18 -103.5t4.5 -110v-1898h-282q-113 67 -222.5 110.5t-204.5 69t-169 35.5t-117 10
q-35 0 -63 -9.5t-48 -31t-31 -57t-11 -87.5v-15h-252q0 8 0.5 21t0.5 29q0 36 6 77t19.5 81t37 77.5t59 65.5t84 45t113.5 17q73 0 158 -16.5t171.5 -43t171 -60t158.5 -67.5l167 -76v1649q0 113 -23 197.5t-76 137.5q-22 22 -57 38t-78 27t-90.5 17t-93.5 6
q-60 1 -123.5 -12.5t-124.5 -35t-118.5 -49t-106.5 -55t-86.5 -52t-59.5 -40.5q55 -18 102.5 -51t82.5 -81t55 -110t20 -137v-707q0 -81 -13 -142.5t-46.5 -103.5t-92 -63.5t-149.5 -21.5h-140v189h82q59 0 83 36t24 107v688z" />
    <glyph glyph-name="topatakthai" unicode="&#xe0f;" horiz-adv-x="1884" 
d="M601 321q0 -81 -13 -142.5t-46.5 -103.5t-92 -63.5t-149.5 -21.5h-140v189h82q59 0 83 36t24 107v688q0 49 -12 95t-37 84t-64 66.5t-94 42.5v203q76 57 172 118t205 111t228.5 82.5t242.5 32.5q50 0 117 -4t138.5 -19t141 -45.5t123.5 -83.5q38 -38 62 -83t37.5 -94.5
t18 -103.5t4.5 -110v-1898h-306q-43 45 -86.5 79.5t-85 58t-78 35.5t-65.5 12q-20 0 -44 -7.5t-47 -28t-41.5 -56t-27.5 -91.5l-122 1q-30 32 -63.5 64t-67.5 57.5t-68 40.5t-66 14q-32 -2 -54.5 -45.5t-22.5 -133.5h-218q0 88 17.5 162.5t51 129t81.5 85.5t110 31
q24 0 58 -10.5t75.5 -35.5t90 -66t101.5 -101q19 67 49.5 108.5t64.5 64.5t67.5 31.5t59.5 8.5q31 0 69 -12.5t85 -41t103.5 -75.5t124.5 -117l1 1662q0 113 -23 197.5t-76 137.5q-22 22 -57 38t-78 27t-90.5 17t-93.5 6q-60 1 -123.5 -12.5t-124.5 -35t-118.5 -49
t-106.5 -55t-86.5 -52t-59.5 -40.5q55 -18 102.5 -51t82.5 -81t55 -110t20 -137v-707z" />
    <glyph glyph-name="thothanthai" unicode="&#xe10;" horiz-adv-x="1440" 
d="M532 -594q-17 32 -40.5 66t-50 61.5t-54 45t-51.5 17.5q-48 0 -67.5 -46t-19.5 -147h-209v46q0 33 3.5 73t13 80t25.5 78t40.5 67t59 46.5t80.5 17.5q40 0 77 -14t72 -39t67.5 -60t62.5 -76q8 51 24 87t37.5 58.5t47.5 33t53 10.5q42 0 86 -22t83.5 -53t71 -63t47.5 -53
v225h250v-442h-253q-35 43 -70 79.5t-68 63.5t-62.5 42t-52.5 15q-38 0 -61.5 -53t-28.5 -144h-113zM631 1845q27 -1 62.5 -3.5t76.5 -9.5t85 -19.5t86 -32.5q13 42 33 70t44.5 46t51 27.5t52.5 13.5t49 4.5t41 0.5h166v-195q-8 0 -17 0.5t-31 0.5q-25 0 -55.5 -1t-58.5 -15
t-48.5 -48.5t-25.5 -100.5q33 -69 40.5 -141.5t7.5 -143.5v-1298h-254v597q-22 51 -62.5 102t-95 92.5t-121 67t-141.5 25.5q-23 0 -54 -4.5t-56 -10.5v279q14 4 42 8.5t56 2.5q36 0 92.5 -13t118 -42.5t121 -77.5t100.5 -119v301q0 101 -15 185.5t-61 147.5
q-23 31 -55 51.5t-69.5 33t-78.5 17.5t-82 5q-46 0 -100.5 -6.5t-114.5 -24t-124.5 -47.5t-128.5 -77l-89 163q20 15 50.5 32.5t64 34.5t65 31.5t53.5 22.5q106 41 204.5 54.5t175.5 13.5z" />
    <glyph glyph-name="thonangmonthothai" unicode="&#xe11;" horiz-adv-x="1886" 
d="M736 1471q0 31 -6.5 63t-21.5 58.5t-39.5 43.5t-60.5 17q-54 -2 -105 -32t-94.5 -75.5t-76.5 -100.5t-51 -106h-152v458h179l4 -162q46 60 94 99t96 62t95.5 32t94.5 9q105 0 169 -68.5t78 -204.5q77 91 139.5 146.5t115.5 85.5t99.5 40t91.5 10q58 0 99 -17.5t69 -47
t44 -67.5t24 -79t10.5 -81t2.5 -74v-1480h-255v1458q0 54 -6 83.5t-15.5 43t-22.5 16t-27 2.5q-27 0 -63.5 -26t-81 -72t-96 -107.5t-108.5 -131.5q-51 -64 -96 -118t-91.5 -102.5t-97.5 -93.5t-115 -91v-861h-254v913q87 51 165.5 110.5t137 128.5t93.5 148.5t35 170.5z
" />
    <glyph glyph-name="thophuthaothai" unicode="&#xe12;" horiz-adv-x="2753" 
d="M242 1289q0 40 1 81t3.5 79.5t7.5 74t13 64.5q16 56 43.5 102t66 79t87.5 51.5t108 18.5q51 0 99.5 -14t92 -36.5t82.5 -50.5t72 -55l166 -138l293 252h201l-1 -1253q44 -70 106 -132.5t130 -110t136 -75.5t123 -28q66 0 101.5 21.5t52 61t19 94.5t2.5 123v1299h254
v-1403q0 -28 -3 -70.5t-14.5 -90t-35.5 -94.5t-66 -85t-105.5 -62t-153.5 -24q-73 0 -144 24t-140 68.5t-135.5 108t-130.5 142.5v-311h-247l1 1509l-195 -160h-120q-21 21 -51 49t-65 58t-73.5 59.5t-76 52.5t-72.5 37.5t-63 14.5q-29 0 -51 -16t-36.5 -52.5t-21.5 -96
t-7 -145.5v-656q0 -41 0.5 -83t2 -81t3 -73t3.5 -59q6 -60 24 -95.5t40.5 -53.5t46 -23t41.5 -5q49 0 103 18.5t116 65.5l53 -162q-64 -64 -143 -99.5t-184 -35.5q-86 0 -145 24.5t-98 63t-60.5 86t-31.5 93.5q-5 22 -8.5 51.5t-6 62.5t-4 67.5t-2.5 67.5q-3 77 -3 159v646z
" />
    <glyph glyph-name="nonenthai" unicode="&#xe13;" horiz-adv-x="2714" 
d="M348 1010q0 49 -11.5 95t-36.5 84t-64 66.5t-94 42.5v203q76 57 170 118t201.5 111t225 82.5t240.5 32.5q50 0 112.5 -4t128 -19t129.5 -45.5t118 -83.5q39 -38 62.5 -83t37 -94.5t18 -103.5t4.5 -110v-831q0 -62 2 -113t14 -87.5t39 -57t78 -20.5q66 0 138 32.5
t138.5 84.5t121.5 116.5t87 129.5v1241h254v-1797h-245v323q-57 -77 -126.5 -141t-144.5 -110.5t-150.5 -72.5t-144.5 -26q-73 0 -124.5 21t-86.5 54t-55.5 74t-31.5 81t-14 75t-3 56v894q0 113 -23 197.5t-76 137.5q-44 44 -119 65.5t-168 22.5q-60 1 -122.5 -12.5
t-122.5 -35t-116 -49t-103.5 -55t-84.5 -52t-59 -40.5q55 -18 102.5 -51t82.5 -81t55 -110t20 -137v-706q0 -71 23.5 -107t82.5 -36h106v-189h-164q-91 0 -149.5 21.5t-92 63.5t-46.5 103.5t-13 142.5v689z" />
    <glyph glyph-name="dodekthai" unicode="&#xe14;" horiz-adv-x="1838" 
d="M239 1263q0 43 4.5 95.5t19.5 107t43 108t75 99.5q61 60 135 94t149 51.5t144 22t121 4.5q25 0 62.5 -1t83 -6t95.5 -15t100 -27t97 -43t86 -63q42 -40 67.5 -85.5t40 -91.5t19.5 -90t5 -80v-1343h-254v1150q0 89 -6 153t-16 108.5t-23 72.5t-27 45q-37 45 -84.5 69.5
t-95.5 36t-92 13.5t-75 2q-36 0 -84 -5.5t-97.5 -21.5t-95 -43.5t-75.5 -71.5q-16 -23 -29 -50.5t-22 -68t-13.5 -98t-4.5 -141.5v-496q0 -41 0.5 -83t1.5 -81t3 -73t4 -59q6 -60 24 -95.5t40.5 -53.5t46 -23t41.5 -5q50 0 113.5 18t126.5 66l53 -162q-64 -64 -153.5 -99.5
t-194.5 -35.5q-86 0 -145 24.5t-98 63t-60.5 86t-31.5 93.5q-5 22 -8.5 51.5t-6 62.5t-4 67.5t-2.5 67.5q-3 77 -3 159v620z" />
    <glyph glyph-name="totaothai" unicode="&#xe15;" horiz-adv-x="1862" 
d="M1609 0h-253v1509l-212 -170h-130q-13 14 -38 41.5t-57 60t-70.5 66t-79.5 60t-82 41.5t-79 12q-29 -3 -51 -19.5t-36.5 -52.5t-21.5 -94t-7 -144v-656q0 -41 0.5 -83t1.5 -81t3 -73t4 -59q6 -60 24 -95.5t40.5 -53.5t46 -23t41.5 -5q50 0 113.5 18t126.5 66l53 -162
q-64 -64 -153.5 -99.5t-194.5 -35.5q-86 0 -145 24.5t-98 63t-60.5 86t-31.5 93.5q-5 22 -8.5 51.5t-6 62.5t-4 67.5t-2.5 67.5q-3 77 -3 159v646q0 40 1 81t3.5 79.5t7.5 74t13 64.5q16 56 43.5 102t66 79t87.5 51.5t108 18.5q103 0 195.5 -37.5t178.5 -121.5l148 -146
l315 263h203v-1797z" />
    <glyph glyph-name="thothungthai" unicode="&#xe16;" horiz-adv-x="1884" 
d="M348 1010q0 49 -11.5 95t-36.5 84t-64 66.5t-94 42.5v203q76 57 172 118t205 111t228.5 82.5t242.5 32.5q50 0 117 -4t138.5 -19t141 -45.5t123.5 -83.5q38 -38 62 -83t37.5 -94.5t18 -103.5t4.5 -110v-1302h-254v1198q0 62 -3.5 115.5t-14 99t-29 82.5t-48.5 66
q-48 48 -119 69t-177 21q-74 0 -144.5 -13.5t-135 -35t-121.5 -49t-104 -54.5t-83 -51.5t-58 -40.5q55 -18 102.5 -51t82.5 -81t55 -110t20 -137v-706q0 -71 23.5 -107t82.5 -36h106v-189h-164q-91 0 -149.5 21.5t-92 63.5t-46.5 103.5t-13 142.5v689z" />
    <glyph glyph-name="thothahanthai" unicode="&#xe17;" horiz-adv-x="1801" 
d="M253 1798h248v-333q212 183 398.5 273.5t345.5 90.5q69 0 118.5 -21t83.5 -55t54 -78.5t30.5 -92t13.5 -94t3 -85.5v-1403h-253v1323q0 74 -6.5 127t-26 87t-55.5 49.5t-94 14.5q-48 -2 -105.5 -22t-118.5 -51.5t-120.5 -70.5t-111 -78.5t-91.5 -75.5t-60 -61v-1242h-253
v1798z" />
    <glyph glyph-name="thothongthai" unicode="&#xe18;" horiz-adv-x="1619" 
d="M1156 483v200q0 57 -15.5 100.5t-54 77.5t-104.5 60.5t-168 48.5q-68 15 -133 31t-123.5 32.5t-108.5 34.5t-87 39q-104 58 -150.5 135t-48.5 163q-2 47 7 95t31.5 93t59 85.5t89.5 73.5q36 24 80.5 40t90.5 26.5t92 15.5t85 7.5t68.5 2.5h43.5q86 0 169.5 -16.5
t156 -41.5t132 -54.5t97.5 -55.5l-86 -184q-61 43 -127.5 72t-131 47t-124.5 26.5t-107 10.5q-68 3 -137.5 -8.5t-125.5 -35.5t-91.5 -61.5t-35.5 -87.5q0 -57 31.5 -94.5t82.5 -63t114.5 -42t128.5 -31.5q39 -9 80 -19.5t76.5 -19.5t61 -16t34.5 -9q88 -24 161.5 -57
t127 -83.5t83 -122t29.5 -172.5v-317q0 -60 -13 -112.5t-35.5 -96.5t-52.5 -79t-65 -62q-39 -30 -93 -49.5t-113.5 -31.5t-119.5 -16.5t-111 -4.5q-71 0 -135 4.5t-120.5 16.5t-104.5 33.5t-88 55.5q-63 55 -101 140.5t-38 199.5v377h254v-279q0 -35 -0.5 -69.5t3 -68
t15 -64t35.5 -57.5q24 -26 55.5 -43.5t67 -28t74.5 -14.5t78 -4q42 0 84.5 5.5t80.5 16t69 25.5t49 34q41 43 56.5 108t15.5 139z" />
    <glyph glyph-name="nonuthai" unicode="&#xe19;" horiz-adv-x="1801" 
d="M1548 0h-248v345q-114 -117 -208.5 -190.5t-179 -114.5t-163 -56t-159.5 -15q-80 0 -136.5 22t-93.5 58.5t-58.5 82t-32.5 93t-13.5 92t-2.5 78.5v1402h253v-1322q0 -74 4.5 -127t22.5 -86.5t54.5 -49t101.5 -15.5q50 0 106.5 14t113.5 38.5t113 59t106.5 75.5t93 87.5
t73.5 95.5v1230h253v-1797z" />
    <glyph glyph-name="bobaimaithai" unicode="&#xe1a;" horiz-adv-x="1820" 
d="M909 -44q-32 0 -74 1.5t-90.5 7t-99.5 16.5t-100.5 30t-95 47t-81.5 68q-40 44 -63 91.5t-34.5 92.5t-14.5 85.5t-3 71.5v1330h253v-1220q0 -81 9.5 -157t45.5 -134q24 -38 61.5 -64.5t84 -43t99 -23.5t105.5 -7t101.5 6t92 21t80 39.5t65.5 61.5q22 28 34.5 63.5
t19 74.5t8.5 80.5t2 82.5v1220h254v-1330q0 -31 -3 -71.5t-15 -85.5t-35 -92.5t-63 -91.5q-36 -40 -81.5 -68t-95 -47t-101 -30t-100 -16.5t-91 -7t-74.5 -1.5z" />
    <glyph glyph-name="poplathai" unicode="&#xe1b;" horiz-adv-x="1820" 
d="M909 -44q-32 0 -74 1.5t-90.5 7t-99.5 16.5t-100.5 30t-95 47t-81.5 68q-40 44 -63 91.5t-34.5 92.5t-14.5 85.5t-3 71.5v1330h253v-1220q0 -81 9.5 -157t45.5 -134q24 -38 61.5 -64.5t84 -43t99 -23.5t105.5 -7t101.5 6t92 21t80 39.5t65.5 61.5q22 28 34.5 63.5
t19 74.5t8.5 80.5t2 82.5v1981h254v-2091q0 -31 -3 -71.5t-15 -85.5t-35 -92.5t-63 -91.5q-36 -40 -81.5 -68t-95 -47t-101 -30t-100 -16.5t-91 -7t-74.5 -1.5z" />
    <glyph glyph-name="phophungthai" unicode="&#xe1c;" horiz-adv-x="1862" 
d="M1609 0h-203l-315 262l-148 -145q-87 -85 -179 -122.5t-195 -37.5q-59 0 -108 18.5t-87.5 51.5t-66 79.5t-43.5 102.5q-17 59 -21 138t-4 160v646q0 82 3 159q1 33 2.5 67.5t4 67.5t6 62t8.5 52q10 46 31.5 93.5t60.5 86.5t98 63.5t145 24.5q105 0 194.5 -36t153.5 -99
l-53 -163q-63 48 -126.5 66.5t-113.5 18.5q-18 0 -41.5 -5t-46 -23t-40.5 -53.5t-24 -96.5q-2 -25 -4 -58.5t-3 -72.5t-1.5 -81t-0.5 -83v-656q0 -86 7 -144.5t21.5 -94.5t36.5 -52t51 -19q38 -4 79 11.5t82 42t79.5 60t70.5 66t57 59.5t38 42h130l212 -170v1509h253v-1797z
" />
    <glyph glyph-name="fofathai" unicode="&#xe1d;" horiz-adv-x="1862" 
d="M1609 0h-203l-315 262l-148 -145q-87 -85 -179 -122.5t-195 -37.5q-59 0 -108 18.5t-87.5 51.5t-66 79.5t-43.5 102.5q-17 59 -21 138t-4 160v646q0 82 3 159q1 33 2.5 67.5t4 67.5t6 62t8.5 52q10 46 31.5 93.5t60.5 86.5t98 63.5t145 24.5q105 0 194.5 -36t153.5 -99
l-53 -163q-63 48 -126.5 66.5t-113.5 18.5q-18 0 -41.5 -5t-46 -23t-40.5 -53.5t-24 -96.5q-2 -25 -4 -58.5t-3 -72.5t-1.5 -81t-0.5 -83v-656q0 -86 7 -144.5t21.5 -94.5t36.5 -52t51 -19q38 -4 79 11.5t82 42t79.5 60t70.5 66t57 59.5t38 42h130l212 -170v2270h253v-2558z
" />
    <glyph glyph-name="phophanthai" unicode="&#xe1e;" horiz-adv-x="2302" 
d="M1275 1797v-1345q32 -64 81 -114.5t102 -85t105 -52.5t90 -18q34 0 60 10t44 33.5t27.5 61t9.5 93.5v1417h254v-1335v-101.5t-4.5 -100.5t-16.5 -93t-35 -80q-40 -63 -114.5 -97t-174.5 -34q-74 0 -147.5 27.5t-144.5 76t-137 115t-124 145.5q-58 -79 -123.5 -145.5
t-136 -115t-144.5 -76t-148 -27.5q-99 0 -173.5 34t-115.5 97q-23 36 -34.5 80t-16 93t-4.5 100.5v101.5v1335h253v-1417q0 -56 9.5 -93.5t27.5 -61t44.5 -33.5t59.5 -10q38 0 90 18t105.5 52.5t102 85t80.5 114.5v1345h249z" />
    <glyph glyph-name="fofanthai" unicode="&#xe1f;" horiz-adv-x="2302" 
d="M1275 1797v-1345q32 -64 81 -114.5t102 -85t105 -52.5t90 -18q34 0 60 10t44 33.5t27.5 61t9.5 93.5v2177h254v-2095v-101.5t-4.5 -100.5t-16.5 -93t-35 -80q-40 -63 -114.5 -97t-174.5 -34q-74 0 -147.5 27.5t-144.5 76t-137 115t-124 145.5q-58 -79 -123.5 -145.5
t-136 -115t-144.5 -76t-148 -27.5q-99 0 -173.5 34t-115.5 97q-23 36 -34.5 80t-16 93t-4.5 100.5v101.5v1335h253v-1417q0 -56 9.5 -93.5t27.5 -61t44.5 -33.5t59.5 -10q38 0 90 18t105.5 52.5t102 85t80.5 114.5v1345h249z" />
    <glyph glyph-name="phosamphaothai" unicode="&#xe20;" horiz-adv-x="1884" 
d="M349 1010q0 49 -12 95t-37 84t-64 66.5t-94 42.5v203q76 57 172 118t205 111t228.5 82.5t242.5 32.5q58 0 124.5 -3t134.5 -18t135 -48t125 -93q37 -39 61 -84t37.5 -94.5t19 -103.5t5.5 -110v-1291h-254v1218q0 112 -19 195.5t-72 140.5q-48 51 -123 73t-180 23
q-70 0 -138.5 -13t-132.5 -35t-122 -49t-106 -54t-85 -51.5t-59 -40.5q55 -18 102.5 -51t82.5 -81t55 -110t20 -137v-707q0 -81 -13 -142.5t-46.5 -103.5t-92 -63.5t-149.5 -21.5h-140v189h82q59 0 83 36t24 107v688z" />
    <glyph glyph-name="momathai" unicode="&#xe21;" horiz-adv-x="1801" 
d="M253 1797h253v-1230q46 -74 117.5 -141t155 -118t170.5 -81t163 -30q64 0 101 15.5t55 49t22.5 86.5t4.5 127v1322h253v-1402q0 -34 -2.5 -78.5t-13.5 -92t-32.5 -93t-58.5 -82t-93.5 -58.5t-136.5 -22q-81 0 -159.5 15t-163 56t-179 114.5t-208.5 190.5v-345h-248v1797z
" />
    <glyph glyph-name="yoyakthai" unicode="&#xe22;" horiz-adv-x="1797" 
d="M203 1507q0 79 23.5 138.5t67.5 100t107 62t143 23.5q40 1 84 -6.5t87.5 -23.5t84.5 -41t75 -59l-44 -150q-49 24 -86.5 37.5t-65.5 20t-46.5 8t-29.5 1.5q-20 0 -45.5 -5t-48 -25t-37.5 -62t-15 -115v-87q0 -83 22 -135t55 -75q18 -13 45.5 -23t60.5 -17t69 -10.5
t71 -3.5h72v-215h-73q-73 -6 -135 -20.5t-107 -43.5t-70 -75t-25 -115v-118q0 -57 16 -111t51 -92q29 -33 68 -56t85.5 -37.5t98.5 -21.5t106 -7q51 1 99.5 8t91.5 20t78.5 31.5t60.5 43.5q50 50 71.5 128t21.5 188v1230h254v-1307q0 -30 -5 -76.5t-20 -99t-42 -105.5
t-72 -95q-39 -37 -87 -63t-100.5 -43.5t-106 -27.5t-103 -15.5t-93 -7t-74.5 -1.5q-71 0 -140 9t-133 27t-120.5 46t-102.5 66q-73 59 -115 142t-42 192v164q0 63 25 122t68.5 106t102 78t125.5 37q-87 17 -145.5 54.5t-94 87t-51 105.5t-15.5 111v204z" />
    <glyph glyph-name="roruathai" unicode="&#xe23;" horiz-adv-x="1296" 
d="M1002 1541q-94 54 -186.5 83t-180.5 26q-134 -5 -209.5 -67t-76.5 -178q-1 -106 76 -191.5t236 -162.5q105 -51 199.5 -108t166 -129.5t113.5 -165.5t42 -215q0 -93 -27 -164.5t-72 -124.5t-103.5 -89t-120.5 -58t-123 -31.5t-112 -9.5q-87 0 -161 11.5t-136 31.5
t-112.5 47t-91.5 59l119 203q34 -29 73 -55t85.5 -46t100 -31.5t115.5 -11.5q77 0 136 20.5t98.5 53t60 73.5t20.5 82q0 44 -13.5 91t-49 95t-96.5 94.5t-157 90.5q-135 61 -232.5 124.5t-160.5 134t-93.5 151.5t-30.5 178q0 57 8 107.5t28.5 98t55 92.5t87.5 90
q42 35 93.5 56t103 31.5t98 13.5t77.5 3q62 0 125 -12t120.5 -30.5t107 -42t85.5 -45.5z" />
    <glyph glyph-name="ruthai" unicode="&#xe24;" horiz-adv-x="1884" 
d="M348 1010q0 49 -11.5 95t-36.5 84t-64 66.5t-94 42.5v203q76 57 172 118t205 111t228.5 82.5t242.5 32.5q50 0 117 -4t138.5 -19t141 -45.5t123.5 -83.5q38 -38 62 -83t37.5 -94.5t18 -103.5t4.5 -110v-1844h-254v1740q0 62 -3.5 115.5t-14 99t-29 82.5t-48.5 66
q-48 48 -119 69t-177 21q-74 0 -144.5 -13.5t-135 -35t-121.5 -49t-104 -54.5t-83 -51.5t-58 -40.5q55 -18 102.5 -51t82.5 -81t55 -110t20 -137v-447v-259q0 -71 23.5 -107t82.5 -36h106v-189h-164q-91 0 -149.5 21.5t-92 63.5t-46.5 103.5t-13 142.5v689z" />
    <glyph glyph-name="lolingthai" unicode="&#xe25;" horiz-adv-x="1718" 
d="M1212 76q-20 27 -30 53.5t-15 60t-5.5 77t-0.5 104.5v599q-66 -8 -148 -20.5t-164 -32t-157 -47t-128 -64.5q-36 -26 -67 -57.5t-54 -70t-36.5 -85t-14.5 -102.5q-2 -66 13 -126t46.5 -106t79.5 -73.5t113 -27.5q10 0 25 1t30.5 2.5t30 3.5t22.5 4l37 -158
q-25 -12 -58 -20.5t-68 -14t-71 -8.5t-67 -3q-38 0 -81 11t-85.5 34t-82 59.5t-69 88t-47.5 118.5t-18 151q0 52 11 120.5t46 142t101 147.5t176 138q58 34 126 59.5t137.5 44t136.5 31t124 20.5t100 12.5t63 6.5v136q0 55 -3.5 96.5t-11 73.5t-19.5 56.5t-30 47.5
q-21 27 -56 45t-78 29t-90.5 15.5t-94.5 4.5q-71 0 -149 -15t-150.5 -38.5t-133.5 -51t-98 -52.5l-81 171q33 22 95.5 52.5t146 58.5t183 47.5t204.5 19.5h56t82 -3t98 -11.5t103.5 -25.5t98.5 -44.5t84 -69.5q29 -33 47.5 -74.5t29.5 -85t15 -86.5t4 -79v-1045
q0 -40 3.5 -72t16 -54.5t38.5 -35t71 -13.5v-162h-90q-98 0 -154.5 25t-87.5 67z" />
    <glyph glyph-name="luthai" unicode="&#xe26;" horiz-adv-x="1874" 
d="M349 1010q0 49 -12 95t-37 84t-64 66.5t-94 42.5v203q76 57 172 118t205 111t228.5 82.5t242.5 32.5q58 0 122.5 -3t131 -18t131.5 -48t123 -93q37 -39 61 -84t38 -94.5t19 -103.5t5 -110v-1889h-254v1816q0 112 -19 195.5t-71 140.5q-49 51 -119 73t-174 23
q-70 0 -138.5 -13t-132.5 -35t-122 -49t-106 -54t-85 -51.5t-59 -40.5q55 -18 102.5 -51t82.5 -81t55 -110t20 -137v-707q0 -81 -13 -142.5t-46.5 -103.5t-92 -63.5t-149.5 -21.5h-144v189h86q59 0 83 36t24 107v688z" />
    <glyph glyph-name="wowaenthai" unicode="&#xe27;" horiz-adv-x="1372" 
d="M866 1332q-1 42 -6.5 81t-16 72.5t-25 60t-33.5 42.5q-25 21 -55.5 35t-62 22t-63 11.5t-57.5 3.5q-54 0 -111 -13.5t-111 -34.5t-101.5 -47t-83.5 -50l-82 170q51 32 115.5 61.5t137.5 51.5t150.5 35t155.5 13q23 0 68 -3t98 -13.5t107 -31t95 -55.5q72 -59 103 -150.5
t31 -213.5v-960q0 -72 -15.5 -131.5t-41 -106.5t-58 -83t-67.5 -61q-46 -30 -98.5 -46t-99.5 -23.5t-84 -8.5t-52 -1q-142 0 -250 37t-190 96l111 178q82 -64 162.5 -93t166.5 -29q22 0 48.5 3.5t52.5 11.5t50.5 20t43.5 30q35 32 51.5 89t16.5 126v905z" />
    <glyph glyph-name="sosalathai" unicode="&#xe28;" horiz-adv-x="1872" 
d="M506 0h-253v1590q21 15 63 39.5t98.5 52.5t125 57t143 52t152.5 37.5t153 14.5q27 0 66 -1t85 -6.5t96 -16t99 -28.5q25 61 60 92t72.5 44t74 14t63.5 1h166v-195h-8.5t-13 0.5t-23.5 0.5h-39q-21 0 -43.5 -0.5t-43 -10.5t-36.5 -34t-24 -71q24 -39 38.5 -79.5t21.5 -79
t9 -72t2 -57.5v-1344h-253v1170q0 84 -4.5 143.5t-13.5 101.5t-23 71.5t-33 54.5q-30 39 -72 60.5t-86 32t-84 12.5t-66 2q-81 0 -156 -17t-137 -39.5t-107.5 -45.5t-68.5 -35v-610q43 74 93.5 121.5t98.5 75.5t89 39t65 13h98v-292q-9 1 -24 2t-31.5 2t-32.5 1h-25
q-49 0 -98.5 -21.5t-94 -58.5t-80.5 -87.5t-58 -108.5v-587z" />
    <glyph glyph-name="sorusithai" unicode="&#xe29;" horiz-adv-x="1903" 
d="M1876 1136q-75 -55 -144 -100.5t-132 -83.5v-460q0 -30 -3 -72.5t-15 -90t-35 -97t-63 -94.5q-57 -63 -133.5 -99.5t-155 -55t-150 -23t-119.5 -4.5q-32 0 -75 1.5t-92.5 8t-102.5 18t-104.5 32t-98.5 50.5t-85 72q-40 45 -63 94.5t-34.5 97t-14.5 90t-3 72.5v1305h253
v-1195q0 -41 0.5 -83t5.5 -83t16.5 -78.5t32.5 -67.5q30 -42 74 -69.5t94.5 -43.5t102 -22.5t95.5 -6.5q43 0 94.5 6.5t101.5 22.5t94 43.5t74 69.5q21 30 32.5 67.5t16.5 78.5t5.5 83t0.5 83v230q-78 -27 -147.5 -39.5t-134.5 -12.5q-75 0 -126 20.5t-83.5 53.5t-50 74.5
t-25.5 82.5t-9 79t-1 63v81h226v-35q0 -48 3 -88.5t16.5 -69t39.5 -44.5t73 -16q45 0 100.5 11t118.5 32v773h254v-661q51 29 99.5 62.5t90.5 69.5z" />
    <glyph glyph-name="sosuathai" unicode="&#xe2a;" horiz-adv-x="1721" 
d="M1216 76q-20 27 -30.5 53.5t-15.5 60t-5.5 77t-0.5 104.5v599q-66 -8 -147.5 -20.5t-164 -32t-157.5 -47t-128 -64.5q-36 -26 -67 -57.5t-54 -70t-36.5 -85t-14.5 -102.5q-2 -66 13 -126t46.5 -106t79.5 -73.5t113 -27.5q10 0 25 1t30.5 2.5t30 3.5t22.5 4l37 -158
q-25 -12 -58 -20.5t-68 -14t-70.5 -8.5t-66.5 -3q-38 0 -81 11t-85.5 34t-82 59.5t-69 88t-47.5 118.5t-18 151q0 35 4.5 77t16.5 89t35 96.5t60 99t90.5 96.5t126.5 90q58 34 126 59.5t137.5 44t137 31t124 20.5t99 12.5t63.5 6.5v136q0 55 -3.5 96.5t-11 73.5t-19.5 56.5
t-30 47.5q-21 27 -56 45t-78 29t-90.5 15.5t-94.5 4.5q-71 0 -148.5 -15t-150.5 -38.5t-134 -51t-97 -52.5l-82 171q33 22 95.5 52.5t146 58.5t183 47.5t204.5 19.5h60.5t89.5 -4t106 -15t110 -32q25 60 60 90.5t72.5 43t73.5 13.5t63 1h166v-195h-8.5t-13.5 0.5t-23.5 0.5
h-38.5q-22 0 -45 -0.5t-43.5 -11.5t-36.5 -37.5t-23 -78.5q29 -62 39 -130.5t10 -123.5v-1045q0 -40 5 -70t18 -51.5t36.5 -34.5t59.5 -19v-162h-80q-98 0 -154.5 25t-86.5 67z" />
    <glyph glyph-name="hohipthai" unicode="&#xe2b;" horiz-adv-x="1800" 
d="M1422 1357q44 -34 69.5 -76.5t38 -88.5t15.5 -94t3 -93v-1005h-253v932q0 57 -5.5 112.5t-25.5 99t-59.5 70t-108.5 26.5q-52 0 -108.5 -10.5t-113 -29t-111 -43.5t-103 -52.5t-88 -57t-66.5 -57.5v-990h-253v1797h253v-599q54 40 127.5 80t156.5 71.5t170.5 50.5
t168.5 16q-8 42 -9.5 73.5t-1.5 38.5q-2 70 23 121t72.5 84t113.5 48.5t147 15.5h151v-194l-48 2q-11 0 -31 1t-44.5 -1t-49.5 -7.5t-46 -17t-34 -30.5t-13 -48q0 -32 -0.5 -51t4.5 -33t18.5 -27t40.5 -34z" />
    <glyph glyph-name="lochulathai" unicode="&#xe2c;" horiz-adv-x="2174" 
d="M1611 1786q24 63 59.5 95t74 45.5t75 14.5t63.5 1h166v-195h-8.5t-13 0.5t-23 0.5h-38.5q-22 0 -45 -0.5t-43.5 -11.5t-37 -37.5t-23.5 -78.5q30 -45 50 -95t32 -100.5t16.5 -100t4.5 -94.5v-768v-101.5t-4.5 -100.5t-16.5 -93t-35 -80q-41 -63 -110 -97t-168 -34
q-74 0 -142.5 27.5t-131.5 76t-119.5 115t-106.5 145.5q-50 -79 -106.5 -145.5t-119 -115t-131 -76t-142.5 -27.5q-99 0 -168 34t-110 97q-23 36 -34.5 80t-16 93t-4.5 100.5v101.5v1335h253v-1417q0 -56 8 -93.5t24 -61t40.5 -33.5t58.5 -10q38 0 81 18t86.5 52.5t84 85
t72.5 114.5v679h249v-679q32 -64 72.5 -114.5t84 -85t86.5 -52.5t81 -18q34 0 58.5 10t40.5 33.5t24 61t8 93.5v741q0 131 -13 219.5t-43 143.5q-26 42 -64 66.5t-77.5 37t-74.5 16.5t-54 4q-45 0 -91 -9t-91 -24t-87 -34t-78 -38l-63 174q40 22 87.5 45t106 41.5t128.5 30
t156 11.5q36 0 91.5 -7.5t111.5 -21.5v10z" />
    <glyph glyph-name="oangthai" unicode="&#xe2d;" horiz-adv-x="1698" 
d="M1244 1201q0 53 -6.5 107t-24.5 103.5t-50.5 93t-83.5 75.5t-124 50.5t-173 18.5q-51 0 -117.5 -11.5t-137.5 -34t-140.5 -55.5t-126.5 -76l-85 179q61 44 140 80t165.5 61.5t175 39.5t168.5 14q31 0 77 -1t100 -7t111.5 -19t112 -36.5t102 -60t81.5 -89.5
q34 -54 52.5 -115t26.5 -124t9.5 -126.5t1.5 -123.5v-388q0 -78 -2 -157t-15 -155.5t-41 -147.5t-79 -132q-37 -44 -81.5 -76.5t-93 -55.5t-98 -37.5t-96 -22.5t-88 -11t-73.5 -3q-95 0 -179.5 18.5t-155 50.5t-126 75.5t-91.5 94.5q-34 48 -51.5 94.5t-25 96.5t-8.5 105.5
t-2 120.5v421h588v-186h-335l2 -266q0 -36 0.5 -69t4.5 -64.5t13 -63t25 -64.5q20 -36 50 -68t72 -56t98 -38t128 -14q120 0 198.5 38t134.5 108q21 27 36 66.5t24 84t12 91t1 88.5v579z" />
    <glyph glyph-name="honokhukthai" unicode="&#xe2e;" horiz-adv-x="1698" 
d="M1244 1201q0 53 -6.5 107t-24.5 103.5t-50.5 93t-83.5 75.5t-124 50.5t-173 18.5q-51 0 -117.5 -11.5t-137.5 -34t-140.5 -55.5t-126.5 -76l-85 179q61 44 140 80t165.5 61.5t175 39.5t168.5 14q28 0 69.5 -1t90 -6t101.5 -15t104 -29q24 59 59 89.5t72.5 43t73.5 13.5
t62 1h166v-195h-8.5t-13 0.5t-23 0.5h-38.5q-20 0 -41.5 -0.5t-41 -9t-35.5 -28.5t-26 -60l13 -17q34 -54 52.5 -115t26.5 -124t9.5 -126.5t1.5 -123.5v-388q0 -78 -2 -157t-15 -155.5t-41 -147.5t-79 -132q-37 -44 -81.5 -76.5t-93 -55.5t-98 -37.5t-96 -22.5t-88 -11
t-73.5 -3q-95 0 -179.5 18.5t-155 50.5t-126 75.5t-91.5 94.5q-34 48 -51.5 94.5t-25 96.5t-8.5 105.5t-2 120.5v421h588v-186h-335l2 -266q0 -36 0.5 -69t4.5 -64.5t13 -63t25 -64.5q20 -36 50 -68t72 -56t98 -38t128 -14q120 0 198.5 38t134.5 108q21 27 36 66.5t24 84
t12 91t1 88.5v579z" />
    <glyph glyph-name="paiyannoithai" unicode="&#xe2f;" horiz-adv-x="1818" 
d="M1497 1797v-1372q0 -30 -3.5 -72t-17.5 -89t-42 -94.5t-77 -87.5q-52 -42 -117.5 -64t-131.5 -31.5t-125.5 -10.5t-99.5 -1q-31 0 -79 3t-105 13t-118.5 29t-119.5 52l76 187q78 -55 169.5 -81.5t176.5 -26.5q30 0 66.5 1.5t74.5 9t76 23.5t71 44q29 25 44.5 56
t22.5 64.5t8 69t1 68.5v233q-78 -1 -172.5 2.5t-190 14t-184 28.5t-154.5 47l1 -1q-101 49 -164 112t-98 131.5t-47.5 138.5t-12.5 132q0 118 38.5 207.5t98 149.5t132.5 90t142 30q66 0 121 -13t105 -41l-38 -143q-25 11 -46 16t-44 5q-75 0 -127 -29t-84.5 -76.5
t-47 -107.5t-14.5 -122q0 -76 18 -130t46 -92t62 -62.5t67 -41.5h-1q50 -26 124.5 -41.5t156.5 -23.5t164 -10.5t147 -2.5v910h252z" />
    <glyph glyph-name="saraathai" unicode="&#xe30;" horiz-adv-x="1100" 
d="M1041 1481q-76 -57 -154 -111t-158.5 -96t-164 -67.5t-169.5 -25.5q-62 0 -104.5 18.5t-70.5 48.5t-44 67.5t-24 76t-9.5 74t-1.5 61.5v98h256v-75q0 -37 2.5 -66t11.5 -49t27 -30.5t49 -10.5q46 0 101.5 20t115 52t121 73t119.5 83zM1041 473q-76 -57 -154 -111
t-158.5 -96t-164 -67.5t-169.5 -25.5q-62 0 -104.5 18.5t-70.5 48.5t-44 67.5t-24 76t-9.5 74t-1.5 61.5v98h256v-75q0 -37 2.5 -66t11.5 -49t27 -30.5t49 -10.5q46 0 101.5 20t115 52t121 73t119.5 83z" />
    <glyph glyph-name="maihanakatthai" unicode="&#xe31;" 
d="M-1161 2123v360h254v-168h867v-192h-1121z" />
    <glyph glyph-name="saraaathai" unicode="&#xe32;" horiz-adv-x="1318" 
d="M812 1313q-1 41 -4 78t-11 70t-22 62.5t-37 55.5q-38 44 -91 58.5t-110 14.5q-63 0 -118 -12t-103.5 -32.5t-92 -46t-82.5 -52.5l-82 167q46 33 103.5 63.5t123.5 54t139 38t150 14.5q27 0 71 -3t93.5 -13.5t101 -31.5t93.5 -58q73 -64 102.5 -151.5t29.5 -209.5v-1379
h-254v1313z" />
    <glyph glyph-name="saraamthai" unicode="&#xe33;" horiz-adv-x="1318" 
d="M-493 2327q0 -23 9 -43.5t24 -35.5t35.5 -24t43.5 -9t43.5 9t35.5 24t24 35.5t9 43.5t-9 43.5t-24 36t-35.5 24.5t-43.5 9t-43.5 -9t-35.5 -24.5t-24 -36t-9 -43.5zM812 1313q-1 41 -4 78t-11 70t-22 62.5t-37 55.5q-38 44 -91 58.5t-110 14.5q-63 0 -118 -12
t-103.5 -32.5t-92 -46t-82.5 -52.5l-82 167q46 33 103.5 63.5t123.5 54t139 38t150 14.5q27 0 71 -3t93.5 -13.5t101 -31.5t93.5 -58q73 -64 102.5 -151.5t29.5 -209.5v-1379h-254v1313zM-643 2327q0 55 20.5 103t56.5 83.5t84 56t102 20.5q55 0 103 -20.5t83.5 -56
t56 -83.5t20.5 -103q0 -54 -20.5 -102t-56 -84t-83.5 -56.5t-103 -20.5q-54 0 -102 20.5t-84 56.5t-56.5 84t-20.5 102z" />
    <glyph glyph-name="saraithai" unicode="&#xe34;" 
d="M-1525 2122v193h1272v-193h-1272z" />
    <glyph glyph-name="saraiithai" unicode="&#xe35;" 
d="M-1525 2122v195h1019v264h253v-459h-1272z" />
    <glyph glyph-name="sarauethai" unicode="&#xe36;" 
d="M-686 2379q0 53 20.5 99.5t55.5 81.5t81.5 55t99.5 20t99.5 -20t81.5 -55t55.5 -81.5t20.5 -99.5t-20.5 -100t-55.5 -82t-81.5 -55t-99.5 -20h-1096v193h848q-9 31 -9 64zM-526 2378q0 -41 28 -69t69 -28q40 0 68 28t28 69q0 20 -7.5 37.5t-20.5 31t-30.5 21t-37.5 7.5
t-38 -7.5t-31 -21t-20.5 -31t-7.5 -37.5z" />
    <glyph glyph-name="saraueethai" unicode="&#xe37;" 
d="M-1525 2122v195h615v264h222v-264h214v264h221v-459h-1272z" />
    <glyph glyph-name="sarauthai" unicode="&#xe38;" 
d="M-495 -720v314h-189v193h431v-507h-242z" />
    <glyph glyph-name="sarauuthai" unicode="&#xe39;" 
d="M-1089 -212h368v-273q0 -25 10 -43.5t26.5 -31t38 -19t45.5 -6.5q22 0 43 6.5t37 19t25.5 31t9.5 43.5v273h233v-245q0 -59 -18.5 -114t-60 -97.5t-107.5 -68t-162 -25.5q-89 0 -154.5 20t-108.5 56t-64 86.5t-21 111.5v84h-140v192z" />
    <glyph glyph-name="phinthuthai" unicode="&#xe3a;" 
d="M-623 -382q0 42 15.5 78.5t42.5 63.5t63.5 42.5t77.5 15.5q42 0 78.5 -15.5t63.5 -42.5t42.5 -63.5t15.5 -78.5q0 -41 -15.5 -77.5t-42.5 -63.5t-63.5 -42.5t-78.5 -15.5q-41 0 -77.5 15.5t-63.5 42.5t-42.5 63.5t-15.5 77.5z" />
    <glyph glyph-name="PUCR2005" unicode="&#xe3e;" 
 />
    <glyph glyph-name="bahtthai" unicode="&#xe3f;" horiz-adv-x="2050" 
d="M1071 196h81q88 0 169.5 31.5t143 88t98.5 135t37 172.5q0 86 -36 158t-100 124t-151.5 81t-190.5 29h-51v-819zM1071 1193h51q88 0 162.5 23.5t128.5 69t84 112t30 152.5q0 81 -19.5 138.5t-51 96t-71.5 60.5t-82 33.5t-82 14.5t-71 3h-79v-703zM550 1017v-821h355v819z
M550 1896v-703h355v703h-355zM1213 2096q116 0 220 -29.5t182 -91.5t124 -158t46 -230q0 -152 -76.5 -271t-241.5 -195q95 -26 169 -74.5t124.5 -115t77 -151t26.5 -182.5q0 -150 -47.5 -262t-135.5 -187t-214 -112t-283 -37h-113v-288h-166v288h-615v2096h615v290h166v-290
h142z" />
    <glyph glyph-name="saraethai" unicode="&#xe40;" horiz-adv-x="835" 
d="M254 1797h253v-1465q0 -71 23.5 -107t82.5 -36h106v-189h-164q-91 0 -149.5 21.5t-92 63.5t-46.5 103.5t-13 142.5v1466z" />
    <glyph glyph-name="saraaethai" unicode="&#xe41;" horiz-adv-x="1581" 
d="M254 1797h253v-1465q0 -71 23.5 -107t82.5 -36h106v-189h-164q-91 0 -149.5 21.5t-92 63.5t-46.5 103.5t-13 142.5v1466zM1002 1797h253v-1465q0 -71 23.5 -107t82.5 -36h106v-189h-164q-91 0 -149.5 21.5t-92 63.5t-46.5 103.5t-13 142.5v1466z" />
    <glyph glyph-name="saraothai" unicode="&#xe42;" horiz-adv-x="878" 
d="M295 1883q-73 39 -131.5 84.5t-99 98t-62.5 113t-22 128.5q0 97 36.5 159.5t94.5 99t130.5 50.5t145.5 14q54 0 111 -8t112.5 -21.5t108 -31t97.5 -37.5l-37 -172q-98 40 -192.5 60.5t-169.5 24.5q-68 4 -111.5 -10.5t-68 -39.5t-33 -55.5t-7.5 -59.5q2 -59 30.5 -106.5
t76 -88t110.5 -75.5t135 -68v-1610q0 -71 24 -107t83 -36h106v-189h-164q-91 0 -149.5 21.5t-92.5 63.5t-47 103.5t-13 142.5z" />
    <glyph glyph-name="saraaimaimuanthai" unicode="&#xe43;" horiz-adv-x="878" 
d="M297 1950q80 35 145.5 74t112.5 82t72.5 89.5t25.5 96.5q0 35 -12 65.5t-39 53t-71 34.5t-108 11q-51 -2 -103 -14.5t-93.5 -35.5t-66 -56t-20.5 -75q2 -14 8 -33t27 -40l-123 -86q-29 15 -48.5 39t-31.5 51t-16.5 54t-2.5 48q8 72 42 122.5t78 82.5q42 32 88 54.5
t94 37.5t95.5 22.5t91.5 8.5q46 1 96 -3.5t97.5 -18.5t90 -38t74.5 -61t50 -88.5t17 -119.5q-1 -48 -17 -100.5t-53 -106t-97.5 -106t-149.5 -99.5v-1563q0 -71 23.5 -107t82.5 -36h106v-189h-164q-91 0 -149.5 21.5t-92 63.5t-46.5 103.5t-13 142.5v1619z" />
    <glyph glyph-name="saraaimaimalaithai" unicode="&#xe44;" horiz-adv-x="880" 
d="M298 1821q72 48 137.5 105.5t115 121t78.5 130t29 132.5q0 45 -11.5 72.5t-29.5 42.5t-40 20t-42 5q-42 0 -93.5 -27.5t-103.5 -73.5t-100.5 -104.5t-84.5 -121.5h-190v500h187v-244q43 56 89 103t98.5 81.5t112.5 54t129 20.5q49 0 100.5 -14t93.5 -48.5t68.5 -93
t26.5 -148.5q0 -56 -14.5 -119.5t-51 -132.5t-98 -142.5t-154.5 -149.5v-1458q0 -71 23.5 -107t82.5 -36h106v-189h-164q-91 0 -149 21.5t-91.5 63.5t-46.5 103.5t-13 142.5v1490z" />
    <glyph glyph-name="lakkhangyaothai" unicode="&#xe45;" horiz-adv-x="1318" 
d="M812 1313q-1 41 -4 78t-11 70t-22 62.5t-37 55.5q-38 44 -91 58.5t-110 14.5q-63 0 -118 -12t-103.5 -32.5t-92 -46t-82.5 -52.5l-82 167q46 33 103.5 63.5t123.5 54t139 38t150 14.5q27 0 71 -3t93.5 -13.5t101 -31.5t93.5 -58q73 -64 102.5 -151.5t29.5 -209.5v-1920
h-254v1854z" />
    <glyph glyph-name="maiyamokthai" unicode="&#xe46;" horiz-adv-x="1816" 
d="M1272 1492l-185 -192h-156l-225 247q-47 50 -79 70.5t-67 19.5q-14 0 -29.5 -7.5t-29 -29.5t-22.5 -63t-9 -109v-307q0 -36 6 -61.5t19.5 -42t34 -26t49.5 -13.5q10 -1 23.5 -2t28.5 -1.5t30.5 -0.5h28.5v-190h-170q-46 0 -82.5 7.5t-65 20t-49 29t-34.5 35.5
q-27 38 -46.5 104t-19.5 173l1 187q0 24 0.5 61.5t2.5 78t6 78t12 63.5q11 37 33.5 76t59 71t88.5 52t121 20q62 0 110 -17t85 -43t65 -56.5t51 -56.5l153 -175l285 306h230v-1937q0 -56 -3.5 -107.5t-15 -97t-33.5 -84t-59 -68.5q-31 -26 -66.5 -44.5t-82.5 -30.5
t-108.5 -18t-144.5 -6q-26 0 -59 3v193q77 3 136.5 9.5t100 30.5t61 72.5t20.5 135.5v1643z" />
    <glyph glyph-name="maitaikhuthai" unicode="&#xe47;" 
d="M-1056 2349l74 86h161q60 -67 104.5 -101t77 -48.5t53.5 -15.5t33 -1t26 6.5t26 20t20.5 34.5t8.5 50v55h187v-70q0 -63 -18.5 -111t-52.5 -80.5t-82 -49t-107 -16.5q-50 0 -94 12.5t-86.5 37.5t-85.5 63t-91 88l-180 -186h-171v290q0 77 22.5 138t64 103t100.5 64.5
t132 22.5h746v-164h-732q-67 0 -101.5 -35.5t-34.5 -115.5v-77z" />
    <glyph glyph-name="maiekthai" unicode="&#xe48;" 
d="M-490 2736v400h237v-400h-237z" />
    <glyph glyph-name="maithothai" unicode="&#xe49;" 
d="M-735 3012q-33 0 -64 -15.5t-57 -36.5l-61 113q12 11 38 32.5t63 42.5t83 36.5t97 15.5q31 0 59 -9t49 -27.5t33.5 -48t12.5 -70.5q0 -21 -4 -42t-9 -39.5t-11 -32.5t-10 -21h391v-174h-636q33 71 44 106.5t13 46.5q8 26 9 48.5t-4 39t-14.5 26t-21.5 9.5z" />
    <glyph glyph-name="maitrithai" unicode="&#xe4a;" 
d="M-785 2979q-48 0 -42 -57q2 -19 10 -43.5t19 -50t23.5 -50t24.5 -42.5h-163q-50 76 -75.5 129.5t-30.5 103.5q-8 52 3 90.5t33.5 64t53.5 38t63 12.5t65 -12t64 -31t58 -44t47 -50q19 25 45.5 50t56.5 44t63 31t67 12q31 0 60 -13.5t49.5 -39t30 -63t1.5 -84.5
q-2 -10 -6 -22.5t-9.5 -25t-10.5 -23t-9 -15.5h188v-152h-412q15 23 29 49.5t25 53.5t17.5 51.5t7.5 43.5q2 35 -8 48t-31 13q-16 0 -38.5 -19.5t-44.5 -46t-41.5 -53.5t-29.5 -43q-11 16 -30 40.5t-41 48t-44 40.5t-38 17z" />
    <glyph glyph-name="maichattawathai" unicode="&#xe4b;" 
d="M-471 2736l11 157l-201 -10v178l201 -10l-11 157h217l-10 -157l201 10v-178l-201 10l10 -157h-217z" />
    <glyph glyph-name="thanthakhatthai" unicode="&#xe4c;" 
d="M-3 2857v-171h-430v-159h-243v330h673z" />
    <glyph glyph-name="nikhahitthai" unicode="&#xe4d;" 
d="M-493 2327q0 -23 9 -43.5t24 -35.5t35.5 -24t43.5 -9t43.5 9t35.5 24t24 35.5t9 43.5t-9 43.5t-24 36t-35.5 24.5t-43.5 9t-43.5 -9t-35.5 -24.5t-24 -36t-9 -43.5zM-643 2327q0 55 20.5 103t56.5 83.5t84 56t102 20.5q55 0 103 -20.5t83.5 -56t56 -83.5t20.5 -103
q0 -54 -20.5 -102t-56 -84t-83.5 -56.5t-103 -20.5q-54 0 -102 20.5t-84 56.5t-56.5 84t-20.5 102z" />
    <glyph glyph-name="yamakkanthai" unicode="&#xe4e;" 
d="M-676 2123v260h220v163h428v-153h-195v-163h-210v-107h-243z" />
    <glyph glyph-name="fongmanthai" unicode="&#xe4f;" horiz-adv-x="2058" 
d="M140 887q0 123 32 236t90 211.5t140 179.5t181.5 138.5t214 89t238.5 31.5q122 0 234.5 -31.5t210.5 -89t179 -138.5t138.5 -179.5t89 -212t31.5 -235.5q0 -123 -31.5 -236.5t-89 -212.5t-138.5 -179.5t-179 -138.5t-210.5 -89.5t-234.5 -31.5q-124 0 -238.5 31.5
t-214 89.5t-181.5 138.5t-140 179.5t-90 212.5t-32 236.5zM562 895q0 94 37.5 178.5t102 148.5t150.5 101.5t184 37.5q94 0 178 -37.5t147 -101.5t100 -148.5t37 -178.5q0 -98 -37 -183.5t-100 -149.5t-147 -101t-178 -37q-98 0 -184 37t-150.5 101t-102 149.5t-37.5 183.5z
M349 887q0 -142 54 -266.5t147 -217.5t217.5 -147t266.5 -54q94 0 181.5 24.5t163.5 69t138.5 107t107 139t69 163.5t24.5 182q0 94 -24.5 181.5t-69 164t-107 139t-138.5 107t-163.5 69t-181.5 24.5q-142 0 -266.5 -54t-217.5 -147t-147 -217.5t-54 -266.5zM743 887
q0 -60 23 -113t62.5 -92.5t92.5 -62.5t113 -23t113 23t92.5 62.5t62.5 92.5t23 113t-23 113t-62.5 92.5t-92.5 62.5t-113 23t-113 -23t-92.5 -62.5t-62.5 -92.5t-23 -113z" />
    <glyph glyph-name="zerothai" unicode="&#xe50;" horiz-adv-x="1967" 
d="M1747 531q0 -125 -57 -229t-158.5 -178t-241.5 -115t-305 -41q-167 0 -307.5 41t-242.5 115t-159 178t-57 229v513q0 125 57 228.5t159 178t242.5 115.5t307.5 41q165 0 305 -41t241.5 -115.5t158.5 -178t57 -228.5v-513zM984 154q108 0 203 24t166.5 75t113 130
t41.5 189v431q0 109 -41.5 188t-113 130t-166.5 75.5t-203 24.5t-204 -24.5t-167 -75.5t-112.5 -130t-41.5 -188v-431q0 -110 41.5 -189t112.5 -130t167 -75t204 -24z" />
    <glyph glyph-name="onethai" unicode="&#xe51;" horiz-adv-x="1930" 
d="M689 624q-9 -1 -16.5 -1h-17t-23.5 0.5t-37 0.5q-91 0 -156.5 21.5t-110.5 56.5t-72.5 80t-42 91t-19 90t-4.5 78q0 132 60 236.5t165.5 178t250.5 112.5t315 39q189 0 336.5 -43.5t249.5 -122t155 -188t53 -241.5v-364q0 -115 -29.5 -208t-83.5 -165t-129 -124t-165 -86
t-193 -50t-212 -16h-570v206h420q85 0 171.5 5.5t166.5 22.5t150 47t122 79t82 119.5t30 168.5v303q0 123 -43 209.5t-118 141t-175 79.5t-214 25q-59 0 -123.5 -7t-127.5 -24t-120.5 -45t-101 -69t-69 -97t-25.5 -129q0 -42 12.5 -85.5t44 -79t84 -56.5t133.5 -18z" />
    <glyph glyph-name="twothai" unicode="&#xe52;" horiz-adv-x="2057" 
d="M1848 627q0 -161 -64.5 -282.5t-177 -203t-266 -122.5t-330.5 -41q-182 0 -330 41t-252.5 122.5t-161.5 203t-57 282.5v1260h239v-1256q0 -117 40 -202.5t113.5 -141t177.5 -82t231 -26.5q126 0 235 26.5t189.5 82t127 141t46.5 202.5v652l-164 -138h-155q-17 18 -39 43
t-47 52t-51.5 53.5t-51.5 47.5t-48 34t-40 13q-18 0 -28 -14t-15 -37t-6 -54t-1 -65v-342h-240v329q0 71 5.5 140.5t29 124.5t70.5 89t131 34q42 0 75.5 -8.5t61 -22.5t51 -33.5t46.5 -40.5l183 -173l266 240h207v-928z" />
    <glyph glyph-name="threethai" unicode="&#xe53;" horiz-adv-x="2089" 
d="M1048 1253q27 36 63.5 75.5t79 77.5t89 72.5t93.5 60.5t93 41.5t88 15.5q98 0 159 -36t95.5 -95.5t47 -136t12.5 -158.5v-1170h-239v1201q0 55 -14.5 87t-37 49t-50 22t-53.5 5q-30 0 -74 -23t-89.5 -62t-86 -90.5t-62.5 -108.5v-519h-235v521q-23 57 -63.5 108.5t-86 90
t-89.5 61t-74 22.5q-26 0 -53 -5t-49.5 -22t-37 -49t-14.5 -87v-773q0 -56 6.5 -100.5t23.5 -75.5t46.5 -47.5t74.5 -14.5q42 2 79.5 12.5t72.5 25.5l58 -153q-21 -17 -52 -36t-68.5 -34.5t-79 -26t-83.5 -10.5q-83 0 -138.5 24.5t-91 65.5t-53.5 93t-26 107t-8.5 108.5
t-0.5 96.5v707q0 82 12.5 158.5t47 136t96 95.5t159.5 36q42 0 89 -15.5t95.5 -41.5t96.5 -60.5t91 -72.5t79.5 -77.5t61.5 -75.5z" />
    <glyph glyph-name="fourthai" unicode="&#xe54;" horiz-adv-x="2015" 
d="M1317 641q-59 -6 -95.5 -19.5t-57 -33.5t-27.5 -46t-7 -56q0 -49 25 -97.5t61 -88t75 -65.5t67 -30h459v-205h-1005q-159 -2 -271.5 35t-184 111t-104.5 183.5t-33 253.5v398q-3 125 25 220t81 164.5t127.5 116t165.5 74.5t195.5 39.5t216.5 11.5q99 0 183.5 -11
t153.5 -29t121.5 -41t86.5 -47v408h240v-669h-246q-42 50 -97 85.5t-120.5 58t-140.5 33t-159 10.5q-59 0 -126 -3.5t-133 -17t-126 -39.5t-106.5 -71t-74 -112.5t-27.5 -163.5v-408q0 -103 19.5 -174.5t60.5 -117.5t105.5 -68t153.5 -25h262q-37 30 -66 68t-49.5 80
t-31.5 87t-11 90q0 67 25.5 126.5t71 105t109 73.5t139.5 32z" />
    <glyph glyph-name="fivethai" unicode="&#xe55;" horiz-adv-x="2015" 
d="M1357 1592q75 -8 141.5 -27.5t126.5 -50.5t114.5 -71.5t106.5 -90.5l-160 -159q-75 66 -139.5 107.5t-133 64.5t-148.5 31.5t-186 8.5q-52 0 -118 -3.5t-135 -17t-135 -39.5t-117.5 -71t-83 -112.5t-31.5 -163.5v-408q0 -103 19.5 -174.5t60.5 -117.5t105.5 -68
t153.5 -25h262q-37 30 -66 68t-49.5 80t-31.5 87t-11 90q0 67 25.5 126.5t71 105t109 73.5t139.5 32l70 -226q-59 -6 -95.5 -19.5t-57 -33.5t-27.5 -46t-7 -56q0 -49 25 -97.5t61 -88t75 -65.5t67 -30l459 2v-207h-1005q-159 -2 -271.5 35t-184 111t-104.5 183.5t-33 253.5
v398q-2 109 20.5 195.5t65 152.5t102.5 114t133.5 80.5t157.5 51t175 26.5q-31 57 -31 127q0 57 21.5 107t59 87.5t87.5 59t107 21.5t107 -21.5t87.5 -59t59 -87.5t21.5 -107q0 -37 -9 -71t-26 -65zM1000 1727q0 -24 9.5 -45.5t25 -37t37 -25t45.5 -9.5t45.5 9.5t37 25
t25 37t9.5 45.5t-9.5 45.5t-25 37t-37 25t-45.5 9.5t-45.5 -9.5t-37 -25t-25 -37t-9.5 -45.5z" />
    <glyph glyph-name="sixthai" unicode="&#xe56;" horiz-adv-x="1861" 
d="M1409 884q0 153 -37 252.5t-100 157t-145.5 80t-172.5 22.5q-61 0 -125.5 -9t-127.5 -31.5t-122 -61t-110 -98.5h-256v691h240v-454q63 55 130 89.5t133 53t127 25t111 6.5q100 0 191 -12.5t168 -41t139 -75.5t106 -115t67.5 -160t23.5 -211v-476q0 -117 -56.5 -216
t-155.5 -171t-233.5 -112t-290.5 -39q-116 0 -219 12.5t-195.5 50.5t-175 108t-155.5 185l232 161q72 -155 202.5 -230t304.5 -75q50 0 106.5 9t112.5 28.5t107 51t90 76.5t62.5 105.5t23.5 137.5v286z" />
    <glyph glyph-name="seventhai" unicode="&#xe57;" horiz-adv-x="2464" 
d="M231 1147q0 58 1.5 115.5t9 109t23.5 95t45 73t73 42.5t108 5q40 -6 83 -28.5t86.5 -56.5t85 -76.5t78.5 -87.5t68 -89.5t53 -82.5q21 38 52.5 82.5t69 89.5t80 87.5t86 76.5t87 56.5t83.5 28.5q63 8 107.5 -5t73.5 -42.5t45 -73t24 -95t9.5 -109t1.5 -115.5v-848
q0 -39 4.5 -68.5t18 -50t37.5 -30.5t63 -10q36 0 73.5 20t67.5 62t49 106t19 153v1406h238v-1363q0 -125 -30.5 -225t-91 -170.5t-150 -108t-207.5 -37.5q-98 0 -161.5 16.5t-101.5 47t-53 73.5t-15 96v975q0 43 -4.5 69t-13.5 40t-21.5 18.5t-28.5 4.5q-26 0 -68.5 -29
t-90.5 -78t-94.5 -113.5t-79.5 -136.5h-152q-32 72 -77 136.5t-92 113.5t-90.5 78t-71.5 29q-12 0 -24.5 -4.5t-22.5 -18.5t-16 -40t-6 -69v-758q0 -56 3 -102.5t16.5 -80t42 -50.5t78.5 -14q22 1 45 6t45 12t40.5 14t31.5 13l58 -151q-20 -17 -51 -36t-68.5 -34.5t-79 -26
t-83.5 -10.5q-83 0 -139 24.5t-91 65.5t-53.5 93t-26 107.5t-8 109t-0.5 96.5v678z" />
    <glyph glyph-name="eightthai" unicode="&#xe58;" horiz-adv-x="2050" 
d="M1026 1398q-122 0 -226 -27t-180 -83.5t-118.5 -142.5t-42.5 -203v-652l236 255h216q67 -107 134 -177t127.5 -111.5t112.5 -58.5t89 -17q70 0 112.5 24t65.5 65t31 94.5t8 112.5v232h240v-293q0 -81 -19.5 -162.5t-67.5 -147.5t-129.5 -107.5t-204.5 -41.5
q-73 0 -147 23.5t-150 74t-155 128.5t-161 188l-327 -371h-251v946q0 161 61 282.5t169 203t255 122.5t319 41q65 0 139 -7.5t149.5 -23.5t149 -40.5t138.5 -57.5v410h239v-652h-238q-54 49 -116.5 82.5t-134 53.5t-152 29t-171.5 9z" />
    <glyph glyph-name="ninethai" unicode="&#xe59;" horiz-adv-x="2050" 
d="M220 1083q0 52 8.5 107.5t29 108t54.5 100t86.5 83t124 56t166.5 20.5h80q68 0 128 -13t114 -42t103 -76t94 -115l125 219h-1q9 17 18.5 22t20.5 5h157q33 0 55 5t35.5 19t19.5 39t6 66v168h246v-247q0 -29 -9 -70.5t-32.5 -79.5t-64.5 -64.5t-104 -26.5h-209l-137 -245
l488 -1122h-250l-484 1100q-23 52 -54.5 102t-76.5 89t-106.5 63t-144.5 24q-70 0 -117.5 -21.5t-76 -65t-40.5 -108.5t-12 -153v-575q0 -56 3 -105.5t17 -86.5t42 -58.5t78 -21.5q46 0 88 15t77 30l56 -148q-21 -17 -52 -36t-68.5 -34.5t-79 -26t-83.5 -10.5
q-83 0 -138.5 24.5t-91 65.5t-53.5 93t-26 107.5t-8.5 109t-0.5 96.5v614z" />
    <glyph glyph-name="angkhankhuthai" unicode="&#xe5a;" horiz-adv-x="2278" 
d="M1732 1797l241 1v-1796h-241v1795zM1497 1797v-1372q0 -30 -3.5 -72t-17.5 -89t-42 -94.5t-77 -87.5q-52 -42 -117.5 -64t-131.5 -31.5t-125.5 -10.5t-99.5 -1q-31 0 -79 3t-105 13t-118.5 29t-119.5 52l76 187q78 -55 169.5 -81.5t176.5 -26.5q30 0 66.5 1.5t74.5 9
t76 23.5t71 44q29 25 44.5 56t22.5 64.5t8 69t1 68.5v233q-78 -1 -172.5 2.5t-190 14t-184 28.5t-154.5 47l1 -1q-101 49 -164 112t-98 131.5t-47.5 138.5t-12.5 132q0 118 38.5 207.5t98 149.5t132.5 90t142 30q66 0 121 -13t105 -41l-38 -143q-25 11 -46 16t-44 5
q-75 0 -127 -29t-84.5 -76.5t-47 -107.5t-14.5 -122q0 -76 18 -130t46 -92t62 -62.5t67 -41.5h-1q50 -26 124.5 -41.5t156.5 -23.5t164 -10.5t147 -2.5v910h252z" />
    <glyph glyph-name="khomutthai" unicode="&#xe5b;" horiz-adv-x="2962" 
d="M2594 813l-140 -284h-97l-119 351l-188 -486l-182 -2q-21 107 -46.5 213.5t-53 205t-56 186t-55.5 156.5l8 -94q0 -129 -22 -255.5t-64.5 -240.5t-106 -211.5t-146 -168.5t-184.5 -111t-222 -40q-125 0 -224 38t-176 103t-131.5 151.5t-89.5 184.5t-51.5 202t-16.5 203
q0 114 17 221t49.5 201t79 172t105.5 134t130 87t152 31q117 0 198.5 -51t131.5 -142.5t72.5 -218t22.5 -277.5q0 -38 -1 -77t-5 -81l-211 -5q5 51 7 95t2 86q0 108 -16.5 192.5t-46 143t-69 89t-85.5 30.5q-54 0 -105.5 -39t-91 -117.5t-64 -196.5t-24.5 -276
q0 -135 27.5 -255t82.5 -210t137.5 -142t193.5 -52q105 0 189.5 42t150.5 117t113.5 177.5t78.5 222.5t46 253.5t16 270.5l217 67q23 -44 47.5 -102.5t49 -126t47.5 -140t43.5 -145t36.5 -141t26 -127.5l179 483h148l110 -348l107 216h224v-162h-155z" />
    <glyph glyph-name="ZWSP" unicode="&#x200b;" 
 />
    <glyph glyph-name="endash" unicode="&#x2013;" horiz-adv-x="1457" 
d="M1457 902v-215h-1457v215h1457z" />
    <glyph glyph-name="emdash" unicode="&#x2014;" horiz-adv-x="2915" 
d="M2555 902v-215h-2189v215h2189z" />
    <glyph glyph-name="quoteleft" unicode="&#x2018;" horiz-adv-x="837" 
d="M595 1396h-353l3 358l201 391h138l-170 -428h181v-321z" />
    <glyph glyph-name="quoteright" unicode="&#x2019;" horiz-adv-x="837" 
d="M242 2145h353l-1 -357l-203 -392h-138l170 428h-181v321z" />
    <glyph glyph-name="quotedblleft" unicode="&#x201c;" horiz-adv-x="1524" 
d="M638 1396h-353l1 358l203 391h138l-170 -428h181v-321zM1239 1396h-353l-1 358l205 391h138l-170 -428h181v-321z" />
    <glyph glyph-name="quotedblright" unicode="&#x201d;" horiz-adv-x="1524" 
d="M886 2145h353l-1 -357l-203 -392h-138l170 428h-181v321zM285 2145h353l1 -357l-206 -392h-138l170 428h-180v321z" />
    <glyph glyph-name="bullet" unicode="&#x2022;" horiz-adv-x="1305" 
d="M110 943q0 112 42.5 211t116.5 172.5t172.5 116t211.5 42.5q112 0 211 -42.5t172.5 -116t116 -172.5t42.5 -211q0 -113 -42.5 -211.5t-116 -172.5t-172.5 -116.5t-211 -42.5q-113 0 -211.5 42.5t-172.5 116.5t-116.5 172.5t-42.5 211.5z" />
    <glyph glyph-name="Euro" unicode="&#x20ac;" horiz-adv-x="1620" 
d="M91 1136l78 190h184l5 71q12 164 64 301.5t142 237t217.5 155t289.5 55.5q62 0 118.5 -7t105.5 -17.5t88.5 -23t66.5 -22.5v-224q-36 16 -78.5 32t-88.5 28.5t-92.5 20.5t-90.5 8q-101 0 -184.5 -40t-145.5 -112t-99.5 -171.5t-45.5 -217.5q-2 -20 -3 -38.5t-2 -35.5h689
l-77 -190h-623q-2 -36 -2 -70.5v-68.5v-69h554l-77 -190h-467l7 -75q10 -109 50 -200.5t105 -157.5t155 -103t201 -37q39 0 83.5 4.5t87 12.5t80.5 20.5t64 28.5v-212q-28 -11 -73 -22.5t-97 -21t-106.5 -15.5t-102.5 -6q-149 0 -271 46t-212.5 136.5t-147.5 224t-76 307.5
q-2 17 -4 35t-4 35h-265l78 190h174q-1 26 -1 51.5v51.5v52.5t1 52.5h-252z" />
    <glyph glyph-name="trademark" unicode="&#x2122;" horiz-adv-x="2640" 
d="M1054 1944h-350v-1032h-182v1032h-350v152h882v-152zM1835 1159l299 937h281v-1184h-186v983l-6 -1l-325 -982h-125l-330 982h-2v-982h-186v1184h283z" />
    <glyph glyph-name="uni25CC" unicode="&#x25cc;" horiz-adv-x="2936" 
d="M1135 784l-211 -65l75 205q30 -42 63.5 -76t72.5 -64zM1367 1810l101 197l96 -192q-23 3 -46 3.5t-46 0.5q-26 0 -52 -2.5t-53 -6.5zM1556 684l-88 -184l-92 184q23 -4 48 -6.5t48 -2.5t43.5 2.5t40.5 6.5zM2038 1345l184 -96l-184 -83q4 20 6.5 40t2.5 43t-2.5 48
t-6.5 48zM912 1157l-197 101l197 97q-4 -27 -6.5 -53.5t-2.5 -52.5q0 -23 2.5 -46t6.5 -46zM1012 1591l-56 201l196 -69q-42 -27 -76 -59.5t-64 -72.5zM1928 899l53 -180l-180 57q37 26 69 56.5t58 66.5zM1797 1723l215 69l-75 -205q-29 39 -63 72.5t-77 63.5z" />
    <glyph glyph-name="thothannobasethai" unicode="&#xf700;" horiz-adv-x="1440" 
d="M631 1845q27 -1 62.5 -3.5t76.5 -9.5t85 -19.5t86 -32.5q13 43 33 71.5t44 46.5t51 27.5t52.5 13t49 3.5h41.5h166v-195q-9 0 -17.5 0.5t-30.5 0.5q-25 0 -55.5 -1t-58.5 -15t-48.5 -48.5t-25.5 -100.5q33 -69 40.5 -141.5t7.5 -143.5v-1298h-254v597q-22 51 -62.5 102
t-95 92.5t-121 67t-141.5 25.5q-23 0 -54 -4.5t-56 -10.5v279q14 4 42 8.5t56 2.5q36 0 92.5 -13t118 -42.5t121 -77.5t100.5 -119v301q0 101 -15 185.5t-61 147.5q-23 31 -55 51.5t-69.5 33t-78.5 17.5t-82 5q-46 0 -100.5 -6.5t-114.5 -24t-124.5 -47.5t-128.5 -77
l-89 163q20 15 50.5 32.5t64 34.5t65 31.5t53.5 22.5q106 41 204.5 54.5t175.5 13.5z" />
    <glyph glyph-name="yoyingnobasethai" unicode="&#xf70f;" horiz-adv-x="2660" 
d="M348 1010q0 49 -11.5 95t-36.5 84t-64 66.5t-94 42.5v203q76 57 166.5 118t193.5 111t217.5 82.5t237.5 32.5q50 0 109 -4t120.5 -19t122 -45.5t114.5 -83.5q39 -38 62.5 -83t37 -94.5t18 -103.5t4.5 -110v-833q0 -29 3 -59t10 -58t17 -52.5t25 -42.5q20 -25 48 -43.5
t61 -31t69 -18t71 -5.5t71 5.5t69 18t61.5 31t48.5 43.5q15 18 25 42.5t17 52.5t10 58t3 59v1328h253v-1378q0 -119 -44.5 -204t-121 -140t-178 -81t-214.5 -26t-214.5 26t-178 81t-121 140t-44.5 204v809q0 113 -22.5 197.5t-76.5 137.5q-44 44 -108 65.5t-157 22.5
q-60 1 -121 -12.5t-118.5 -35t-110.5 -49t-98.5 -55t-80.5 -52t-57 -40.5q55 -18 102.5 -51t82.5 -81t55 -110t20 -137v-706q0 -71 23 -107t82 -36h106v-189h-164q-91 0 -149.5 21.5t-92 63.5t-46.5 103.5t-13 142.5z" />
    <glyph glyph-name="saraulowthai" unicode="&#xf718;" 
d="M-495 -1290v336h-189v192h431v-528h-242z" />
    <glyph glyph-name="sarauulowthai" unicode="&#xf719;" 
d="M-1089 -760h368v-273q0 -25 10 -43.5t26.5 -31t38 -19t45.5 -6.5q22 0 43 6.5t37 19t25.5 31t9.5 43.5v273h233v-245q0 -59 -18.5 -114t-60 -97.5t-107.5 -68t-162 -25.5q-89 0 -154.5 20t-108.5 56t-64 86.5t-21 111.5v84h-140v192z" />
    <glyph glyph-name="phinthulowthai" unicode="&#xf71a;" 
d="M-623 -946q0 42 15.5 78.5t42.5 63.5t63.5 42.5t77.5 15.5q42 0 78.5 -15.5t63.5 -42.5t42.5 -63.5t15.5 -78.5q0 -41 -15.5 -77.5t-42.5 -63.5t-63.5 -42.5t-78.5 -15.5q-41 0 -77.5 15.5t-63.5 42.5t-42.5 63.5t-15.5 77.5z" />
    <glyph glyph-name="lochula.short" unicode="&#xf71d;" horiz-adv-x="2174" 
d="M1611 1786q24 63 59.5 95t74 45.5t75 14.5t63.5 1h166v-195h-8.5t-13 0.5t-23 0.5h-38.5q-22 0 -45 -0.5t-43.5 -11.5t-37 -37.5t-23.5 -78.5q30 -45 50 -95t32 -100.5t16.5 -100t4.5 -94.5v-768v-101.5t-4.5 -100.5t-16.5 -93t-35 -80q-41 -63 -110 -97t-168 -34
q-74 0 -142.5 27.5t-131.5 76t-119.5 115t-106.5 145.5q-50 -79 -106.5 -145.5t-119 -115t-131 -76t-142.5 -27.5q-99 0 -168 34t-110 97q-23 36 -34.5 80t-16 93t-4.5 100.5v101.5v1335h253v-1417q0 -56 8 -93.5t24 -61t40.5 -33.5t58.5 -10q38 0 81 18t86.5 52.5t84 85
t72.5 114.5v679h249v-679q32 -64 72.5 -114.5t84 -85t86.5 -52.5t81 -18q34 0 58.5 10t40.5 33.5t24 61t8 93.5v741q0 131 -13 219.5t-43 143.5q-26 42 -64 66.5t-77.5 37t-74.5 16.5t-54 4q-45 0 -91 -9t-91 -24t-87 -34t-78 -38l-63 174q40 22 87.5 45t106 41.5t128.5 30
t156 11.5q36 0 90 -6.5t111 -21.5z" />
    <glyph glyph-name="yamakkanleftthai" 
d="M-1298 2123v260h221v163h428v-153h-195v-163h-211v-107h-243z" />
    <glyph glyph-name="uni0E33.alt1" horiz-adv-x="1318" 
d="M812 1313q-1 41 -4 78t-11 70t-22 62.5t-37 55.5q-38 44 -91 58.5t-110 14.5q-63 0 -118 -12t-103.5 -32.5t-92 -46t-82.5 -52.5l-82 167q46 33 103.5 63.5t123.5 54t139 38t150 14.5q27 0 71 -3t93.5 -13.5t101 -31.5t93.5 -58q73 -64 102.5 -151.5t29.5 -209.5v-1379
h-254v1313zM-1040 2327q0 -23 9 -43.5t24 -35.5t35.5 -24t43.5 -9t43.5 9t36 24t24.5 35.5t9 43.5t-9 43.5t-24.5 36t-36 24.5t-43.5 9t-43.5 -9t-35.5 -24.5t-24 -36t-9 -43.5zM-1190 2327q0 55 20.5 103t56.5 83.5t84 56t102 20.5q55 0 103 -20.5t84 -56t56.5 -83.5
t20.5 -103q0 -54 -20.5 -102t-56.5 -84t-84 -56.5t-103 -20.5q-54 0 -102 20.5t-84 56.5t-56.5 84t-20.5 102z" />
    <glyph glyph-name="saraamleft" horiz-adv-x="1318" 
d="M812 1313q-1 41 -4 78t-11 70t-22 62.5t-37 55.5q-38 44 -91 58.5t-110 14.5q-63 0 -118 -12t-103.5 -32.5t-92 -46t-82.5 -52.5l-82 167q46 33 103.5 63.5t123.5 54t139 38t150 14.5q27 0 71 -3t93.5 -13.5t101 -31.5t93.5 -58q73 -64 102.5 -151.5t29.5 -209.5v-1379
h-254v1313zM-1040 2327q0 -23 9 -43.5t24 -35.5t35.5 -24t43.5 -9t43.5 9t36 24t24.5 35.5t9 43.5t-9 43.5t-24.5 36t-36 24.5t-43.5 9t-43.5 -9t-35.5 -24.5t-24 -36t-9 -43.5zM-1190 2327q0 55 20.5 103t56.5 83.5t84 56t102 20.5q55 0 103 -20.5t84 -56t56.5 -83.5
t20.5 -103q0 -54 -20.5 -102t-56.5 -84t-84 -56.5t-103 -20.5q-54 0 -102 20.5t-84 56.5t-56.5 84t-20.5 102z" />
    <glyph glyph-name="maiekthai.alt1" 
d="M-492 2527v532h237v-532h-237z" />
    <glyph glyph-name="maithothai.alt1" 
d="M-735 2818q-33 0 -64 -16t-57 -36l-61 113q12 11 38 32t63 42t83 36.5t97 15.5q31 0 59 -9t49 -27.5t33.5 -48t12.5 -70.5q0 -20 -4 -43t-9 -43t-11 -36t-10 -22h391v-174h-636q33 71 44 106.5t13 46.5q8 26 9 50t-4 42.5t-14.5 29.5t-21.5 11z" />
    <glyph glyph-name="maitrithai.alt1" 
d="M-785 2772q-48 0 -42 -56q2 -20 10 -44.5t19 -50t23.5 -49.5t24.5 -43h-163q-25 38 -43.5 70t-31.5 60t-20.5 53.5t-10.5 50.5q-8 52 3 90t33.5 63.5t53.5 38t63 12.5t65 -11.5t64 -31t58 -44t47 -50.5q19 26 45.5 50.5t56.5 44t63 31t67 11.5q31 0 60 -13.5t49.5 -39
t30 -63t1.5 -84.5q-2 -10 -6 -22.5t-9.5 -25t-10.5 -23t-9 -15.5h188v-152h-412q15 23 29 49.5t25 53.5t17.5 51.5t7.5 43.5q2 35 -8 48t-31 13q-16 0 -38.5 -19.5t-44.5 -45.5t-41.5 -53t-29.5 -43q-11 16 -30 40.5t-41 47.5t-44 40t-38 17z" />
    <glyph glyph-name="maichattawathai.alt1" 
d="M-471 2527l11 158l-201 -11v179l201 -11l-11 157h217l-10 -157l201 11v-179l-201 11l10 -158h-217z" />
    <glyph glyph-name="maiekupperleftthai.alt2" 
d="M-949 2527v532h237v-532h-237z" />
    <glyph glyph-name="maithoupperleftthai.alt2" 
d="M-1318 2812q-33 0 -64 -16t-57 -37l-61 114q12 11 38 32t63 42t83 36.5t97 15.5q31 0 59 -9t49 -27.5t33.5 -48t12.5 -70.5q0 -21 -4 -43.5t-9 -43t-11 -36t-10 -21.5h391v-175h-636q33 71 44 106.5t13 46.5q8 26 9 50.5t-4 43t-14.5 29.5t-21.5 11z" />
    <glyph glyph-name="maitriupperleftthai.alt2" 
d="M-1338 2756q-23 0 -35.5 -18.5t-8.5 -46.5q2 -19 9 -40.5t17 -43.5t21.5 -43.5t23.5 -39.5h-162q-50 76 -76 129.5t-30 103.5q-8 52 2.5 88.5t33 60t53.5 34.5t64 11q32 0 61.5 -12t56 -32t50.5 -45t44 -50q19 25 42 50t49 45t55.5 32t63.5 12q31 0 60.5 -12t50 -35.5
t30 -59t1.5 -82.5q-2 -10 -6.5 -22.5t-9.5 -25t-10.5 -23t-9.5 -15.5h189v-152h-413q16 21 30 45.5t24.5 48.5t16.5 47t5 42q-5 49 -49 49q-16 0 -32.5 -15t-32.5 -36.5t-30 -44.5t-24 -39q-11 16 -25.5 39t-31 44.5t-34 36.5t-33.5 15z" />
    <glyph glyph-name="maichattawaupperleftthai.alt2" 
d="M-1181 2526l10 158l-201 -11v179l201 -11l-10 157h217l-11 -157l201 11v-179l-201 11l11 -158h-217z" />
    <glyph glyph-name="maiekthai.alt3" 
d="M-492 2588v471h237v-471h-237z" />
    <glyph glyph-name="maithothai.alt3" 
d="M-671 2876q-33 0 -64 -16t-57 -37l-61 114q12 11 38.5 32t63.5 42t83 36.5t97 15.5q31 0 59 -9t49 -27.5t33.5 -48t12.5 -70.5q0 -21 -4 -43.5t-9.5 -43t-11.5 -36t-10 -21.5h370v-175h-615q33 72 44 107t13 46q9 26 9.5 50.5t-4 43t-14.5 29.5t-22 11z" />
    <glyph glyph-name="maitrithai.alt3" 
d="M-723 2833q-48 0 -42 -56q2 -20 10 -44.5t19 -50t23.5 -49.5t24.5 -43h-163q-25 38 -43.5 70t-31.5 60t-20.5 53.5t-10.5 50.5q-8 52 3 90t33.5 63.5t53.5 38t63 12.5t65 -11.5t64 -31t58 -44t47 -50.5q19 26 45.5 50.5t56.5 44t63 31t67 11.5q31 0 60 -13.5t50 -39
t30 -63t1 -84.5q-2 -10 -6 -22.5t-9 -25t-10.5 -23t-9.5 -15.5h188v-152h-412q15 23 29 49.5t25 53.5t17.5 51.5t7.5 43.5q2 35 -8 48t-31 13q-16 0 -38 -19.5t-44.5 -45.5t-42 -53t-29.5 -43q-11 16 -30 40.5t-40.5 47.5t-44 40t-38.5 17z" />
    <glyph glyph-name="maichattawathai.alt3" 
d="M-578 2588l11 158l-201 -11v179l201 -11l-11 157h217l-10 -157l201 11v-179l-201 11l10 -158h-217z" />
    <glyph glyph-name="maiekupperleftthai.alt4" 
d="M-949 2589v470h237v-470h-237z" />
    <glyph glyph-name="maithoupperleftthai.alt4" 
d="M-1182 2880q-33 0 -64 -16t-57 -36l-61 113q12 11 38 32t63 42t83 36.5t97 15.5q31 0 59 -9t49 -27.5t33.5 -48t12.5 -70.5q0 -20 -4 -43t-9 -43t-11 -36t-10 -22h358v-174h-603q33 71 43.5 106.5t13.5 46.5q8 26 9 50t-4 42.5t-14.5 29.5t-21.5 11z" />
    <glyph glyph-name="maitriupperleftthai.alt4" 
d="M-1252 2821q-23 0 -35.5 -18.5t-9.5 -47.5q3 -19 10 -40.5t17 -43.5t21.5 -43t23.5 -40h-163q-25 38 -43.5 70t-31.5 60t-20.5 53.5t-10.5 50.5q-8 52 3 88.5t33.5 59.5t53.5 34t63 11t62 -12t56.5 -31.5t50 -44.5t43.5 -51q20 26 42.5 51t49 44.5t56 31.5t63.5 12
q31 0 60 -12t50 -35.5t30 -59t1 -82.5q-2 -10 -6 -22.5t-9 -25t-10.5 -23t-9.5 -15.5h188v-152h-413q16 21 30 45.5t24.5 48.5t16.5 47t5 42q-2 23 -14.5 36.5t-33.5 13.5q-16 0 -33 -15.5t-32.5 -37t-30 -44.5t-24.5 -38q-11 15 -25 38t-30.5 44.5t-34 37t-33.5 15.5z" />
    <glyph glyph-name="maichattawaupperleftthai.alt4" 
d="M-985 2590l10 158l-201 -11v179l201 -11l-10 157h217l-11 -157l201 11v-179l-201 11l11 -158h-217z" />
    <glyph glyph-name="saraithai.alt5" 
d="M-1966 2122v194h1713v-194h-1713z" />
    <glyph glyph-name="saraiithai.alt5" 
d="M-1966 2122v195h1460v264h253v-459h-1713z" />
    <glyph glyph-name="sarauethai.alt5" 
d="M-686 2379q0 53 20.5 99.5t55.5 81.5t81.5 55t99.5 20t99.5 -20t81.5 -55t55.5 -81.5t20.5 -99.5t-20.5 -100t-55.5 -82t-81.5 -55t-99.5 -20h-1537v193h1289q-9 31 -9 64zM-526 2378q0 -41 28 -69t69 -28q40 0 68 28t28 69q0 20 -7.5 37.5t-20.5 31t-30.5 21t-37.5 7.5
t-38 -7.5t-31 -21t-20.5 -31t-7.5 -37.5z" />
    <glyph glyph-name="saraueethai.alt5" 
d="M-1966 2122v193h1056v266h222v-266h214v266h221v-459h-1713z" />
    <glyph glyph-name="saraileftthai.alt6" 
d="M-2055 2122v193h1345v-193h-1345z" />
    <glyph glyph-name="saraiileftthai.alt6" 
d="M-2054 2122v195h1090v264h254v-459h-1344z" />
    <glyph glyph-name="saraueleftthai.alt6" 
d="M-1155 2379q0 53 20.5 99.5t55.5 81.5t81.5 55t99.5 20t100 -20t82 -55t55 -81.5t20 -99.5t-20 -100t-55 -82t-82 -55t-100 -20h-1156v193h908q-4 16 -6.5 31.5t-2.5 32.5zM-995 2378q0 -20 7.5 -38t21 -31t31 -20.5t37.5 -7.5q41 0 69 28t28 69q0 20 -7.5 37.5t-20.5 31
t-31 21t-38 7.5t-37.5 -7.5t-31 -21t-21 -31t-7.5 -37.5z" />
    <glyph glyph-name="saraueeleftthai.alt6" 
d="M-2054 2122v195h764v264h210v-264h161v264h211v-459h-1346z" />
    <glyph glyph-name="saraithai.alt7" 
d="M-1365 2122v193h1112v-193h-1112z" />
    <glyph glyph-name="saraiithai.alt7" 
d="M-1365 2122v195h859v264h253v-459h-1112z" />
    <glyph glyph-name="sarauethai.alt7" 
d="M-683 2379q0 53 20.5 99.5t55.5 81.5t81.5 55t99.5 20t99.5 -20t81.5 -55t55.5 -81.5t20.5 -99.5t-20.5 -100t-55.5 -82t-81.5 -55t-99.5 -20h-939v193h691q-4 16 -6.5 31.5t-2.5 32.5zM-523 2378q0 -20 7.5 -38t21 -31t31 -20.5t37.5 -7.5q41 0 68.5 28t27.5 69
q0 40 -27.5 68.5t-68.5 28.5q-20 0 -37.5 -7.5t-31 -21t-21 -31t-7.5 -37.5z" />
    <glyph glyph-name="saraueethai.alt7" 
d="M-1365 2122v195h530v264h211v-264h161v264h210v-459h-1112z" />
    <glyph glyph-name="saraithai.alt8" 
d="M-1572 2122v193h1272v-193h-1272z" />
    <glyph glyph-name="saraiithai.alt8" 
d="M-1572 2122v195h1019v264h253v-459h-1272z" />
    <glyph glyph-name="sarauethai.alt8" 
d="M-735 2379q0 53 20 99.5t55 81.5t82 55t100 20t99.5 -20t81.5 -55t55.5 -81.5t20.5 -99.5t-20.5 -100t-55.5 -82t-81.5 -55t-99.5 -20h-1096v193h847q-4 16 -6 31.5t-2 32.5zM-576 2378q0 -41 28.5 -69t69.5 -28q40 0 68 28t28 69q0 20 -7.5 37.5t-20.5 31t-30.5 21
t-37.5 7.5t-38 -7.5t-31.5 -21t-21 -31t-7.5 -37.5z" />
    <glyph glyph-name="saraueethai.alt8" 
d="M-1572 2122v195h615v264h222v-264h214v264h221v-459h-1272z" />
    <glyph glyph-name="maiekthai.alt9" 
d="M-537 2736v400h237v-400h-237z" />
    <glyph glyph-name="maithothai.alt9" 
d="M-789 3022q-32 0 -63.5 -15.5t-57.5 -36.5l-60 113q12 11 38 32.5t63 42.5t83 36.5t97 15.5q31 0 59 -9t49 -27.5t33.5 -48t12.5 -70.5q0 -21 -4 -43.5t-9.5 -43t-11 -36t-9.5 -22.5h390v-174h-635q33 71 43.5 106.5t12.5 46.5q9 26 10 50t-4 42.5t-14.5 29.5t-22.5 11z
" />
    <glyph glyph-name="maitrithai.alt9" 
d="M-806 2979q-49 0 -41 -57q2 -19 10 -43.5t19 -50t23.5 -50t24.5 -42.5h-163q-25 38 -43.5 70t-32 60t-21 53t-9.5 50q-8 52 3 90.5t33.5 64t53 38t63.5 12.5q32 0 65 -12t64 -31t57.5 -44t46.5 -50q20 25 46 50t56.5 44t63.5 31t66 12q31 0 60.5 -13.5t50 -39t30 -63
t1.5 -84.5q-2 -10 -6.5 -22.5t-9.5 -25t-10.5 -23t-9.5 -15.5h189v-152h-412q15 23 28.5 49.5t24.5 53.5t18 51.5t8 43.5q2 35 -8.5 48t-31.5 13q-16 0 -38 -19.5t-44.5 -46t-42 -53.5t-29.5 -43q-11 16 -30 40.5t-40.5 48t-44 40.5t-38.5 17z" />
    <glyph glyph-name="maichattawathai.alt9" 
d="M-514 2736l11 157l-201 -10v178l201 -10l-11 157h218l-11 -157l201 10v-178l-201 10l11 -157h-218z" />
    <glyph glyph-name="saraamthai.alt10" horiz-adv-x="1318" 
d="M-536 2385q0 -23 9 -43.5t24 -35.5t35.5 -24t43.5 -9t43.5 9t36 24t24.5 35.5t9 43.5t-9 43.5t-24.5 35.5t-36 24t-43.5 9t-43.5 -9t-35.5 -24t-24 -35.5t-9 -43.5zM812 1313q-1 41 -4 78t-11 70t-22 62.5t-37 55.5q-38 44 -91 58.5t-110 14.5q-63 0 -118 -12
t-103.5 -32.5t-92 -46t-82.5 -52.5l-82 167q46 33 103.5 63.5t123.5 54t139 38t150 14.5q27 0 71 -3t93.5 -13.5t101 -31.5t93.5 -58q73 -64 102.5 -151.5t29.5 -209.5v-1380l-254 1v1313zM-686 2381q0 54 20.5 102t56.5 84t84 56.5t102 20.5q55 0 103 -20.5t84 -56.5
t56.5 -84t20.5 -102q0 -55 -20.5 -103t-56.5 -83.5t-84 -56t-103 -20.5q-54 0 -102 20.5t-84 56t-56.5 83.5t-20.5 103z" />
    <glyph glyph-name="maitaikhuthai.alt11" 
d="M-1163 2349l74 86h161q60 -67 104.5 -101t77 -48.5t53.5 -15.5t33 -1t26 6.5t26 20t20.5 34.5t8.5 50v55h187v-70q0 -63 -18.5 -111t-52.5 -80.5t-82 -49t-107 -16.5q-50 0 -94 12.5t-86.5 37.5t-85.5 63t-91 88l-180 -186h-171v290q0 77 22.5 138t64 103t100.5 64.5
t132 22.5h746v-164h-732q-67 0 -101.5 -35.5t-34.5 -115.5v-77z" />
    <glyph glyph-name="maieklowrightthai.alt12" 
d="M-556 2123v507h253v-507h-253z" />
    <glyph glyph-name="maitholowrightthai.alt12" 
d="M-884 2479q-19 0 -40.5 -4.5t-43 -13t-40.5 -19t-34 -22.5l-71 132q14 13 44.5 36t73.5 45t96 38t113 16q36 0 69 -9t58 -29t39.5 -52.5t14.5 -79.5q0 -24 -7 -54.5t-16 -59t-18.5 -50.5t-14.5 -29h450v-202h-734q18 28 34.5 65.5t29.5 77t21.5 78t9.5 69t-7 49t-27 18.5
z" />
    <glyph glyph-name="maitrilowrightthai.alt12" 
d="M-987 2419q-29 0 -42.5 -22.5t-9.5 -54.5q2 -24 14 -53t28 -58.5t33.5 -58t31.5 -50.5h-192q-29 44 -51 82t-37.5 71t-24.5 63.5t-12 59.5q-7 61 5.5 104.5t38.5 71t62 40t75 12.5q38 0 72.5 -12t66 -32t60 -47.5t52.5 -57.5q23 30 49.5 57.5t57.5 47.5t66 32t75 12
q37 0 72.5 -14t62 -41.5t39 -69.5t3.5 -98q-5 -35 -17.5 -62t-23.5 -41h248v-178h-485q15 24 31 54.5t29 63t21.5 64t8.5 57.5q0 32 -12 50.5t-46 18.5q-18 0 -43.5 -23t-52 -54.5t-49 -64.5t-34.5 -53q-12 20 -33 51t-45 60.5t-48.5 51t-43.5 21.5z" />
    <glyph glyph-name="maichattawalowrightthai.alt12" 
d="M-565 2122l13 181l-229 -12v215l229 -12l-13 181h268l-12 -181l228 12v-215l-228 12l12 -181h-268z" />
    <glyph glyph-name="thanthakhatlowrightthai.alt12" 
d="M-89 2496v-208h-426v-195h-297v403h723z" />
    <glyph glyph-name="sarauthai.alt13" 
d="M-542 -720v314h-189v193h431v-507h-242z" />
    <glyph glyph-name="sarauuthai.alt13" 
d="M-1136 -212h368v-273q0 -25 9.5 -43.5t26 -31t38.5 -19t46 -6.5q22 0 43 6.5t37 19t25.5 31t9.5 43.5v273h233v-245q0 -59 -18.5 -114t-60 -97.5t-107.5 -68t-162 -25.5q-89 0 -154.5 20t-108.5 56t-64 86.5t-21 111.5v84h-140v192z" />
    <glyph glyph-name="phinthuthai.alt13" 
d="M-601 -393q0 42 15.5 78.5t42.5 63.5t63 42.5t78 15.5t78.5 -15.5t63.5 -42.5t42.5 -63.5t15.5 -78.5q0 -41 -15.5 -77.5t-42.5 -63.5t-63.5 -42.5t-78.5 -15.5t-78 15.5t-63 42.5t-42.5 63.5t-15.5 77.5z" />
    </font>
</defs>
</svg>
